<svg width="2466" height="2549" viewBox="0 0 2466 2549" fill="none" xmlns="http://www.w3.org/2000/svg">
<path d="M1232.89 2548.76C1913.68 2548.76 2465.57 2230.13 2465.57 1837.08C2465.57 1444.03 1913.68 1125.39 1232.89 1125.39C552.106 1125.39 0.217773 1444.03 0.217773 1837.08C0.217773 2230.13 552.106 2548.76 1232.89 2548.76Z" fill="#F5F5F5"/>
<path d="M2017.48 2208.65C2181.81 2208.65 2315.03 2131.75 2315.03 2036.88C2315.03 1942.02 2181.81 1865.11 2017.48 1865.11C1853.16 1865.11 1719.94 1942.02 1719.94 2036.88C1719.94 2131.75 1853.16 2208.65 2017.48 2208.65Z" fill="#E0E0E0"/>
<path d="M1727.99 1941.23L1014.23 2353.12C994.128 2364.71 959.054 2363.25 935.859 2349.85L179.644 1912.57C156.449 1899.17 153.972 1878.79 174.014 1867.53L887.779 1455.2C907.878 1443.6 942.952 1445.06 966.148 1458.46L1722.36 1895.74C1745.56 1909.08 1748.03 1929.35 1727.99 1941.23Z" fill="#E0E0E0"/>
<path d="M1945.53 278.989L1983.03 300.27V287.04C1983.03 286.083 1983.03 285.125 1983.03 284.225C1983.03 283.324 1983.03 282.423 1983.03 281.522V281.184C1984.38 263.563 1997.67 256.807 2013.94 266.209C2021.27 270.76 2027.55 276.825 2032.35 283.999C2036.01 260.128 2055.49 251.515 2079.07 265.083C2105.25 280.227 2126.42 316.935 2126.42 347.167V375.317C2126.4 377.587 2126.98 379.822 2128.1 381.798C2129.21 383.774 2130.83 385.422 2132.78 386.577L2154.85 399.526C2159.64 402.327 2163.6 406.332 2166.36 411.142C2169.12 415.952 2170.56 421.4 2170.56 426.944C2170.56 429.24 2169.95 431.496 2168.8 433.482C2167.64 435.468 2165.99 437.115 2163.99 438.257C2162 439.399 2159.74 439.996 2157.45 439.986C2155.15 439.977 2152.9 439.362 2150.91 438.204L1946.1 319.806C1940.66 316.667 1936.14 312.154 1933 306.719C1929.86 301.284 1928.2 295.119 1928.19 288.841C1928.23 286.83 1928.79 284.863 1929.82 283.134C1930.85 281.405 1932.31 279.974 1934.06 278.98C1935.81 277.986 1937.79 277.465 1939.8 277.466C1941.81 277.468 1943.79 277.992 1945.53 278.989Z" fill="#E6E6E6"/>
<path d="M1800.84 90.0478L1826.85 104.798V95.6214C1826.85 94.9458 1826.85 94.3265 1826.85 93.651C1826.85 92.9754 1826.85 92.4124 1826.85 91.7931C1827.81 79.6324 1837.04 74.9032 1848.3 81.434C1853.41 84.5865 1857.78 88.7894 1861.14 93.7635C1863.67 77.2115 1877.19 71.2438 1893.51 80.6458C1903.08 86.8863 1911.04 95.2909 1916.75 105.179C1922.46 115.068 1925.76 126.162 1926.39 137.565V157.269C1926.38 158.834 1926.79 160.372 1927.57 161.727C1928.35 163.082 1929.48 164.205 1930.84 164.982L1946.1 173.99C1949.42 175.934 1952.17 178.713 1954.09 182.051C1956.01 185.39 1957.01 189.171 1957.02 193.019C1957.02 194.613 1956.6 196.177 1955.8 197.556C1955 198.934 1953.85 200.078 1952.47 200.872C1951.09 201.665 1949.52 202.08 1947.93 202.076C1946.33 202.071 1944.77 201.647 1943.39 200.845L1801.52 118.535C1797.76 116.344 1794.63 113.205 1792.46 109.432C1790.29 105.659 1789.14 101.383 1789.13 97.0289C1789.15 95.6611 1789.52 94.3204 1790.2 93.1351C1790.88 91.9498 1791.86 90.9596 1793.03 90.2591C1794.21 89.5587 1795.54 89.1714 1796.91 89.1344C1798.28 89.0974 1799.63 89.4119 1800.84 90.0478Z" fill="#E6E6E6"/>
<path d="M190.285 1744.18L105.836 1793.78C105.836 1793.78 67.2141 1788.15 70.1417 1751.73C73.0692 1715.3 88.7205 1706.69 69.2409 1690.87C49.7613 1675.05 44.638 1673.98 45.5951 1658.16C46.5522 1642.34 56.855 1635.64 61.9782 1629.5C67.1015 1623.36 80.7823 1610.3 71.0424 1591.39C61.3026 1572.47 48.1286 1554.28 67.7208 1545.61C79.3748 1540.49 99.0233 1546.91 112.028 1560.76C125.034 1574.61 135.787 1584.52 148.06 1587.67C160.333 1590.82 186.119 1591.16 185.274 1612.39C184.43 1633.61 178.856 1640.99 184.035 1650.39C193.832 1668.01 235.268 1677.58 190.285 1744.18Z" fill="#D4F600"/>
<path opacity="0.2" d="M190.285 1744.18L105.836 1793.78C105.836 1793.78 67.2141 1788.15 70.1417 1751.73C73.0692 1715.3 88.7205 1706.69 69.2409 1690.87C49.7613 1675.05 44.638 1673.98 45.5951 1658.16C46.5522 1642.34 56.855 1635.64 61.9782 1629.5C67.1015 1623.36 80.7823 1610.3 71.0424 1591.39C61.3026 1572.47 48.1286 1554.28 67.7208 1545.61C79.3748 1540.49 99.0233 1546.91 112.028 1560.76C125.034 1574.61 135.787 1584.52 148.06 1587.67C160.333 1590.82 186.119 1591.16 185.274 1612.39C184.43 1633.61 178.856 1640.99 184.035 1650.39C193.832 1668.01 235.268 1677.58 190.285 1744.18Z" fill="black"/>
<path d="M155.942 1766.25C155.678 1766.24 155.419 1766.17 155.182 1766.05C154.944 1765.94 154.733 1765.78 154.559 1765.58C154.386 1765.38 154.255 1765.14 154.173 1764.89C154.091 1764.64 154.061 1764.38 154.084 1764.11C154.084 1762.87 163.148 1639.13 77.3479 1558C76.9671 1557.63 76.7473 1557.13 76.7367 1556.6C76.7262 1556.08 76.9258 1555.57 77.2916 1555.18C77.6574 1554.8 78.1595 1554.58 78.6874 1554.57C79.2153 1554.56 79.7258 1554.76 80.1066 1555.13C167.371 1637.55 158.194 1763.16 158.081 1764.45C158.024 1764.97 157.771 1765.44 157.372 1765.78C156.974 1766.11 156.462 1766.28 155.942 1766.25Z" fill="white"/>
<path d="M140.685 1658.49C140.418 1658.49 140.155 1658.43 139.914 1658.31C139.672 1658.2 139.457 1658.04 139.282 1657.84C139.107 1657.63 138.977 1657.4 138.898 1657.14C138.82 1656.89 138.795 1656.62 138.827 1656.35C139.457 1646.05 142.22 1636 146.939 1626.82C151.659 1617.64 158.233 1609.54 166.245 1603.04C166.677 1602.83 167.169 1602.78 167.634 1602.9C168.099 1603.02 168.506 1603.3 168.783 1603.69C169.06 1604.09 169.189 1604.56 169.147 1605.04C169.105 1605.52 168.894 1605.97 168.553 1606.3C161.093 1612.53 154.969 1620.19 150.548 1628.84C146.126 1637.49 143.499 1646.95 142.824 1656.64C142.781 1657.16 142.533 1657.65 142.133 1658C141.733 1658.35 141.213 1658.53 140.685 1658.49Z" fill="white"/>
<path d="M147.047 1679.94C146.76 1679.95 146.476 1679.89 146.214 1679.77C145.952 1679.65 145.718 1679.48 145.527 1679.27C145.527 1679.27 124.02 1656.19 75.6029 1662.83C75.3437 1662.87 75.0793 1662.86 74.825 1662.79C74.5707 1662.73 74.3317 1662.62 74.122 1662.46C73.9123 1662.3 73.7361 1662.1 73.6036 1661.88C73.4712 1661.65 73.3853 1661.4 73.3509 1661.14C73.2699 1660.61 73.4022 1660.07 73.7187 1659.64C74.0353 1659.21 74.5103 1658.92 75.0399 1658.83C125.709 1651.91 147.61 1675.72 148.229 1676.57C148.416 1676.75 148.565 1676.97 148.667 1677.21C148.768 1677.45 148.821 1677.71 148.821 1677.97C148.821 1678.24 148.768 1678.5 148.667 1678.74C148.565 1678.98 148.416 1679.2 148.229 1679.38C147.914 1679.7 147.495 1679.9 147.047 1679.94Z" fill="white"/>
<path d="M229.863 1720.82L178.799 1750.49C178.799 1750.49 204.585 1668.29 190.059 1585.59C186.629 1566.1 179.583 1547.42 169.285 1530.53C165.288 1522.19 134.492 1470.57 161.572 1446.81C188.652 1423.05 252.27 1470.34 249.399 1597.69C248.102 1639.39 241.538 1680.76 229.863 1720.82Z" fill="#D4F600"/>
<path opacity="0.5" d="M229.863 1720.82L178.799 1750.49C178.799 1750.49 204.585 1668.29 190.059 1585.59C186.629 1566.1 179.583 1547.42 169.285 1530.53C165.288 1522.19 134.492 1470.57 161.572 1446.81C188.652 1423.05 252.27 1470.34 249.399 1597.69C248.102 1639.39 241.538 1680.76 229.863 1720.82Z" fill="black"/>
<path d="M206.105 1736.64H205.429C204.931 1736.45 204.528 1736.07 204.307 1735.59C204.086 1735.1 204.064 1734.55 204.247 1734.05C204.247 1733.54 223.445 1680.62 222.432 1595.5C221.418 1510.37 177.392 1466.01 176.829 1465.44C176.642 1465.26 176.493 1465.04 176.392 1464.8C176.29 1464.56 176.238 1464.3 176.238 1464.04C176.238 1463.77 176.29 1463.51 176.392 1463.27C176.493 1463.03 176.642 1462.81 176.829 1462.63C177.018 1462.44 177.241 1462.29 177.488 1462.19C177.734 1462.09 177.998 1462.03 178.265 1462.03C178.532 1462.03 178.796 1462.09 179.042 1462.19C179.288 1462.29 179.512 1462.44 179.7 1462.63C180.151 1463.08 225.528 1509.08 226.542 1595.44C227.555 1681.8 208.244 1734.78 208.244 1735.34C208.084 1735.77 207.786 1736.13 207.398 1736.36C207.01 1736.59 206.555 1736.69 206.105 1736.64Z" fill="white"/>
<path d="M1112.64 53.3968C1110.87 45.7023 1107.56 38.4446 1102.92 32.0594C1098.28 25.6742 1092.39 20.2931 1085.61 16.2391L1083.31 14.888C1066.96 5.15864 1048.28 0.0236312 1029.26 0.0248983C1023.19 -0.0571699 1017.21 1.51963 1011.98 4.58515L355.636 383.593C334.865 395.569 318.933 414.428 310.597 436.909C310.597 437.303 310.315 437.641 310.202 437.978C308.975 441.351 307.941 444.791 307.106 448.281C307.106 448.788 307.106 449.295 306.712 449.745C305.924 453.236 305.304 456.782 304.854 460.329V461.68C304.431 465.419 304.205 469.178 304.178 472.94V1892.36V1904.19C304.16 1909.85 305.614 1915.42 308.397 1920.36C311.18 1925.29 315.197 1929.42 320.055 1932.33L346.234 1947.87C355.308 1953.29 365.676 1956.15 376.242 1956.15H389.134C395.22 1956.22 401.211 1954.64 406.474 1951.59L1062.59 1572.47C1078.29 1563.41 1091.32 1550.38 1100.39 1534.69C1109.45 1518.99 1114.22 1501.19 1114.21 1483.07V66.4583V63.5307C1114.18 60.0946 1113.65 56.6818 1112.64 53.3968ZM1083.93 30.0888C1083.19 30.0888 1082.41 30.0888 1081.62 30.0888C1082.41 29.9199 1083.19 30.0325 1083.93 30.0888ZM1079.87 30.0888C1079.07 30.0328 1078.26 30.0328 1077.45 30.0888C1078.25 29.9764 1079.06 29.92 1079.87 29.9199V30.0888ZM1067.54 32.6223C1066.16 33.1764 1064.83 33.8351 1063.55 34.5928C1064.83 33.8544 1066.16 33.2145 1067.54 32.6786V32.6223Z" fill="#37474F"/>
<path d="M355.58 502.723C355.57 484.606 360.337 466.806 369.401 451.12C378.465 435.433 391.505 422.414 407.206 413.376L1063.55 34.4239C1067.92 31.8968 1072.81 30.3831 1077.84 29.9944C1082.88 29.6056 1087.94 30.3516 1092.65 32.1775C1097.36 34.0034 1101.6 36.8626 1105.06 40.5447C1108.52 44.2267 1111.11 48.6378 1112.64 53.4531C1110.87 45.7586 1107.56 38.5009 1102.92 32.1157C1098.28 25.7305 1092.39 20.3494 1085.61 16.2954L1083.31 14.9442C1066.96 5.21493 1048.28 0.0799056 1029.26 0.0811726C1023.19 -0.000895519 1017.21 1.57591 1011.98 4.64144L355.636 383.593C339.932 392.633 326.887 405.651 317.814 421.336C308.741 437.022 303.96 454.82 303.953 472.94V1892.36C303.949 1898.29 305.507 1904.12 308.471 1909.26C311.434 1914.4 315.698 1918.67 320.834 1921.63C325.969 1924.6 331.796 1926.16 337.727 1926.16C343.659 1926.16 349.486 1924.6 354.623 1921.64L355.467 1921.13L355.58 502.723Z" fill="#37484F"/>
<path d="M1062.59 1572.47L406.306 1951.42C401.169 1954.39 395.342 1955.95 389.411 1955.95C383.479 1955.95 377.652 1954.38 372.517 1951.41C367.381 1948.45 363.117 1944.18 360.154 1939.04C357.191 1933.9 355.632 1928.08 355.636 1922.14V502.723C355.626 484.606 360.394 466.806 369.458 451.12C378.522 435.433 391.562 422.414 407.263 413.375L1063.55 34.4238C1068.68 31.4581 1074.51 29.8972 1080.44 29.8982C1086.37 29.8991 1092.2 31.4619 1097.33 34.4292C1102.47 37.3966 1106.73 41.6639 1109.7 46.8021C1112.66 51.9403 1114.22 57.7681 1114.22 63.6995V1483.07C1114.22 1501.19 1109.45 1518.99 1100.39 1534.69C1091.32 1550.38 1078.29 1563.41 1062.59 1572.47Z" fill="#455A64"/>
<path d="M355.58 1922.14V502.723C355.618 487.256 359.139 471.997 365.883 458.077L315.213 426.775C307.903 441.112 304.047 456.96 303.953 473.053V1904.19C303.935 1909.85 305.389 1915.42 308.172 1920.36C310.955 1925.29 314.972 1929.42 319.83 1932.34L346.009 1947.87C355.083 1953.29 365.451 1956.15 376.017 1956.15H388.909C379.989 1956.03 371.479 1952.39 365.235 1946.02C358.99 1939.65 355.52 1931.07 355.58 1922.14Z" fill="#253239"/>
<path d="M1040.01 170.837V1363.88C1039.99 1379.86 1035.77 1395.54 1027.78 1409.38C1019.78 1423.21 1008.3 1434.7 994.466 1442.7L414.863 1777.4C410.508 1779.96 405.559 1781.34 400.507 1781.4C402.187 1785.25 404.663 1788.71 407.773 1791.55C410.882 1794.38 414.555 1796.53 418.552 1797.85C422.548 1799.17 426.778 1799.63 430.964 1799.2C435.15 1798.77 439.198 1797.46 442.844 1795.36L1022.73 1460.71C1036.57 1452.73 1048.07 1441.24 1056.06 1427.41C1064.06 1413.57 1068.27 1397.87 1068.27 1381.89V200.62C1068.27 192.982 1065.34 185.635 1060.08 180.095C1054.82 174.554 1047.64 171.241 1040.01 170.837Z" fill="#37484F"/>
<path d="M400.507 1781.4C405.559 1781.34 410.508 1779.96 414.863 1777.4L994.748 1442.81C1008.58 1434.81 1020.06 1423.32 1028.06 1409.49C1036.05 1395.66 1040.27 1379.97 1040.29 1363.99V170.837C1034.44 170.881 1028.67 172.227 1023.4 174.778L443.632 509.366C429.802 517.364 418.316 528.854 410.322 542.687C402.329 556.52 398.11 572.209 398.086 588.185V1769.52C398.074 1773.66 398.918 1777.76 400.563 1781.56L400.507 1781.4Z" fill="#D4F600"/>
<g opacity="0.5">
<path d="M400.507 1781.4C405.559 1781.34 410.508 1779.96 414.863 1777.4L994.748 1442.81C1008.58 1434.81 1020.06 1423.32 1028.06 1409.49C1036.05 1395.66 1040.27 1379.97 1040.29 1363.99V170.837C1034.44 170.881 1028.67 172.227 1023.4 174.778L443.632 509.366C429.802 517.364 418.316 528.854 410.322 542.687C402.329 556.52 398.11 572.209 398.086 588.185V1769.52C398.074 1773.66 398.918 1777.76 400.563 1781.56L400.507 1781.4Z" fill="white"/>
</g>
<path d="M643.045 334.556C642.849 338.175 641.804 341.696 639.995 344.836C638.185 347.976 635.662 350.645 632.629 352.628C626.999 355.95 622.158 353.248 622.158 346.604C622.355 342.98 623.407 339.453 625.227 336.313C627.046 333.172 629.583 330.506 632.629 328.532C638.372 325.436 643.045 327.857 643.045 334.556Z" fill="#253239"/>
<path d="M681.892 312.149C681.69 315.773 680.636 319.297 678.817 322.437C676.997 325.577 674.463 328.244 671.42 330.221C665.79 333.543 661.004 330.841 661.004 324.197C661.2 320.571 662.245 317.042 664.054 313.893C665.863 310.744 668.386 308.064 671.42 306.069C677.219 302.916 681.892 305.449 681.892 312.149Z" fill="#253239"/>
<path d="M838.798 233.668L712.575 306.857C707.564 309.728 703.567 306.857 703.567 300.045C703.601 296.658 704.435 293.327 706.001 290.324C707.566 287.32 709.818 284.729 712.575 282.761L838.798 209.571C843.809 206.7 847.862 209.572 847.862 216.44C847.808 219.821 846.96 223.142 845.385 226.135C843.811 229.128 841.554 231.708 838.798 233.668Z" fill="#253239"/>
<path d="M817.235 1617.23C824.779 1617.23 829.621 1625.22 829.621 1637.61C829.621 1657.03 817.461 1680.51 803.104 1688.84L742.695 1723.69C739.99 1725.4 736.884 1726.37 733.687 1726.5C726.143 1726.5 721.301 1718.51 721.301 1706.12C721.301 1686.64 733.462 1663.22 747.874 1654.89L808.227 1620.32C810.936 1618.62 814.04 1617.65 817.235 1617.51M817.235 1612.38C813.131 1612.52 809.133 1613.72 805.638 1615.88L745.285 1650.72C729.183 1660.01 716.122 1684.96 716.122 1706.41C716.122 1722.39 723.384 1731.91 733.687 1731.91C737.791 1731.78 741.79 1730.57 745.285 1728.42L805.638 1693.51C821.739 1684.22 834.801 1659.28 834.801 1637.83C834.801 1621.84 827.594 1612.33 817.235 1612.33V1612.38Z" fill="#253239"/>
<path d="M1205.08 208.502L1174.57 190.317C1169.6 186.988 1163.79 185.131 1157.82 184.961C1151.84 184.792 1145.94 186.317 1140.79 189.36L922.121 317.667V327.913C922.121 359.553 896.449 399.976 864.808 417.992L795.842 457.796C772.252 471.42 752.041 469.056 743.258 453.573L765.778 440.399L738.698 424.973L515.696 555.644C502.345 563.457 491.275 574.633 483.59 588.058C475.905 601.482 471.872 616.687 471.895 632.155V1991.9C471.862 1997.47 473.296 2002.95 476.053 2007.8C478.811 2012.64 482.794 2016.67 487.602 2019.49L488.221 2019.82L517.948 2036.71V2020.05L520.031 2018.98C682.736 1920.96 1011.36 1724.82 1137.69 1649.43C1153.29 1640.14 1166.21 1626.95 1175.17 1611.15C1184.13 1595.36 1188.83 1577.51 1188.81 1559.35V224.716L1205.08 208.502Z" fill="#EBEBEB"/>
<path d="M516.709 2038.91L486.195 2021.46C480.999 2018.37 476.704 2013.98 473.74 2008.71C470.776 2003.44 469.247 1997.49 469.305 1991.45V632.437C469.333 616.521 473.499 600.886 481.396 587.068C489.292 573.249 500.647 561.722 514.344 553.618L737.347 422.946H740.161L767.298 438.372V443.214L747.199 454.925C750.237 459.102 754.637 462.089 759.641 463.369C769.212 465.903 781.598 463.369 794.434 455.825L863.457 416.022C894.253 398.231 919.306 358.765 919.306 328.082V317.666L920.714 315.246L1139.38 187.052C1144.98 183.764 1151.4 182.12 1157.89 182.309C1164.38 182.498 1170.69 184.513 1176.09 188.121L1206.55 206.081L1207.11 210.472L1191.74 225.842V1559.63C1191.7 1578.25 1186.85 1596.54 1177.66 1612.73C1168.47 1628.92 1155.24 1642.45 1139.27 1652.02C1066.98 1695.15 697.374 1915.67 521.607 2021.51L520.875 2021.96V2036.43L516.709 2038.91ZM488.953 2016.84L515.245 2031.65V2020.39L516.822 2017.85L517.497 2017.52L518.679 2016.9C694.503 1911 1064.05 1690.36 1136.4 1647.35C1151.53 1638.28 1164.06 1625.46 1172.78 1610.12C1181.49 1594.78 1186.08 1577.44 1186.11 1559.8V224.66L1186.95 222.689L1200.52 209.065L1173.1 192.907C1168.58 189.832 1163.27 188.105 1157.8 187.925C1152.33 187.746 1146.92 189.122 1142.2 191.893L924.936 319.299V327.913C924.936 360.398 898.588 402.003 866.272 420.751L797.249 460.554C783.062 468.774 769.099 471.814 758.177 468.662C754.528 467.708 751.107 466.03 748.119 463.728C745.13 461.426 742.635 458.547 740.781 455.262L741.794 451.434L760.035 440.793L738.585 428.576L516.99 558.403C504.088 565.996 493.391 576.825 485.956 589.819C478.521 602.813 474.606 617.522 474.597 632.493V1991.9C474.56 1996.98 475.868 2001.98 478.39 2006.39C480.912 2010.8 484.556 2014.46 488.953 2017.01V2016.84Z" fill="#EBEBEB"/>
<path d="M1216 232.485V1575.28C1216.04 1593.44 1211.35 1611.29 1202.39 1627.08C1193.44 1642.87 1180.53 1656.07 1164.94 1665.36C1038.6 1740.75 709.985 1936.9 547.279 2034.91C542.427 2037.82 536.891 2039.39 531.235 2039.46C525.578 2039.53 520.005 2038.1 515.082 2035.31C510.16 2032.52 506.065 2028.48 503.216 2023.59C500.366 2018.71 498.864 2013.15 498.862 2007.49V647.863C498.857 632.397 502.896 617.2 510.58 603.778C518.263 590.356 529.324 579.178 542.663 571.352L765.609 440.681V449.295C765.609 480.935 791.281 491.801 822.921 473.503L891.888 433.7C923.529 415.459 949.145 374.979 949.145 343.621V333.093L1167.81 204.899C1172.67 202.04 1178.2 200.517 1183.84 200.484C1189.47 200.45 1195.02 201.908 1199.91 204.708C1204.81 207.509 1208.87 211.553 1211.7 216.431C1214.52 221.309 1216.01 226.848 1216 232.485Z" fill="#FAFAFA"/>
<path d="M1213.19 232.485V1521.01C1213.19 1543.53 1215.55 1568.13 1212.01 1590.71C1206.88 1623.59 1186.62 1648.81 1158.58 1665.53L1109.43 1694.86L977.408 1773.68C875.28 1834.71 773.191 1895.78 671.139 1956.88L604.086 1997.14C584.212 2009.07 564.676 2022.98 543.789 2033.28C539.292 2035.41 534.329 2036.36 529.363 2036.06C524.397 2035.75 519.59 2034.19 515.387 2031.53C511.185 2028.87 507.724 2025.18 505.327 2020.82C502.93 2016.46 501.674 2011.57 501.677 2006.59C501.677 2004.45 501.677 2002.26 501.677 2000.06V650.959C501.334 635.334 505.146 619.897 512.723 606.227C520.3 592.557 531.37 581.144 544.803 573.153C601.102 539.374 657.852 506.889 714.377 473.785L767.073 442.877L762.85 440.456C762.85 451.096 762.85 462.075 768.48 471.42C771.519 475.997 775.741 479.665 780.697 482.035C785.654 484.404 791.16 485.386 796.63 484.876C815.153 483.806 832.211 471.083 847.863 462.356C863.514 453.63 878.152 445.128 892.902 436.233C921.036 419.3 941.38 391.979 949.539 360.173C950.818 354.631 951.497 348.969 951.566 343.283C951.847 340.87 951.847 338.433 951.566 336.02C950.947 333.149 952.58 333.881 950.384 335.682C952.692 334.09 955.12 332.678 957.647 331.46L997.563 308.039L1115.4 238.96L1161.73 211.824C1164.1 210.416 1166.46 208.952 1168.88 207.657C1173.32 205.147 1178.33 203.834 1183.43 203.847C1188.53 203.86 1193.53 205.198 1197.96 207.731C1202.38 210.264 1206.07 213.903 1208.66 218.293C1211.25 222.682 1212.66 227.67 1212.74 232.767C1212.74 236.37 1218.37 236.37 1218.37 232.767C1218.25 226.691 1216.56 220.751 1213.46 215.524C1210.36 210.297 1205.96 205.961 1200.69 202.94C1195.41 199.918 1189.45 198.313 1183.37 198.282C1177.3 198.25 1171.31 199.793 1166.01 202.759C1158.69 206.757 1151.6 211.261 1144.39 215.483L1033.65 280.396L979.547 311.98C969.638 317.61 958.773 323.24 949.483 329.602C946.33 331.854 946.274 333.093 946.274 337.371C946.493 352.777 942.957 368.003 935.971 381.735C923.642 405.012 904.673 424.098 881.473 436.571C862.219 447.831 842.965 459.091 823.71 469.9C811.944 476.6 796.518 483.525 783.062 477.388C768.593 470.801 768.48 454.362 768.48 440.737C768.477 440.244 768.345 439.761 768.097 439.336C767.849 438.91 767.493 438.557 767.066 438.312C766.638 438.067 766.154 437.938 765.661 437.939C765.168 437.94 764.685 438.07 764.258 438.316L600.989 534.025C581.116 545.679 561.073 557.052 541.368 568.931C527.395 577.444 515.888 589.46 507.988 603.788C500.088 618.117 496.069 634.261 496.329 650.621C496.329 677.645 496.329 704.613 496.329 731.636V2002.6C496.329 2004.12 496.329 2005.64 496.329 2007.1C496.389 2012.04 497.488 2016.92 499.556 2021.41C501.623 2025.9 504.613 2029.91 508.33 2033.17C512.046 2036.43 516.407 2038.87 521.13 2040.33C525.852 2041.8 530.829 2042.25 535.738 2041.67C546.998 2040.2 557.245 2032.15 566.872 2026.35L596.429 2008.56L663.989 1967.92C714.996 1937.36 766.022 1906.81 817.067 1876.26C913.677 1818.23 1010.44 1760.38 1107.35 1702.69C1146.76 1679.04 1194.5 1659.06 1211.89 1613C1217.13 1597.67 1219.48 1581.51 1218.82 1565.32V232.485C1218.82 231.739 1218.52 231.023 1218 230.495C1217.47 229.967 1216.75 229.67 1216 229.67C1215.26 229.67 1214.54 229.967 1214.01 230.495C1213.49 231.023 1213.19 231.739 1213.19 232.485Z" fill="#EBEBEB"/>
<path d="M656.658 706.768C672.08 679.933 672.017 650.958 656.516 642.049C641.016 633.141 615.948 647.673 600.526 674.508C585.104 701.343 585.167 730.318 600.667 739.227C616.168 748.135 641.235 733.603 656.658 706.768Z" fill="#D4F600"/>
<path d="M702.328 638.236C701.082 638.244 699.868 637.839 698.876 637.083C697.885 636.328 697.172 635.264 696.85 634.06C696.528 632.856 696.615 631.579 697.097 630.429C697.579 629.279 698.429 628.322 699.513 627.708L881.304 522.765C882.604 522.019 884.146 521.819 885.592 522.21C887.039 522.6 888.271 523.549 889.017 524.849C889.764 526.148 889.964 527.69 889.573 529.136C889.183 530.583 888.233 531.815 886.934 532.562L705.143 637.504C704.285 637.99 703.315 638.242 702.328 638.236Z" fill="#D4F600"/>
<path d="M702.328 672.635C701.082 672.643 699.868 672.238 698.876 671.482C697.885 670.727 697.172 669.663 696.85 668.459C696.528 667.255 696.615 665.978 697.097 664.828C697.579 663.678 698.429 662.721 699.514 662.107L810.986 597.756C811.629 597.384 812.339 597.143 813.075 597.046C813.811 596.949 814.56 596.999 815.277 597.193C815.993 597.386 816.665 597.72 817.252 598.174C817.84 598.628 818.332 599.194 818.699 599.839C819.433 601.132 819.626 602.663 819.236 604.097C818.846 605.531 817.904 606.753 816.616 607.496L705.143 671.903C704.285 672.389 703.315 672.641 702.328 672.635Z" fill="#D4F600"/>
<path d="M1134.99 935.497L604.367 1241.82C594.064 1247.79 585.732 1241.48 585.732 1227.75V836.635C585.838 829.652 587.579 822.791 590.816 816.602C594.052 810.413 598.693 805.069 604.367 800.997L1134.99 494.616C1145.29 488.986 1153.68 495.01 1153.68 508.747V899.69C1153.59 906.707 1151.86 913.604 1148.61 919.825C1145.36 926.046 1140.7 931.414 1134.99 935.497Z" fill="#E0E0E0"/>
<path d="M640.342 846.375C639.36 846.369 638.396 846.106 637.547 845.612C636.697 845.118 635.992 844.411 635.501 843.56C634.762 842.274 634.56 840.748 634.94 839.315C635.319 837.881 636.249 836.655 637.527 835.903L1096.2 571.296C1097.5 570.549 1099.04 570.349 1100.49 570.74C1101.93 571.13 1103.17 572.08 1103.91 573.379C1104.66 574.678 1104.86 576.22 1104.47 577.667C1104.08 579.113 1103.13 580.345 1101.83 581.092L643.157 845.699C642.294 846.166 641.324 846.399 640.342 846.375Z" fill="white"/>
<path d="M640.343 899.69C639.096 899.699 637.882 899.294 636.89 898.538C635.899 897.782 635.186 896.719 634.864 895.515C634.542 894.311 634.629 893.033 635.111 891.884C635.593 890.734 636.443 889.777 637.528 889.162L1096.2 624.555C1097.49 623.882 1098.98 623.732 1100.38 624.137C1101.77 624.541 1102.96 625.469 1103.68 626.726C1104.41 627.983 1104.62 629.473 1104.28 630.883C1103.93 632.293 1103.05 633.516 1101.83 634.295L643.158 898.902C642.305 899.408 641.334 899.68 640.343 899.69Z" fill="white"/>
<path d="M640.343 953.006C639.096 953.014 637.882 952.609 636.89 951.853C635.899 951.098 635.186 950.034 634.864 948.83C634.542 947.626 634.629 946.349 635.111 945.199C635.593 944.049 636.443 943.092 637.528 942.478L1096.2 677.87C1097.49 677.132 1099.01 676.93 1100.44 677.31C1101.88 677.689 1103.1 678.619 1103.86 679.897C1104.23 680.536 1104.48 681.243 1104.58 681.977C1104.68 682.711 1104.63 683.458 1104.44 684.174C1104.26 684.891 1103.93 685.563 1103.48 686.153C1103.03 686.742 1102.47 687.238 1101.83 687.61L643.158 952.218C642.305 952.724 641.334 952.995 640.343 953.006Z" fill="white"/>
<path d="M640.343 1006.27C639.096 1006.27 637.882 1005.87 636.89 1005.11C635.899 1004.36 635.186 1003.29 634.864 1002.09C634.542 1000.89 634.629 999.608 635.111 998.459C635.593 997.309 636.443 996.352 637.528 995.737L1096.2 731.13C1097.49 730.396 1099.02 730.203 1100.46 730.593C1101.89 730.983 1103.11 731.925 1103.86 733.213C1104.59 734.499 1104.8 736.024 1104.42 737.458C1104.04 738.891 1103.11 740.117 1101.83 740.869L643.158 1005.48C642.305 1005.98 641.334 1006.25 640.343 1006.27Z" fill="white"/>
<path d="M640.343 1059.58C639.096 1059.59 637.882 1059.18 636.89 1058.43C635.899 1057.67 635.186 1056.61 634.864 1055.41C634.542 1054.2 634.629 1052.92 635.111 1051.77C635.593 1050.62 636.443 1049.67 637.528 1049.05L1096.2 784.445C1097.49 783.707 1099.01 783.505 1100.44 783.885C1101.88 784.264 1103.1 785.194 1103.86 786.472C1104.23 787.111 1104.48 787.818 1104.58 788.552C1104.68 789.286 1104.63 790.033 1104.44 790.749C1104.26 791.466 1103.93 792.138 1103.48 792.728C1103.03 793.317 1102.47 793.813 1101.83 794.185L643.158 1058.79C642.305 1059.3 641.334 1059.57 640.343 1059.58Z" fill="white"/>
<path d="M640.342 1112.84C639.114 1112.83 637.923 1112.41 636.952 1111.66C635.98 1110.91 635.282 1109.86 634.963 1108.67C634.644 1107.49 634.722 1106.23 635.185 1105.09C635.648 1103.95 636.471 1103 637.528 1102.37L1096.2 837.761C1097.49 837.027 1099.02 836.834 1100.46 837.224C1101.89 837.615 1103.11 838.556 1103.86 839.844C1104.59 841.13 1104.8 842.655 1104.42 844.089C1104.04 845.523 1103.11 846.749 1101.83 847.501L643.157 1112.11C642.299 1112.59 641.329 1112.85 640.342 1112.84Z" fill="white"/>
<path d="M640.343 1166.16C639.096 1166.16 637.882 1165.76 636.89 1165C635.899 1164.25 635.186 1163.18 634.864 1161.98C634.542 1160.78 634.629 1159.5 635.111 1158.35C635.593 1157.2 636.443 1156.24 637.528 1155.63L1096.2 891.02C1097.49 890.281 1099.01 890.08 1100.44 890.459C1101.88 890.839 1103.1 891.769 1103.86 893.047C1104.23 893.686 1104.48 894.393 1104.58 895.127C1104.68 895.861 1104.63 896.608 1104.44 897.324C1104.26 898.041 1103.93 898.713 1103.48 899.303C1103.03 899.892 1102.47 900.387 1101.83 900.76L643.158 1165.37C642.305 1165.87 641.334 1166.15 640.343 1166.16Z" fill="white"/>
<path d="M664.664 1316.31C663.924 1330 659.971 1343.33 653.125 1355.21C646.278 1367.1 636.731 1377.2 625.254 1384.71C603.41 1397.26 585.845 1387.07 585.845 1361.91C586.567 1348.21 590.512 1334.88 597.36 1322.99C604.208 1311.1 613.765 1301 625.254 1293.51C646.986 1280.73 664.664 1290.92 664.664 1316.31Z" fill="#D4F600"/>
<path opacity="0.6" d="M656.658 706.768C672.08 679.933 672.017 650.958 656.516 642.049C641.016 633.141 615.948 647.673 600.526 674.508C585.104 701.343 585.167 730.318 600.667 739.227C616.168 748.135 641.235 733.603 656.658 706.768Z" fill="white"/>
<path opacity="0.6" d="M664.664 1316.31C663.924 1330 659.971 1343.33 653.125 1355.21C646.278 1367.1 636.731 1377.2 625.254 1384.71C603.41 1397.26 585.845 1387.07 585.845 1361.91C586.567 1348.21 590.512 1334.88 597.36 1322.99C604.208 1311.1 613.765 1301 625.254 1293.51C646.986 1280.73 664.664 1290.92 664.664 1316.31Z" fill="white"/>
<path d="M702.328 1283.26C701.082 1283.27 699.868 1282.86 698.876 1282.11C697.885 1281.35 697.172 1280.29 696.85 1279.08C696.528 1277.88 696.615 1276.6 697.097 1275.45C697.579 1274.3 698.429 1273.35 699.513 1272.73L881.304 1167.79C882.591 1167.12 884.088 1166.97 885.483 1167.37C886.877 1167.77 888.062 1168.7 888.788 1169.96C889.515 1171.22 889.728 1172.71 889.382 1174.12C889.037 1175.53 888.16 1176.75 886.934 1177.53L705.143 1282.53C704.285 1283.01 703.315 1283.27 702.328 1283.26Z" fill="#D4F600"/>
<path d="M702.328 1317.66C701.082 1317.67 699.868 1317.26 698.876 1316.51C697.885 1315.75 697.172 1314.69 696.85 1313.48C696.528 1312.28 696.615 1311 697.097 1309.85C697.579 1308.7 698.429 1307.74 699.514 1307.13L810.986 1242.78C811.629 1242.41 812.339 1242.17 813.075 1242.07C813.811 1241.97 814.56 1242.02 815.277 1242.22C815.993 1242.41 816.665 1242.74 817.252 1243.2C817.84 1243.65 818.332 1244.22 818.699 1244.86C819.433 1246.15 819.626 1247.69 819.236 1249.12C818.846 1250.55 817.904 1251.78 816.616 1252.52L705.143 1316.93C704.285 1317.41 703.315 1317.66 702.328 1317.66Z" fill="#D4F600"/>
<path d="M1134.99 1580.52L604.367 1886.9C594.064 1892.53 585.732 1886.51 585.732 1872.77V1481.66C585.838 1474.67 587.579 1467.81 590.816 1461.63C594.052 1455.44 598.693 1450.09 604.367 1446.02L1134.99 1139.64C1145.29 1133.73 1153.68 1140.03 1153.68 1153.77V1544.88C1153.57 1551.87 1151.82 1558.73 1148.57 1564.92C1145.33 1571.11 1140.67 1576.45 1134.99 1580.52Z" fill="#E0E0E0"/>
<path d="M640.342 1491.4C639.36 1491.39 638.396 1491.13 637.547 1490.63C636.697 1490.14 635.992 1489.43 635.501 1488.58C634.762 1487.3 634.56 1485.77 634.94 1484.34C635.319 1482.9 636.249 1481.68 637.527 1480.93L1096.2 1216.32C1097.5 1215.57 1099.04 1215.37 1100.49 1215.76C1101.93 1216.15 1103.17 1217.1 1103.91 1218.4C1104.66 1219.7 1104.86 1221.24 1104.47 1222.69C1104.08 1224.14 1103.13 1225.37 1101.83 1226.11L643.157 1490.72C642.294 1491.19 641.324 1491.42 640.342 1491.4Z" fill="white"/>
<path d="M640.343 1544.71C639.096 1544.72 637.882 1544.32 636.89 1543.56C635.899 1542.81 635.186 1541.74 634.864 1540.54C634.542 1539.33 634.629 1538.06 635.111 1536.91C635.593 1535.76 636.443 1534.8 637.528 1534.19L1096.2 1269.58C1097.49 1268.9 1098.98 1268.75 1100.38 1269.16C1101.77 1269.56 1102.96 1270.49 1103.68 1271.75C1104.41 1273.01 1104.62 1274.5 1104.28 1275.91C1103.93 1277.32 1103.05 1278.54 1101.83 1279.32L643.158 1543.93C642.305 1544.43 641.334 1544.7 640.343 1544.71Z" fill="white"/>
<path d="M640.343 1597.8C639.096 1597.81 637.882 1597.41 636.89 1596.65C635.899 1595.9 635.186 1594.83 634.864 1593.63C634.542 1592.42 634.629 1591.15 635.111 1590C635.593 1588.85 636.443 1587.89 637.528 1587.28L1096.2 1322.67C1097.49 1321.93 1099.01 1321.73 1100.44 1322.11C1101.88 1322.49 1103.1 1323.42 1103.86 1324.69C1104.23 1325.33 1104.48 1326.04 1104.58 1326.77C1104.68 1327.51 1104.63 1328.26 1104.44 1328.97C1104.26 1329.69 1103.93 1330.36 1103.48 1330.95C1103.03 1331.54 1102.47 1332.04 1101.83 1332.41L643.158 1597.02C642.305 1597.52 641.334 1597.79 640.343 1597.8Z" fill="white"/>
<path d="M640.343 1651.29C639.096 1651.3 637.882 1650.89 636.89 1650.14C635.899 1649.38 635.186 1648.32 634.864 1647.11C634.542 1645.91 634.629 1644.63 635.111 1643.48C635.593 1642.33 636.443 1641.37 637.528 1640.76L1096.2 1376.15C1097.49 1375.42 1099.02 1375.23 1100.46 1375.62C1101.89 1376.01 1103.11 1376.95 1103.86 1378.24C1104.59 1379.52 1104.8 1381.05 1104.42 1382.48C1104.04 1383.91 1103.11 1385.14 1101.83 1385.89L643.158 1650.5C642.305 1651.01 641.334 1651.28 640.343 1651.29Z" fill="white"/>
<path d="M640.343 1704.77C639.096 1704.78 637.882 1704.38 636.89 1703.62C635.899 1702.86 635.186 1701.8 634.864 1700.6C634.542 1699.39 634.629 1698.12 635.111 1696.97C635.593 1695.82 636.443 1694.86 637.528 1694.24L1096.2 1429.64C1097.49 1428.9 1099.01 1428.7 1100.44 1429.08C1101.88 1429.46 1103.1 1430.39 1103.86 1431.66C1104.23 1432.3 1104.48 1433.01 1104.58 1433.74C1104.68 1434.48 1104.63 1435.22 1104.44 1435.94C1104.26 1436.66 1103.93 1437.33 1103.48 1437.92C1103.03 1438.51 1102.47 1439 1101.83 1439.38L643.158 1703.98C642.305 1704.49 641.334 1704.76 640.343 1704.77Z" fill="white"/>
<path d="M640.342 1757.86C639.114 1757.85 637.923 1757.44 636.952 1756.68C635.98 1755.93 635.282 1754.88 634.963 1753.7C634.644 1752.51 634.722 1751.25 635.185 1750.11C635.648 1748.97 636.471 1748.02 637.528 1747.39L1096.2 1482.78C1097.49 1482.05 1099.02 1481.86 1100.46 1482.25C1101.89 1482.64 1103.11 1483.58 1103.86 1484.87C1104.59 1486.15 1104.8 1487.68 1104.42 1489.11C1104.04 1490.55 1103.11 1491.77 1101.83 1492.52L643.157 1757.13C642.299 1757.62 641.329 1757.87 640.342 1757.86Z" fill="white"/>
<path d="M640.343 1811.18C639.096 1811.19 637.882 1810.78 636.89 1810.03C635.899 1809.27 635.186 1808.21 634.864 1807C634.542 1805.8 634.629 1804.52 635.111 1803.37C635.593 1802.22 636.443 1801.27 637.528 1800.65L1096.2 1536.04C1097.49 1535.3 1099.01 1535.1 1100.44 1535.48C1101.88 1535.86 1103.1 1536.79 1103.86 1538.07C1104.23 1538.71 1104.48 1539.42 1104.58 1540.15C1104.68 1540.88 1104.63 1541.63 1104.44 1542.35C1104.26 1543.06 1103.93 1543.74 1103.48 1544.33C1103.03 1544.92 1102.47 1545.41 1101.83 1545.78L643.158 1810.39C642.305 1810.9 641.334 1811.17 640.343 1811.18Z" fill="white"/>
<path d="M1428.2 335.626L1400.05 319.524C1398.39 318.338 1396.62 317.319 1394.76 316.484C1390.12 314.325 1385.02 313.33 1379.91 313.585C1374.8 313.84 1369.83 315.337 1365.42 317.948L1146.76 446.142V456.388C1146.76 488.029 1121.08 528.452 1089.44 546.467L1020.48 586.271C996.887 599.896 976.676 597.531 967.893 581.992L990.413 568.875L963.333 553.449L740.274 684.401C726.932 692.209 715.868 703.376 708.183 716.79C700.498 730.204 696.461 745.397 696.473 760.856V2120.15C696.439 2125.71 697.873 2131.19 700.631 2136.02C703.389 2140.86 707.373 2144.88 712.181 2147.68L712.8 2148.02L742.526 2164.91V2148.64C743.248 2148.34 743.945 2147.98 744.609 2147.57C907.54 2049.61 1236.16 1853.4 1362.38 1777.96C1377.98 1768.66 1390.89 1755.47 1399.85 1739.68C1408.81 1723.89 1413.52 1706.04 1413.5 1687.88V350.208L1428.2 335.626Z" fill="#EBEBEB"/>
<path d="M741.4 2167.39L710.942 2150.5V2150.1C705.743 2147.03 701.444 2142.65 698.479 2137.39C695.514 2132.13 693.987 2126.19 694.052 2120.15V760.856C694.075 744.939 698.239 729.302 706.136 715.483C714.033 701.663 725.39 690.137 739.092 682.037L962.094 551.366H964.909L992.045 566.792V571.69L972.172 583.344C975.215 587.504 979.616 590.471 984.614 591.732C994.185 594.322 1006.57 591.732 1019.41 584.188L1088.37 544.441C1119.23 526.594 1144.28 487.184 1144.28 456.501V446.254L1145.69 443.834L1364.07 315.527C1368.9 312.699 1374.36 311.097 1379.95 310.861C1385.54 310.626 1391.11 311.764 1396.16 314.176C1398.15 315.091 1400.03 316.204 1401.79 317.498L1429.66 333.43L1430.28 337.878L1416.49 351.671V1687.88C1416.44 1706.5 1411.59 1724.79 1402.39 1740.97C1393.2 1757.16 1379.98 1770.7 1364.02 1780.27C1319.99 1806.51 928.821 2039.87 746.355 2149.76L745.623 2150.16V2164.68L741.4 2167.39ZM713.645 2145.32L739.936 2160.12V2148.86L741.457 2146.39L742.245 2145.99L743.371 2145.43C925.894 2035.53 1317.06 1802 1361.09 1775.88C1376.28 1766.76 1388.84 1753.86 1397.56 1738.44C1406.27 1723.02 1410.83 1705.6 1410.8 1687.88V350.208L1411.65 348.237L1423.64 336.245L1398.7 321.945C1397.12 320.791 1395.42 319.81 1393.63 319.018C1389.4 317.049 1384.75 316.142 1380.09 316.378C1375.43 316.613 1370.9 317.983 1366.89 320.369L1149.63 447.718V456.388C1149.63 488.873 1123.28 530.478 1090.91 549.17L1021.94 588.974C1007.75 597.193 993.791 600.234 982.869 597.081C979.219 596.127 975.798 594.449 972.81 592.147C969.821 589.846 967.326 586.967 965.472 583.681L966.485 579.853L984.726 569.213L963.276 556.996L741.682 686.822C728.788 694.41 718.096 705.23 710.661 718.214C703.227 731.197 699.307 745.895 699.288 760.856V2120.15C699.257 2125.23 700.568 2130.23 703.089 2134.64C705.61 2139.05 709.252 2142.71 713.645 2145.26V2145.32Z" fill="#EBEBEB"/>
<path d="M1440.7 360.961V1703.53C1440.73 1721.69 1436.04 1739.54 1427.08 1755.33C1418.13 1771.12 1405.23 1784.32 1389.63 1793.61C1263.3 1868.83 934.507 2065.09 771.971 2162.99C767.122 2165.92 761.582 2167.5 755.919 2167.58C750.256 2167.66 744.674 2166.23 739.745 2163.44C734.817 2160.65 730.72 2156.6 727.875 2151.7C725.029 2146.81 723.538 2141.24 723.553 2135.58V776.282C723.552 760.825 727.594 745.637 735.278 732.225C742.961 718.813 754.02 707.644 767.354 699.827L990.357 569.156V577.77C990.357 609.41 1016.03 620.276 1047.67 601.979L1116.64 562.175C1148.28 543.878 1173.89 503.455 1173.89 471.815V461.568L1392.56 333.374C1397.42 330.53 1402.94 329.018 1408.57 328.992C1414.2 328.966 1419.73 330.426 1424.62 333.225C1429.5 336.024 1433.56 340.063 1436.38 344.933C1439.21 349.803 1440.69 355.332 1440.7 360.961Z" fill="#FAFAFA"/>
<path d="M1437.88 360.961V1649.49C1437.88 1672.01 1440.25 1696.61 1436.7 1719.13C1431.58 1752.06 1411.31 1777.29 1383.27 1794.01L1334.23 1823.34L1202.21 1902.16C1100.08 1963.11 997.994 2024.18 895.942 2085.36L828.89 2125.55C809.016 2137.49 789.48 2151.45 768.593 2161.76C764.095 2163.88 759.133 2164.84 754.167 2164.53C749.201 2164.22 744.393 2162.67 740.191 2160C735.988 2157.34 732.528 2153.66 730.131 2149.3C727.734 2144.94 726.478 2140.04 726.481 2135.07C726.481 2132.93 726.481 2130.73 726.481 2128.54V779.378C726.188 763.8 730.024 748.422 737.598 734.806C745.173 721.189 756.216 709.821 769.606 701.854C825.906 668.074 882.656 635.59 939.18 602.485L991.877 571.577L987.654 569.156C987.654 579.797 987.654 590.719 993.284 600.121C996.323 604.698 1000.54 608.366 1005.5 610.735C1010.46 613.104 1015.96 614.086 1021.43 613.576C1039.96 612.507 1057.02 599.727 1072.61 590.719C1088.2 581.711 1102.96 573.491 1117.65 564.652C1145.91 547.822 1166.4 520.536 1174.68 488.704C1175.96 483.163 1176.64 477.501 1176.71 471.814C1176.99 469.402 1176.99 466.964 1176.71 464.552C1176.09 461.624 1177.72 462.412 1175.53 464.214C1177.83 462.621 1180.26 461.209 1182.79 459.992L1222.7 436.571L1340.54 367.492L1386.87 340.355C1389.24 338.948 1391.55 337.428 1393.97 336.133C1398.41 333.641 1403.43 332.345 1408.53 332.37C1413.63 332.394 1418.63 333.74 1423.05 336.274C1427.48 338.809 1431.17 342.447 1433.77 346.832C1436.36 351.218 1437.78 356.202 1437.88 361.299C1437.88 364.902 1443.51 364.902 1443.51 361.299C1443.41 355.217 1441.72 349.266 1438.63 344.029C1435.53 338.793 1431.13 334.45 1425.85 331.425C1420.58 328.4 1414.6 326.798 1408.52 326.774C1402.44 326.751 1396.45 328.307 1391.15 331.291C1383.83 335.288 1376.74 339.736 1369.53 343.958L1258.34 409.153L1204.35 440.793C1194.44 446.423 1183.58 451.772 1174.29 458.415C1171.13 460.667 1171.08 461.906 1171.08 466.184C1171.25 481.58 1167.68 496.787 1160.66 510.492C1148.33 533.769 1129.36 552.855 1106.16 565.328L1048.4 598.601C1036.63 605.357 1021.21 612.282 1007.75 606.145C993.284 599.558 993.171 583.118 993.171 569.494C993.168 569.001 993.036 568.518 992.788 568.092C992.54 567.667 992.184 567.314 991.757 567.069C991.329 566.824 990.845 566.695 990.352 566.696C989.86 566.697 989.376 566.827 988.949 567.073L825.681 662.782C805.807 674.436 785.764 685.865 766.059 697.744C752.07 706.24 740.551 718.252 732.649 732.585C724.747 746.918 720.737 763.07 721.02 779.435C721.02 806.402 721.02 833.426 721.02 860.45V2131.07C721.02 2132.59 721.02 2134.06 721.02 2135.58C721.08 2140.52 722.179 2145.4 724.247 2149.89C726.315 2154.38 729.304 2158.38 733.021 2161.64C736.737 2164.9 741.098 2167.34 745.821 2168.81C750.543 2170.27 755.52 2170.73 760.429 2170.14C771.689 2168.68 781.936 2160.63 791.563 2154.77L821.12 2137.04C843.64 2123.49 866.16 2109.94 888.68 2096.39C939.687 2065.8 990.713 2035.25 1041.76 2004.74C1138.52 1946.82 1235.37 1888.95 1332.32 1831.11C1371.73 1807.52 1419.47 1787.53 1436.87 1741.48C1442.1 1726.15 1444.45 1709.98 1443.79 1693.79V360.961C1443.79 360.177 1443.48 359.425 1442.93 358.871C1442.37 358.316 1441.62 358.005 1440.84 358.005C1440.05 358.005 1439.3 358.316 1438.75 358.871C1438.19 359.425 1437.88 360.177 1437.88 360.961Z" fill="#EBEBEB"/>
<path d="M1029.6 1904.41L825.117 2022.64C810.254 2031.25 798.15 2022.08 798.15 2002.26C798.15 1982.38 810.254 1959.36 825.117 1950.74L1029.6 1832.52C1044.52 1823.9 1056.56 1833.02 1056.56 1852.9C1056.56 1872.71 1044.52 1895.8 1029.6 1904.41Z" fill="#D4F600"/>
<path d="M1339.13 1716.48L1134.65 1834.71C1119.79 1843.33 1107.68 1834.2 1107.68 1814.33C1107.68 1794.51 1119.79 1771.43 1134.65 1762.82L1339.13 1644.59C1354.05 1635.97 1366.1 1645.15 1366.1 1664.97C1366.1 1684.84 1354.05 1707.93 1339.13 1716.48Z" fill="#D4F600"/>
<path opacity="0.6" d="M1029.6 1904.41L825.117 2022.64C810.254 2031.25 798.15 2022.08 798.15 2002.26C798.15 1982.38 810.254 1959.36 825.117 1950.74L1029.6 1832.52C1044.52 1823.9 1056.56 1833.02 1056.56 1852.9C1056.56 1872.71 1044.52 1895.8 1029.6 1904.41Z" fill="white"/>
<path opacity="0.6" d="M1339.13 1716.48L1134.65 1834.71C1119.79 1843.33 1107.68 1834.2 1107.68 1814.33C1107.68 1794.51 1119.79 1771.43 1134.65 1762.82L1339.13 1644.59C1354.05 1635.97 1366.1 1645.15 1366.1 1664.97C1366.1 1684.84 1354.05 1707.93 1339.13 1716.48Z" fill="white"/>
<path d="M1347.46 1001.31L816.785 1307.69C806.482 1313.66 798.15 1307.35 798.15 1293.62V843.729C798.247 836.744 799.985 829.88 803.222 823.69C806.458 817.499 811.104 812.156 816.785 808.091L1347.46 501.709C1357.77 495.742 1366.1 502.047 1366.1 515.784V965.73C1365.99 972.705 1364.25 979.558 1361.01 985.737C1357.78 991.917 1353.14 997.251 1347.46 1001.31Z" fill="#D4F600"/>
<path opacity="0.6" d="M1347.46 1001.31L816.785 1307.69C806.482 1313.66 798.15 1307.35 798.15 1293.62V843.729C798.247 836.744 799.985 829.88 803.222 823.69C806.458 817.499 811.104 812.156 816.785 808.091L1347.46 501.709C1357.77 495.742 1366.1 502.047 1366.1 515.784V965.73C1365.99 972.705 1364.25 979.558 1361.01 985.737C1357.78 991.917 1353.14 997.251 1347.46 1001.31Z" fill="white"/>
<path d="M1347.46 1582.15L816.785 1888.53C806.482 1894.45 798.15 1888.14 798.15 1874.4V1424.51C798.256 1417.53 799.997 1410.67 803.234 1404.48C806.47 1398.29 811.111 1392.95 816.785 1388.88L1347.46 1082.49C1357.77 1076.58 1366.1 1082.89 1366.1 1096.57V1546.51C1365.99 1553.5 1364.25 1560.36 1361.02 1566.55C1357.78 1572.74 1353.14 1578.08 1347.46 1582.15Z" fill="#D4F600"/>
<path opacity="0.6" d="M1347.46 1582.15L816.785 1888.53C806.482 1894.45 798.15 1888.14 798.15 1874.4V1424.51C798.256 1417.53 799.997 1410.67 803.234 1404.48C806.47 1398.29 811.111 1392.95 816.785 1388.88L1347.46 1082.49C1357.77 1076.58 1366.1 1082.89 1366.1 1096.57V1546.51C1365.99 1553.5 1364.25 1560.36 1361.02 1566.55C1357.78 1572.74 1353.14 1578.08 1347.46 1582.15Z" fill="white"/>
<path d="M1653.06 466.184L1622.15 448C1617.22 444.828 1611.51 443.095 1605.65 442.996C1599.79 442.896 1594.02 444.434 1588.99 447.437L1370.32 575.574V585.821C1370.32 617.461 1344.65 657.94 1313.06 676.181L1244.15 716.042C1220.56 729.666 1200.35 727.301 1191.57 711.819L1214.09 698.645L1187.01 683.219L963.783 813.89C950.432 821.703 939.363 832.879 931.677 846.303C923.992 859.728 919.96 874.932 919.982 890.401V2249.7C919.953 2255.26 921.39 2260.73 924.147 2265.56C926.905 2270.4 930.885 2274.42 935.689 2277.23L936.309 2277.56L966.035 2294.45V2278.18L968.118 2277.11C1130.82 2179.1 1459.44 1982.95 1585.78 1907.56C1601.38 1898.27 1614.29 1885.08 1623.26 1869.29C1632.22 1853.49 1636.92 1835.64 1636.9 1817.48V482.174L1653.06 466.184Z" fill="#EBEBEB"/>
<path d="M964.909 2296.87L934.507 2279.98V2279.65C929.312 2276.57 925.016 2272.19 922.051 2266.93C919.087 2261.68 917.558 2255.73 917.617 2249.7V890.401C917.645 874.485 921.812 858.851 929.708 845.032C937.605 831.213 948.959 819.686 962.657 811.582L1185.66 680.911H1188.47L1215.61 696.337V701.178L1195.68 712.832C1198.72 717.01 1203.12 719.997 1208.12 721.277C1217.69 723.867 1230.08 721.277 1242.92 713.733L1311.71 673.817C1342.51 656.026 1367.56 616.56 1367.56 585.877V575.631L1368.97 573.21L1587.58 445.016C1593.07 441.793 1599.35 440.15 1605.72 440.269C1612.09 440.389 1618.3 442.265 1623.67 445.691L1654.46 463.82L1655.03 468.268L1639.94 483.356V1817.37C1639.96 1836.02 1635.14 1854.35 1625.96 1870.58C1616.79 1886.81 1603.56 1900.38 1587.58 1909.98C1515.63 1952.94 1147.54 2172.51 969.92 2279.53L969.188 2279.93V2294.45L964.909 2296.87ZM937.153 2274.8L963.445 2289.61V2278.35L965.022 2275.82L965.753 2275.48L966.936 2274.86C1144.56 2167.89 1512.59 1948.32 1584.6 1905.31C1599.79 1896.21 1612.36 1883.33 1621.07 1867.91C1629.79 1852.49 1634.35 1835.08 1634.31 1817.37V482.173L1635.15 480.203L1648.5 466.86L1620.74 450.477C1616.24 447.551 1611.01 445.948 1605.65 445.848C1600.28 445.749 1595 447.157 1590.4 449.914L1373.14 577.263V585.877C1373.14 618.362 1346.79 659.967 1314.47 678.715L1245.45 718.462C1231.32 726.682 1217.3 729.722 1206.38 726.569C1202.74 725.615 1199.34 723.943 1196.36 721.652C1193.38 719.36 1190.89 716.495 1189.04 713.226L1190.05 709.398L1208.24 698.701L1186.79 686.484L965.19 816.311C952.3 823.917 941.611 834.748 934.178 847.739C926.745 860.731 922.822 875.433 922.797 890.401V2249.7C922.777 2254.77 924.093 2259.76 926.613 2264.17C929.133 2268.58 932.768 2272.25 937.153 2274.8Z" fill="#EBEBEB"/>
<path d="M1664.26 490.45V1833.02C1664.28 1851.18 1659.58 1869.03 1650.62 1884.83C1641.66 1900.62 1628.74 1913.81 1613.14 1923.1C1486.81 1998.37 1158.19 2194.58 995.48 2292.54C990.628 2295.45 985.091 2297.02 979.435 2297.09C973.779 2297.16 968.205 2295.72 963.283 2292.94C958.36 2290.15 954.266 2286.11 951.416 2281.22C948.566 2276.33 947.064 2270.78 947.062 2265.12V905.827C947.051 890.367 951.082 875.173 958.756 861.752C966.429 848.331 977.478 837.149 990.807 829.316L1213.81 698.645V707.259C1213.81 738.899 1239.48 749.765 1271.12 731.468L1340.09 691.664C1371.73 673.423 1397.4 632.944 1397.4 601.303V591.057L1616.07 462.919C1620.92 460.063 1626.45 458.54 1632.08 458.504C1637.71 458.468 1643.25 459.921 1648.14 462.715C1653.04 465.509 1657.1 469.545 1659.93 474.415C1662.76 479.286 1664.26 484.817 1664.26 490.45Z" fill="#FAFAFA"/>
<path d="M1661.45 490.449V1778.98C1661.45 1801.5 1663.75 1826.15 1660.26 1848.67C1655.08 1881.55 1634.82 1906.78 1606.78 1923.5L1557.63 1952.83L1425.61 2031.65C1323.41 2092.68 1221.32 2153.74 1119.34 2214.85L1052.29 2255.1C1032.41 2267.04 1012.88 2281 991.989 2291.24C987.496 2293.37 982.538 2294.32 977.577 2294.02C972.616 2293.72 967.812 2292.16 963.611 2289.51C959.41 2286.85 955.948 2283.18 953.547 2278.82C951.146 2274.47 949.884 2269.58 949.877 2264.61C949.877 2262.42 949.877 2260.22 949.877 2258.08V908.923C949.574 893.336 953.405 877.946 960.98 864.319C968.555 850.692 979.604 839.314 993.002 831.343C1049.3 797.563 1106.05 765.135 1162.58 731.974L1215.33 701.066L1211.05 698.645C1211.05 709.285 1211.05 720.264 1216.68 729.61C1219.72 734.187 1223.94 737.855 1228.9 740.224C1233.85 742.593 1239.36 743.575 1244.83 743.065C1263.35 741.995 1280.41 729.272 1296.06 720.264C1311.71 711.256 1326.35 703.036 1341.1 694.141C1369.38 677.322 1389.89 650.034 1398.19 618.193C1399.46 612.649 1400.16 606.989 1400.27 601.303C1400.5 598.887 1400.5 596.456 1400.27 594.041C1399.6 591.169 1401.23 591.901 1399.03 593.703C1401.35 592.122 1403.78 590.711 1406.3 589.48L1446.21 566.06L1564.05 496.98L1610.38 469.844C1612.75 468.436 1615.11 466.973 1617.53 465.678C1621.97 463.171 1626.99 461.861 1632.09 461.875C1637.19 461.889 1642.2 463.227 1646.62 465.758C1651.05 468.289 1654.74 471.927 1657.34 476.314C1659.94 480.702 1661.35 485.689 1661.45 490.787C1661.45 494.39 1667.08 494.39 1667.08 490.787C1666.95 484.708 1665.25 478.766 1662.15 473.539C1659.04 468.312 1654.63 463.979 1649.35 460.962C1644.07 457.945 1638.1 456.348 1632.02 456.326C1625.94 456.304 1619.96 457.858 1614.66 460.836C1607.34 464.777 1600.25 469.281 1593.04 473.503L1481.85 538.642L1427.86 570.338C1417.95 575.968 1407.09 581.261 1397.8 587.96C1394.64 590.156 1394.64 591.394 1394.64 595.673C1394.8 611.073 1391.2 626.28 1384.17 639.981C1371.84 663.257 1352.87 682.344 1329.67 694.817C1310.42 706.076 1291.16 717.336 1271.91 728.146C1260.14 734.902 1244.72 741.77 1231.26 735.634C1216.79 729.047 1216.68 712.607 1216.68 698.983C1216.68 698.49 1216.55 698.007 1216.3 697.581C1216.05 697.156 1215.69 696.803 1215.27 696.558C1214.84 696.312 1214.35 696.184 1213.86 696.185C1213.37 696.185 1212.88 696.315 1212.46 696.562L1049.19 792.271C1029.32 803.925 1009.27 815.297 989.568 827.233C975.591 835.728 964.081 847.732 956.179 862.053C948.278 876.374 944.262 892.513 944.529 908.867C944.529 935.891 944.529 962.915 944.529 989.882V2260.62C944.529 2262.08 944.529 2263.6 944.529 2265.06C944.589 2270.01 945.688 2274.88 947.756 2279.38C949.823 2283.87 952.813 2287.87 956.529 2291.13C960.246 2294.39 964.607 2296.83 969.329 2298.3C974.051 2299.76 979.029 2300.22 983.938 2299.63C995.198 2298.17 1005.44 2290.12 1015.07 2284.32L1044.63 2266.58L1112.19 2225.88C1163.2 2195.29 1214.22 2164.74 1265.27 2134.22C1362.1 2076.35 1458.96 2018.49 1555.83 1960.65C1595.24 1937.01 1642.98 1917.02 1660.43 1870.97C1665.64 1855.65 1667.99 1839.51 1667.36 1823.34V490.449C1667.36 489.666 1667.05 488.914 1666.49 488.359C1665.94 487.805 1665.19 487.494 1664.4 487.494C1663.62 487.494 1662.87 487.805 1662.31 488.359C1661.76 488.914 1661.45 489.666 1661.45 490.449Z" fill="#EBEBEB"/>
<path d="M1570.97 743.516L1040.29 1049.9C1030.05 1055.86 1021.66 1049.5 1021.66 1035.82V980.48C1021.79 973.502 1023.54 966.651 1026.78 960.466C1030.01 954.281 1034.64 948.933 1040.29 944.843L1570.97 638.461C1581.28 632.831 1589.61 638.855 1589.61 652.592V707.878C1589.5 714.861 1587.76 721.722 1584.52 727.911C1581.29 734.1 1576.65 739.444 1570.97 743.516Z" fill="#D4F600"/>
<path opacity="0.6" d="M1570.97 743.516L1040.29 1049.9C1030.05 1055.86 1021.66 1049.5 1021.66 1035.82V980.48C1021.79 973.502 1023.54 966.651 1026.78 960.466C1030.01 954.281 1034.64 948.933 1040.29 944.843L1570.97 638.461C1581.28 632.831 1589.61 638.855 1589.61 652.592V707.878C1589.5 714.861 1587.76 721.722 1584.52 727.911C1581.29 734.1 1576.65 739.444 1570.97 743.516Z" fill="white"/>
<path d="M1528.35 689.018C1529.55 687.939 1531.07 687.268 1532.67 687.099C1534.28 686.931 1535.89 687.274 1537.29 688.079C1538.69 688.884 1539.8 690.111 1540.46 691.584C1541.12 693.057 1541.3 694.701 1540.97 696.28C1540.83 700.69 1539.57 704.991 1537.31 708.779C1535.16 712.613 1532.08 715.846 1528.35 718.181C1527.07 719.108 1525.57 719.679 1524 719.837C1522.43 719.996 1520.84 719.735 1519.4 719.082C1514.5 716.21 1514.5 706.977 1519.4 698.42C1521.55 694.585 1524.63 691.352 1528.35 689.018ZM1528.35 681.417C1522.66 684.944 1517.99 689.891 1514.79 695.774C1507.24 708.779 1507.24 722.797 1514.79 727.132C1516.96 728.142 1519.37 728.549 1521.75 728.312C1524.14 728.074 1526.42 727.2 1528.35 725.781C1534.05 722.255 1538.72 717.307 1541.92 711.425C1549.47 698.42 1549.47 684.401 1541.92 680.066C1539.75 679.056 1537.34 678.649 1534.95 678.887C1532.57 679.124 1530.29 679.998 1528.35 681.417Z" fill="white"/>
<path d="M1555.72 736.422C1554.84 736.407 1553.99 736.066 1553.35 735.465L1535.05 717.168C1534.53 716.53 1534.27 715.722 1534.31 714.901C1534.36 714.08 1534.7 713.304 1535.28 712.723C1535.86 712.142 1536.64 711.797 1537.46 711.754C1538.28 711.712 1539.09 711.976 1539.73 712.495L1558.02 730.792C1558.64 731.414 1558.98 732.253 1558.98 733.128C1558.98 734.003 1558.64 734.843 1558.02 735.465C1557.4 736.058 1556.58 736.399 1555.72 736.422Z" fill="white"/>
<path d="M1089.09 1143.06C1104.51 1116.35 1104.5 1087.47 1089.07 1078.56C1073.64 1069.65 1048.63 1084.09 1033.21 1110.8C1017.79 1137.51 1017.79 1166.39 1033.22 1175.3C1048.65 1184.2 1073.66 1169.77 1089.09 1143.06Z" fill="#D4F600"/>
<path d="M1138.31 1071.35C1137.32 1071.35 1136.34 1071.09 1135.48 1070.6C1134.62 1070.1 1133.91 1069.39 1133.41 1068.53C1132.68 1067.24 1132.49 1065.71 1132.88 1064.27C1133.27 1062.84 1134.21 1061.62 1135.5 1060.88L1317.34 955.99C1317.98 955.582 1318.7 955.309 1319.45 955.186C1320.2 955.062 1320.97 955.092 1321.7 955.273C1322.44 955.453 1323.13 955.781 1323.74 956.237C1324.35 956.692 1324.86 957.266 1325.24 957.924C1325.62 958.581 1325.86 959.308 1325.95 960.062C1326.04 960.816 1325.98 961.58 1325.77 962.31C1325.56 963.039 1325.2 963.718 1324.72 964.306C1324.24 964.893 1323.65 965.378 1322.97 965.73L1141.13 1070.62C1140.27 1071.1 1139.3 1071.35 1138.31 1071.35Z" fill="#D4F600"/>
<path d="M1138.31 1105.75C1137.32 1105.75 1136.34 1105.49 1135.48 1105C1134.62 1104.5 1133.91 1103.79 1133.41 1102.93C1132.68 1101.64 1132.49 1100.11 1132.88 1098.67C1133.27 1097.24 1134.21 1096.02 1135.5 1095.27L1246.97 1030.87C1247.61 1030.5 1248.32 1030.26 1249.06 1030.16C1249.79 1030.07 1250.54 1030.12 1251.26 1030.31C1251.97 1030.51 1252.64 1030.84 1253.23 1031.29C1253.82 1031.74 1254.31 1032.31 1254.68 1032.95C1255.05 1033.59 1255.29 1034.3 1255.39 1035.04C1255.48 1035.78 1255.43 1036.52 1255.24 1037.24C1255.04 1037.96 1254.71 1038.63 1254.26 1039.21C1253.81 1039.8 1253.24 1040.29 1252.6 1040.66L1141.13 1105.01C1140.27 1105.5 1139.3 1105.75 1138.31 1105.75Z" fill="#D4F600"/>
<path d="M1253.11 1407.29L1048.63 1525.52C1033.76 1534.13 1021.66 1525.01 1021.66 1505.13V1278.47C1021.66 1258.6 1033.76 1235.57 1048.63 1226.96L1253.11 1108.73C1268.03 1100.12 1280.07 1109.24 1280.07 1129.11V1355.72C1280.07 1375.65 1268.03 1398.67 1253.11 1407.29Z" fill="#D4F600"/>
<path opacity="0.3" d="M1253.11 1407.29L1048.63 1525.52C1033.76 1534.13 1021.66 1525.01 1021.66 1505.13V1278.47C1021.66 1258.6 1033.76 1235.57 1048.63 1226.96L1253.11 1108.73C1268.03 1100.12 1280.07 1109.24 1280.07 1129.11V1355.72C1280.07 1375.65 1268.03 1398.67 1253.11 1407.29Z" fill="white"/>
<path d="M1262.73 1339.56L1040.52 1467.86L1106.16 1297.05L1158.13 1344.74L1198.1 1284.83L1262.73 1339.56Z" fill="#D4F600"/>
<path d="M1179.71 1252.9C1187.63 1239.19 1187.62 1224.38 1179.71 1219.8C1171.79 1215.23 1158.96 1222.64 1151.04 1236.35C1143.13 1250.05 1143.13 1264.87 1151.05 1269.44C1158.97 1274.01 1171.8 1266.6 1179.71 1252.9Z" fill="#D4F600"/>
<path d="M1562.7 1229.72L1358.16 1347.95C1343.3 1356.56 1331.19 1347.44 1331.19 1327.57V1100.9C1331.19 1081.09 1343.3 1058 1358.16 1049.39L1562.7 931.161C1577.56 922.604 1589.61 931.725 1589.61 951.542V1178.03C1589.61 1198.08 1577.56 1221.16 1562.7 1229.72Z" fill="#D4F600"/>
<path opacity="0.3" d="M1562.7 1229.72L1358.16 1347.95C1343.3 1356.56 1331.19 1347.44 1331.19 1327.57V1100.9C1331.19 1081.09 1343.3 1058 1358.16 1049.39L1562.7 931.161C1577.56 922.604 1589.61 931.725 1589.61 951.542V1178.03C1589.61 1198.08 1577.56 1221.16 1562.7 1229.72Z" fill="white"/>
<path d="M1571.54 1156.81L1349.32 1285.12L1414.97 1114.3L1466.93 1161.99L1506.9 1102.09L1571.54 1156.81Z" fill="#D4F600"/>
<path d="M1494.46 1050.24C1494.07 1057.27 1492.03 1064.11 1488.51 1070.21C1484.99 1076.31 1480.08 1081.5 1474.19 1085.37C1462.93 1091.78 1453.93 1086.55 1453.93 1073.66C1454.32 1066.62 1456.36 1059.78 1459.88 1053.68C1463.4 1047.58 1468.3 1042.39 1474.19 1038.52C1485.4 1032.05 1494.46 1037.29 1494.46 1050.24Z" fill="#D4F600"/>
<path d="M1253.11 2036.94L1048.63 2155.17C1033.76 2163.78 1021.66 2154.66 1021.66 2134.79C1021.66 2114.91 1033.76 2091.89 1048.63 2083.27L1253.11 1965.04C1268.03 1956.43 1280.07 1965.55 1280.07 1985.43C1280.07 2005.36 1268.03 2028.44 1253.11 2036.94Z" fill="#D4F600"/>
<path d="M1562.7 1855.71L1358.16 1973.94C1343.3 1982.55 1331.19 1973.43 1331.19 1953.56C1331.19 1933.69 1343.3 1910.66 1358.16 1902.05L1562.7 1783.82C1577.56 1775.2 1589.61 1784.32 1589.61 1804.2C1589.61 1824.07 1577.56 1847.1 1562.7 1855.71Z" fill="#D4F600"/>
<path d="M1570.97 1720.65L1040.29 2027.03C1030.05 2032.94 1021.66 2026.64 1021.66 2012.9V1621.79C1021.77 1614.81 1023.51 1607.96 1026.75 1601.78C1029.99 1595.6 1034.62 1590.27 1040.29 1586.21L1570.97 1279.82C1581.28 1273.86 1589.61 1280.16 1589.61 1293.9V1685.01C1589.5 1691.99 1587.76 1698.86 1584.52 1705.04C1581.29 1711.23 1576.65 1716.58 1570.97 1720.65Z" fill="#E0E0E0"/>
<path d="M1076.33 1631.58C1075.08 1631.59 1073.86 1631.19 1072.87 1630.43C1071.88 1629.68 1071.17 1628.61 1070.85 1627.41C1070.53 1626.2 1070.61 1624.93 1071.09 1623.78C1071.58 1622.63 1072.43 1621.67 1073.51 1621.06L1532.18 1356.45C1533.47 1355.71 1534.99 1355.51 1536.43 1355.89C1537.86 1356.27 1539.09 1357.2 1539.84 1358.47C1540.21 1359.11 1540.46 1359.82 1540.56 1360.55C1540.66 1361.29 1540.61 1362.04 1540.43 1362.75C1540.24 1363.47 1539.91 1364.14 1539.46 1364.73C1539.01 1365.32 1538.45 1365.82 1537.81 1366.19L1079.14 1630.8C1078.29 1631.3 1077.32 1631.57 1076.33 1631.58Z" fill="white"/>
<path d="M1076.33 1684.84C1075.1 1684.83 1073.91 1684.42 1072.93 1683.66C1071.96 1682.91 1071.26 1681.86 1070.95 1680.67C1070.63 1679.49 1070.7 1678.23 1071.17 1677.09C1071.63 1675.95 1072.45 1675 1073.51 1674.37L1532.18 1409.76C1533.47 1409.09 1534.97 1408.94 1536.36 1409.35C1537.76 1409.75 1538.94 1410.68 1539.67 1411.93C1540.39 1413.19 1540.61 1414.68 1540.26 1416.09C1539.91 1417.5 1539.04 1418.72 1537.81 1419.5L1079.14 1684.11C1078.28 1684.6 1077.31 1684.85 1076.33 1684.84Z" fill="white"/>
<path d="M1076.33 1738.16C1075.08 1738.17 1073.86 1737.76 1072.87 1737.01C1071.88 1736.25 1071.17 1735.19 1070.85 1733.98C1070.53 1732.78 1070.61 1731.5 1071.09 1730.35C1071.58 1729.2 1072.43 1728.24 1073.51 1727.63L1532.18 1463.02C1533.47 1462.28 1534.99 1462.08 1536.43 1462.46C1537.86 1462.84 1539.09 1463.77 1539.84 1465.05C1540.21 1465.69 1540.46 1466.4 1540.56 1467.13C1540.66 1467.86 1540.61 1468.61 1540.43 1469.33C1540.24 1470.04 1539.91 1470.72 1539.46 1471.31C1539.01 1471.89 1538.45 1472.39 1537.81 1472.76L1079.14 1737.37C1078.29 1737.88 1077.32 1738.15 1076.33 1738.16Z" fill="white"/>
<path d="M1076.33 1791.42C1075.1 1791.4 1073.91 1790.99 1072.93 1790.24C1071.96 1789.49 1071.26 1788.44 1070.95 1787.25C1070.63 1786.06 1070.7 1784.8 1071.17 1783.67C1071.63 1782.53 1072.45 1781.57 1073.51 1780.95L1532.18 1516.34C1532.83 1515.97 1533.54 1515.73 1534.27 1515.63C1535.01 1515.54 1535.75 1515.59 1536.47 1515.78C1537.19 1515.98 1537.86 1516.31 1538.45 1516.76C1539.03 1517.21 1539.53 1517.78 1539.9 1518.42C1540.26 1519.06 1540.5 1519.77 1540.6 1520.51C1540.69 1521.25 1540.64 1521.99 1540.45 1522.71C1540.26 1523.43 1539.92 1524.1 1539.47 1524.68C1539.02 1525.27 1538.46 1525.76 1537.81 1526.13L1079.14 1790.74C1078.28 1791.21 1077.31 1791.44 1076.33 1791.42Z" fill="white"/>
<path d="M1076.33 1844.73C1075.08 1844.74 1073.86 1844.34 1072.87 1843.58C1071.88 1842.82 1071.17 1841.76 1070.85 1840.56C1070.53 1839.35 1070.61 1838.08 1071.09 1836.93C1071.58 1835.78 1072.43 1834.82 1073.51 1834.2L1532.18 1569.6C1533.47 1568.92 1534.97 1568.77 1536.36 1569.18C1537.76 1569.58 1538.94 1570.51 1539.67 1571.77C1540.39 1573.03 1540.61 1574.52 1540.26 1575.93C1539.91 1577.34 1539.04 1578.56 1537.81 1579.34L1079.14 1843.94C1078.3 1844.47 1077.32 1844.74 1076.33 1844.73Z" fill="white"/>
<path d="M1076.33 1897.99C1075.34 1897.99 1074.38 1897.72 1073.53 1897.23C1072.68 1896.74 1071.98 1896.03 1071.48 1895.18C1070.75 1893.89 1070.54 1892.37 1070.92 1890.93C1071.3 1889.5 1072.23 1888.27 1073.51 1887.52L1532.18 1622.91C1532.83 1622.54 1533.54 1622.3 1534.27 1622.21C1535.01 1622.11 1535.75 1622.16 1536.47 1622.36C1537.19 1622.55 1537.86 1622.88 1538.45 1623.34C1539.03 1623.79 1539.53 1624.35 1539.9 1625C1540.27 1625.64 1540.5 1626.35 1540.6 1627.08C1540.7 1627.82 1540.64 1628.57 1540.45 1629.28C1540.26 1630 1539.93 1630.67 1539.47 1631.26C1539.02 1631.85 1538.46 1632.34 1537.81 1632.71L1079.14 1897.32C1078.28 1897.78 1077.31 1898.02 1076.33 1897.99Z" fill="white"/>
<path d="M1076.33 1951.31C1075.08 1951.32 1073.86 1950.91 1072.87 1950.16C1071.88 1949.4 1071.17 1948.34 1070.85 1947.13C1070.53 1945.93 1070.61 1944.65 1071.09 1943.5C1071.58 1942.35 1072.43 1941.39 1073.51 1940.78L1532.18 1676.17C1533.47 1675.5 1534.97 1675.35 1536.36 1675.75C1537.76 1676.16 1538.94 1677.09 1539.67 1678.34C1540.39 1679.6 1540.61 1681.09 1540.26 1682.5C1539.91 1683.91 1539.04 1685.13 1537.81 1685.91L1079.14 1950.52C1078.29 1951.03 1077.32 1951.3 1076.33 1951.31Z" fill="white"/>
<path d="M1841.77 1228.37L1811.54 1264.51L1882.36 1378.69L1856.97 1408.3L1757.32 1290.63C1751.58 1283.86 1748.26 1275.37 1747.89 1266.49C1747.52 1257.62 1750.13 1248.88 1755.3 1241.65L1794.37 1186.99L1841.77 1228.37Z" fill="#945959"/>
<path d="M1927.4 1096.74L1899.59 1094.2C1888.84 1093.21 1878.02 1094.95 1868.12 1099.25C1858.22 1103.55 1849.57 1110.28 1842.96 1118.81L1781.76 1197.63C1781.76 1197.63 1789.81 1227.58 1839.97 1243.74L1912.32 1141.78L1927.4 1096.74Z" fill="#D4F600"/>
<path opacity="0.3" d="M1927.4 1096.74L1899.59 1094.2C1888.84 1093.21 1878.02 1094.95 1868.12 1099.25C1858.22 1103.55 1849.57 1110.28 1842.96 1118.81L1781.76 1197.63C1781.76 1197.63 1789.81 1227.58 1839.97 1243.74L1912.32 1141.78L1927.4 1096.74Z" fill="black"/>
<path d="M1911.36 1963.13C1916.01 1975.71 1917.78 1989.18 1916.54 2002.54C1916.09 2008.56 1896.21 2013.8 1890.58 2015.04C1879.29 2019.92 1868.57 2026.01 1858.61 2033.22C1842.15 2045.94 1821.98 2052.92 1801.18 2053.1C1771.34 2053.1 1757.55 2042.68 1757.55 2032.32C1757.55 2021.96 1776.97 2010.31 1791.67 2008.17C1801.12 2006.76 1848.7 1978.78 1857.31 1957.16L1911.36 1963.13Z" fill="#263238"/>
<path d="M1911.36 1955.76C1916.02 1968.34 1917.79 1981.81 1916.54 1995.17C1916.09 2001.25 1896.21 2006.43 1890.58 2007.72C1879.3 2012.6 1868.58 2018.67 1858.61 2025.85C1842.16 2038.58 1821.98 2045.57 1801.18 2045.72C1771.34 2045.72 1757.55 2035.36 1757.55 2025C1757.55 2014.64 1776.97 2002.99 1791.67 2000.8C1801.12 1999.39 1848.7 1971.41 1857.31 1949.84L1911.36 1955.76Z" fill="#455A64"/>
<path d="M1825.33 2027.48C1825.78 2033.11 1825.33 2041.67 1825.33 2042.29C1817.45 2044.49 1809.31 2045.61 1801.12 2045.61C1771.29 2045.61 1757.49 2035.25 1757.49 2024.89C1757.49 2014.53 1776.92 2002.88 1791.61 2000.68C1791.67 2000.68 1823.14 1998.94 1825.33 2027.48Z" fill="#FAFAFA"/>
<path d="M1841.32 2000.74C1841.86 2000.75 1842.38 2000.61 1842.84 2000.34C1843.2 2000.15 1843.51 1999.89 1843.76 1999.57C1844.01 1999.26 1844.2 1998.9 1844.31 1998.51C1844.42 1998.12 1844.45 1997.72 1844.4 1997.32C1844.35 1996.92 1844.22 1996.53 1844.02 1996.18C1837.27 1984.07 1821.51 1982.61 1820.89 1982.55C1820.08 1982.51 1819.28 1982.77 1818.66 1983.3C1818.04 1983.82 1817.65 1984.56 1817.56 1985.37C1817.5 1986.18 1817.76 1986.99 1818.29 1987.61C1818.82 1988.23 1819.57 1988.62 1820.38 1988.69C1824 1989.03 1827.51 1990.14 1830.66 1991.94C1833.82 1993.75 1836.55 1996.21 1838.68 1999.16C1838.93 1999.64 1839.31 2000.04 1839.78 2000.32C1840.25 2000.6 1840.78 2000.74 1841.32 2000.74Z" fill="#FAFAFA"/>
<path d="M1855.57 1990.83C1856.09 1990.81 1856.61 1990.67 1857.09 1990.44C1857.79 1990.02 1858.31 1989.35 1858.53 1988.56C1858.75 1987.78 1858.66 1986.93 1858.27 1986.21C1855.65 1982.38 1852.22 1979.18 1848.22 1976.84C1844.22 1974.49 1839.75 1973.06 1835.13 1972.65C1834.73 1972.61 1834.33 1972.66 1833.95 1972.78C1833.57 1972.9 1833.21 1973.1 1832.91 1973.36C1832.6 1973.62 1832.35 1973.93 1832.16 1974.29C1831.98 1974.64 1831.87 1975.03 1831.84 1975.43C1831.8 1975.83 1831.85 1976.23 1831.97 1976.61C1832.09 1977 1832.29 1977.35 1832.55 1977.66C1832.81 1977.96 1833.12 1978.21 1833.48 1978.4C1833.84 1978.58 1834.22 1978.69 1834.62 1978.73C1834.62 1978.73 1847.74 1980.02 1852.86 1989.25C1853.13 1989.73 1853.53 1990.13 1854 1990.41C1854.48 1990.69 1855.02 1990.83 1855.57 1990.83Z" fill="#FAFAFA"/>
<path d="M1868.52 1978.78C1869.04 1978.76 1869.56 1978.62 1870.04 1978.39C1870.39 1978.19 1870.7 1977.92 1870.95 1977.6C1871.21 1977.28 1871.39 1976.91 1871.5 1976.52C1871.61 1976.13 1871.64 1975.72 1871.59 1975.32C1871.55 1974.91 1871.42 1974.52 1871.22 1974.17C1864.46 1962.12 1848.7 1960.65 1848.08 1960.6C1847.68 1960.56 1847.28 1960.6 1846.89 1960.72C1846.51 1960.84 1846.15 1961.03 1845.84 1961.28C1845.53 1961.54 1845.28 1961.86 1845.09 1962.21C1844.91 1962.57 1844.79 1962.96 1844.76 1963.36C1844.69 1964.17 1844.95 1964.97 1845.48 1965.6C1846.01 1966.22 1846.76 1966.61 1847.57 1966.68C1851.19 1967.03 1854.7 1968.15 1857.86 1969.97C1861.01 1971.78 1863.74 1974.25 1865.87 1977.21C1866.12 1977.68 1866.51 1978.08 1866.97 1978.36C1867.44 1978.64 1867.97 1978.78 1868.52 1978.78Z" fill="#FAFAFA"/>
<path d="M1962.54 1379.25L1935.74 1682.25C1935.74 1682.25 1939.4 1718.57 1931.91 1803.24C1924.42 1887.91 1915.81 1960.48 1915.81 1960.48C1915.81 1960.48 1874.88 1976.08 1850.72 1953.62C1850.72 1953.62 1843.86 1746.88 1843.8 1677.75C1843.8 1603.77 1850.72 1382.01 1850.72 1382.01L1962.54 1379.25Z" fill="#37474F"/>
<path d="M1943.73 1592.17L1930.44 1488.47C1930.44 1488.47 1885.86 1482.39 1878.09 1460.32C1868.4 1433.07 1873.75 1398.11 1873.75 1398.11L1961.18 1394.84L1943.73 1592.17Z" fill="#263238"/>
<path d="M2062.69 2000.68C2062.69 2000.68 2071.98 2053.32 2071.98 2071.45C2071.98 2089.58 2060.72 2113 2030.43 2113C2000.14 2113 2001.21 2077.64 2003.01 2063.06C2004.82 2048.48 2012.3 2000.68 2012.3 2000.68H2062.69Z" fill="#263238"/>
<path d="M2062.13 1995.05C2062.13 1995.05 2071.19 2046.51 2071.19 2064.19C2071.19 2081.87 2060.38 2104.84 2030.6 2104.84C2000.82 2104.84 2002.06 2070.27 2003.8 2055.97C2005.55 2041.67 2012.87 1995.05 2012.87 1995.05H2062.13Z" fill="#455A64"/>
<path d="M2034.15 2058.16H2038.37C2044.06 2058.15 2049.65 2059.57 2054.64 2062.3C2059.63 2065.03 2063.85 2068.97 2066.91 2073.76L2069.22 2077.36C2066.91 2085.68 2061.82 2092.95 2054.78 2097.95C2047.75 2102.95 2039.21 2105.38 2030.6 2104.84C2011.8 2104.84 2005.38 2091.04 2003.63 2077.31C2006.4 2071.56 2010.73 2066.72 2016.13 2063.33C2021.53 2059.94 2027.77 2058.15 2034.15 2058.16Z" fill="#FAFAFA"/>
<path d="M2051.77 1374.07L2065.56 1672.46C2076.9 1731.66 2080.87 1792.04 2077.39 1852.22C2070.46 1943.26 2069.34 2005.47 2069.34 2005.47C2069.34 2005.47 2029.59 2026.19 2009.38 2001.98L1968.5 1663.84L1940.35 1478.96C1940.35 1478.96 1885.63 1476.03 1874.65 1447.26C1867.66 1427.18 1863.4 1406.26 1861.98 1385.05L2051.77 1374.07Z" fill="#37474F"/>
<path d="M2049.24 2043.36C2049.89 2043.33 2050.51 2043.1 2051.02 2042.69C2051.53 2042.28 2051.89 2041.72 2052.05 2041.08C2052.22 2040.45 2052.18 2039.79 2051.93 2039.18C2051.69 2038.58 2051.26 2038.07 2050.7 2037.73C2050.02 2037.33 2034.09 2028.89 2020.19 2037.73C2019.52 2038.18 2019.05 2038.87 2018.88 2039.66C2018.71 2040.44 2018.86 2041.27 2019.29 2041.95C2019.5 2042.29 2019.78 2042.58 2020.11 2042.81C2020.44 2043.04 2020.82 2043.2 2021.21 2043.28C2021.6 2043.36 2022.01 2043.37 2022.4 2043.3C2022.8 2043.22 2023.17 2043.07 2023.51 2042.85C2034.37 2035.87 2047.6 2042.85 2047.77 2042.85C2048.21 2043.13 2048.71 2043.31 2049.24 2043.36Z" fill="#FAFAFA"/>
<path d="M2049.24 2030.07C2049.89 2030.04 2050.51 2029.81 2051.02 2029.4C2051.53 2028.99 2051.89 2028.43 2052.05 2027.8C2052.22 2027.17 2052.18 2026.5 2051.93 2025.9C2051.69 2025.29 2051.26 2024.78 2050.7 2024.44C2050.02 2024.05 2034.09 2015.6 2020.19 2024.44C2019.52 2024.89 2019.05 2025.58 2018.88 2026.37C2018.71 2027.16 2018.86 2027.98 2019.29 2028.66C2019.5 2029 2019.78 2029.29 2020.11 2029.52C2020.44 2029.75 2020.82 2029.91 2021.21 2029.99C2021.6 2030.08 2022.01 2030.08 2022.4 2030.01C2022.8 2029.93 2023.17 2029.78 2023.51 2029.56C2034.37 2022.58 2047.6 2029.56 2047.77 2029.56C2048.2 2029.87 2048.71 2030.05 2049.24 2030.07Z" fill="#FAFAFA"/>
<path d="M2049.24 2016.78C2049.89 2016.76 2050.51 2016.52 2051.02 2016.11C2051.53 2015.7 2051.89 2015.14 2052.05 2014.51C2052.22 2013.88 2052.18 2013.21 2051.93 2012.61C2051.69 2012 2051.26 2011.49 2050.7 2011.15C2050.02 2010.76 2034.09 2002.32 2020.19 2011.15C2019.52 2011.6 2019.05 2012.29 2018.88 2013.08C2018.71 2013.87 2018.86 2014.69 2019.29 2015.38C2019.5 2015.71 2019.78 2016.01 2020.11 2016.23C2020.44 2016.46 2020.82 2016.62 2021.21 2016.71C2021.6 2016.79 2022.01 2016.8 2022.4 2016.72C2022.8 2016.65 2023.17 2016.5 2023.51 2016.28C2034.37 2009.3 2047.6 2016.28 2047.77 2016.28C2048.2 2016.59 2048.71 2016.76 2049.24 2016.78Z" fill="#FAFAFA"/>
<path d="M1854.1 1160.53L1846.11 1401.77C1846.11 1401.77 1927.69 1461 2057.68 1416.07V1145.27C2057.73 1135.47 2054.13 1126.01 2047.59 1118.72C2041.04 1111.44 2032.01 1106.85 2022.27 1105.86L1927.4 1096.74C1918.34 1095.82 1909.19 1096.76 1900.51 1099.52C1891.83 1102.27 1883.81 1106.78 1876.94 1112.76C1870.07 1118.73 1864.5 1126.06 1860.57 1134.27C1856.64 1142.49 1854.44 1151.43 1854.1 1160.53Z" fill="#D4F600"/>
<path opacity="0.1" d="M1854.1 1160.53L1846.11 1401.77C1846.11 1401.77 1927.69 1461 2057.68 1416.07V1145.27C2057.73 1135.47 2054.13 1126.01 2047.59 1118.72C2041.04 1111.44 2032.01 1106.85 2022.27 1105.86L1927.4 1096.74C1918.34 1095.82 1909.19 1096.76 1900.51 1099.52C1891.83 1102.27 1883.81 1106.78 1876.94 1112.76C1870.07 1118.73 1864.5 1126.06 1860.57 1134.27C1856.64 1142.49 1854.44 1151.43 1854.1 1160.53Z" fill="black"/>
<path d="M2121.75 1218.29L2145.96 1285.85L2305.46 1318.67V1361.85L2122.43 1350.87C2115.7 1350.5 2109.22 1348.27 2103.67 1344.45C2098.13 1340.63 2093.75 1335.35 2091.01 1329.2L2057.91 1255.45L2121.75 1218.29Z" fill="#945959"/>
<path d="M2022.49 1106.08V1137.84C2022.49 1163.37 2027.44 1188.67 2037.08 1212.32L2064.66 1279.88C2064.66 1279.88 2126.2 1266.71 2137.06 1236.76L2097.65 1144.65C2092.99 1133.77 2085.33 1124.43 2075.58 1117.71C2065.82 1111 2054.37 1107.18 2042.54 1106.7L2022.49 1106.08Z" fill="#D4F600"/>
<path opacity="0.3" d="M2022.49 1106.08V1137.84C2022.49 1163.37 2027.44 1188.67 2037.08 1212.32L2064.66 1279.88C2064.66 1279.88 2126.2 1266.71 2137.06 1236.76L2097.65 1144.65C2092.99 1133.77 2085.33 1124.43 2075.58 1117.71C2065.82 1111 2054.37 1107.18 2042.54 1106.7L2022.49 1106.08Z" fill="black"/>
<path d="M1873.58 920.69C1873.58 920.69 1838.45 951.486 1868.97 1020.23L1904.72 927.333L1873.58 920.69Z" fill="#263238"/>
<path d="M1989.45 1102.76L1930.16 1147.07V1006.1H1989.45V1102.76Z" fill="#945959"/>
<path d="M1930.16 1086.94C1952.01 1078.5 1979.76 1064.42 1979.76 1051.14L1986.97 1006.1H1930.16V1086.94Z" fill="#703838"/>
<path d="M1942.27 901.661C1920.7 901.661 1874.71 913.653 1869.58 970.065C1864.46 1026.48 1872.57 1074.39 1898.52 1074.39C1949.47 1074.39 1998.4 1067.91 1998.79 984.308C1999.36 910.95 1963.44 901.661 1942.27 901.661Z" fill="#945959"/>
<path d="M1989.45 1033.91L1981.11 1008.4C1980.49 1008.93 1979.73 1009.27 1978.92 1009.37C1978.12 1009.48 1977.29 1009.36 1976.55 1009.02C1975.82 1008.67 1975.19 1008.13 1974.75 1007.44C1974.31 1006.75 1974.08 1005.95 1974.08 1005.14V959.706C1974.08 959.706 1952.91 953.738 1955.16 935.891C1955.16 935.891 1944.29 945.574 1902.75 945.574C1861.2 945.574 1851.06 910.387 1855.23 890.739C1855.23 890.739 1862.94 898.733 1884.9 898.733C1906.86 898.733 1998.4 871.09 2000.76 926.376C2000.76 926.376 2008.48 915.116 2020.97 926.376L2004.93 935.891C2004.93 935.891 2023.9 935.328 2020.97 963.252C2018.61 985.209 2009.43 1026.98 2005.66 1043.7C2004.59 1048.3 2001.81 1052.33 1997.89 1054.96L1989.45 1060.59V1033.91Z" fill="#263238"/>
<path d="M1910.01 986.955V1020.23L1890.58 1014.26L1910.01 986.955Z" fill="#703838"/>
<path d="M1944.63 992.697C1944.64 994.047 1944.25 995.369 1943.51 996.497C1942.77 997.625 1941.71 998.507 1940.47 999.031C1939.22 999.555 1937.85 999.698 1936.53 999.441C1935.2 999.185 1933.98 998.541 1933.02 997.59C1932.06 996.64 1931.41 995.426 1931.14 994.103C1930.88 992.78 1931.01 991.408 1931.52 990.16C1932.03 988.912 1932.91 987.844 1934.03 987.093C1935.15 986.342 1936.47 985.941 1937.82 985.941C1939.62 985.941 1941.34 986.651 1942.62 987.916C1943.89 989.182 1944.62 990.9 1944.63 992.697Z" fill="#263238"/>
<path d="M1893.91 987.968C1893.91 989.304 1893.51 990.61 1892.77 991.721C1892.03 992.832 1890.97 993.698 1889.74 994.21C1888.5 994.721 1887.14 994.855 1885.83 994.594C1884.52 994.333 1883.32 993.69 1882.37 992.745C1881.43 991.8 1880.79 990.596 1880.52 989.286C1880.26 987.975 1880.4 986.617 1880.91 985.382C1881.42 984.148 1882.29 983.093 1883.4 982.351C1884.51 981.608 1885.81 981.212 1887.15 981.212C1888.94 981.227 1890.65 981.943 1891.91 983.207C1893.18 984.471 1893.89 986.181 1893.91 987.968Z" fill="#263238"/>
<path d="M1878.87 973.893L1892.16 966.011C1892.16 966.011 1887.04 960.719 1881.97 963.928C1880.51 965.083 1879.43 966.653 1878.88 968.431C1878.33 970.21 1878.33 972.113 1878.87 973.893Z" fill="#263238"/>
<path d="M1951.61 978.791L1938.38 970.909C1938.38 970.909 1943.45 965.617 1948.52 968.826C1949.98 969.981 1951.06 971.551 1951.61 973.329C1952.16 975.108 1952.16 977.012 1951.61 978.791Z" fill="#263238"/>
<path d="M1900.89 1033.68C1907.35 1034.16 1913.78 1032.43 1919.13 1028.78C1919.13 1028.78 1920.37 1038.41 1912.32 1040.04C1909.97 1040.44 1907.56 1040.02 1905.49 1038.87C1903.41 1037.71 1901.79 1035.88 1900.89 1033.68Z" fill="#703838"/>
<path d="M1984.44 998.946C1976.72 1012.23 1978.81 1028.39 1989.45 1033.91C1996.31 1037.45 2016.64 1029.8 2024.3 1016.51C2031.95 1003.22 2027.67 991.796 2017.2 985.772C2006.73 979.748 1992.09 985.603 1984.44 998.946Z" fill="#945959"/>
<path d="M1980.55 1008.8L2003.97 983.408L1987.14 973.274L1980.55 1008.8Z" fill="#253239"/>
<path d="M2226.13 1792.43H2146.8V1813.66C2146.82 1829.98 2149.04 1846.23 2153.39 1861.96L2217.12 2092.79C2217.65 2094.78 2218.82 2096.55 2220.45 2097.81C2222.09 2099.07 2224.09 2099.75 2226.16 2099.75C2228.22 2099.75 2230.23 2099.07 2231.86 2097.81C2233.5 2096.55 2234.67 2094.78 2235.19 2092.79L2298.92 1861.96C2303.26 1846.21 2305.46 1829.94 2305.46 1813.6V1792.43H2226.13Z" fill="#FFA8A7"/>
<path d="M2246.96 2037.67C2240.51 2040.94 2233.39 2042.65 2226.16 2042.65C2218.93 2042.65 2211.8 2040.94 2205.35 2037.67C2203.77 2036.76 2202.31 2035.64 2201.02 2034.35L2217.12 2092.68C2217.65 2094.67 2218.82 2096.44 2220.45 2097.69C2222.09 2098.95 2224.09 2099.64 2226.16 2099.64C2228.22 2099.64 2230.23 2098.95 2231.86 2097.69C2233.49 2096.44 2234.67 2094.67 2235.19 2092.68L2251.3 2034.35C2249.99 2035.63 2248.53 2036.74 2246.96 2037.67Z" fill="#37474F"/>
<path d="M2146.8 744.529V1819.51C2146.8 1831.22 2154.57 1842.93 2170.06 1851.88C2201.02 1869.73 2251.24 1869.73 2282.2 1851.88C2297.69 1842.93 2305.46 1831.22 2305.46 1819.51V744.529H2146.8Z" fill="#D4F600"/>
<path d="M2282.2 923.899C2313.22 941.746 2313.22 970.74 2282.2 988.643C2251.18 1006.55 2201.02 1006.55 2170.06 988.643C2139.09 970.74 2139.09 941.746 2170.06 923.899C2201.02 906.052 2251.24 905.996 2282.2 923.899Z" fill="#E6E6E6"/>
<path d="M2305.4 780.223H2146.8V956.271H2305.4V780.223Z" fill="#E6E6E6"/>
<path d="M2282.2 925.307C2251.24 943.21 2201.02 943.21 2170.06 925.307C2154.57 916.355 2146.8 904.645 2146.8 892.934V914.835C2146.8 926.545 2154.57 938.255 2170.06 947.207C2201.02 965.11 2251.24 965.11 2282.2 947.207C2297.69 938.255 2305.46 926.545 2305.46 914.835V892.934C2305.46 904.645 2297.69 916.58 2282.2 925.307Z" fill="#D4F600"/>
<path d="M2282.2 858.423C2251.24 876.27 2201.02 876.27 2170.06 858.423C2154.57 849.471 2146.8 837.761 2146.8 825.994V847.895C2146.8 859.605 2154.57 871.315 2170.06 880.267C2201.02 898.17 2251.24 898.17 2282.2 880.267C2297.69 871.315 2305.46 859.605 2305.46 847.895V825.994C2305.46 837.761 2297.69 849.471 2282.2 858.423Z" fill="#D4F600"/>
<path d="M2282.2 747.682C2313.22 765.585 2313.22 794.579 2282.2 812.426C2251.18 830.273 2201.02 830.329 2170.06 812.426C2139.09 794.523 2139.09 765.585 2170.06 747.682C2201.02 729.779 2251.24 729.947 2282.2 747.682Z" fill="#F28F8F"/>
<path d="M2305.4 645.611H2146.8V780.223H2305.4V645.611Z" fill="#F28F8F"/>
<path d="M2282.2 613.239C2313.22 631.142 2313.22 660.136 2282.2 677.983C2251.18 695.83 2201.02 695.886 2170.06 677.983C2139.09 660.08 2139.09 631.086 2170.06 613.182C2201.02 595.279 2251.24 595.673 2282.2 613.239Z" fill="#FFA8A7"/>
<path d="M2305.51 1295.08C2301.08 1297.58 2296.07 1298.89 2290.99 1298.89C2285.9 1298.89 2280.9 1297.58 2276.46 1295.08C2251.97 1283.54 2264.53 1363.82 2305.51 1352.9C2346.5 1341.98 2333.66 1280.11 2305.51 1280.11V1295.08Z" fill="#945959"/>
</svg>
