<svg width="130" height="44" viewBox="0 0 130 44" fill="none" xmlns="http://www.w3.org/2000/svg">
<rect width="40.0909" height="43.2727" transform="translate(0 0.363647)" fill="white"/>
<path d="M18.6023 33.6364H10V10.3636H18.5909C20.9621 10.3636 23.0038 10.8296 24.7159 11.7614C26.4356 12.6856 27.7614 14.019 28.6932 15.7614C29.625 17.4962 30.0909 19.572 30.0909 21.9886C30.0909 24.4129 29.625 26.4962 28.6932 28.2386C27.7689 29.9811 26.447 31.3182 24.7273 32.25C23.0076 33.1743 20.9659 33.6364 18.6023 33.6364ZM15.625 28.8409H18.3864C19.6894 28.8409 20.7917 28.6212 21.6932 28.1818C22.6023 27.7349 23.2879 27.0114 23.75 26.0114C24.2197 25.0038 24.4545 23.6629 24.4545 21.9886C24.4545 20.3144 24.2197 18.9811 23.75 17.9886C23.2803 16.9886 22.5871 16.269 21.6705 15.8296C20.7614 15.3826 19.6402 15.1591 18.3068 15.1591H15.625V28.8409Z" fill="#AEA3A3"/>
<path d="M47.8226 30.7564C46.7506 30.7564 45.8146 30.5564 45.0146 30.1564C44.2146 29.7564 43.5906 29.1564 43.1426 28.3564C42.7106 27.5564 42.4946 26.5564 42.4946 25.3564V18.0364H44.1986V25.1644C44.1986 26.5084 44.5266 27.5244 45.1826 28.2124C45.8546 28.8844 46.7906 29.2204 47.9906 29.2204C48.8706 29.2204 49.6306 29.0444 50.2706 28.6924C50.9266 28.3244 51.4226 27.7964 51.7586 27.1084C52.1106 26.4204 52.2866 25.5964 52.2866 24.6364V18.0364H53.9906V30.6364H52.3586V27.1804L52.6226 27.8044C52.2226 28.7324 51.5986 29.4604 50.7506 29.9884C49.9186 30.5004 48.9426 30.7564 47.8226 30.7564Z" fill="white"/>
<path d="M62.1236 30.7564C61.0836 30.7564 60.0996 30.6124 59.1716 30.3244C58.2436 30.0204 57.5156 29.6444 56.9876 29.1964L57.7556 27.8524C58.2676 28.2364 58.9236 28.5724 59.7236 28.8604C60.5236 29.1324 61.3636 29.2684 62.2436 29.2684C63.4436 29.2684 64.3076 29.0844 64.8356 28.7164C65.3636 28.3324 65.6276 27.8284 65.6276 27.2044C65.6276 26.7404 65.4756 26.3804 65.1716 26.1244C64.8836 25.8524 64.4996 25.6524 64.0196 25.5244C63.5396 25.3804 63.0036 25.2604 62.4116 25.1644C61.8196 25.0684 61.2276 24.9564 60.6356 24.8284C60.0596 24.7004 59.5316 24.5164 59.0516 24.2764C58.5716 24.0204 58.1796 23.6764 57.8756 23.2444C57.5876 22.8124 57.4436 22.2364 57.4436 21.5164C57.4436 20.8284 57.6356 20.2124 58.0196 19.6684C58.4036 19.1244 58.9636 18.7004 59.6996 18.3964C60.4516 18.0764 61.3636 17.9164 62.4356 17.9164C63.2516 17.9164 64.0676 18.0284 64.8836 18.2524C65.6996 18.4604 66.3716 18.7404 66.8996 19.0924L66.1556 20.4604C65.5956 20.0764 64.9956 19.8044 64.3556 19.6444C63.7156 19.4684 63.0756 19.3804 62.4356 19.3804C61.2996 19.3804 60.4596 19.5804 59.9156 19.9804C59.3876 20.3644 59.1236 20.8604 59.1236 21.4684C59.1236 21.9484 59.2676 22.3244 59.5556 22.5964C59.8596 22.8684 60.2516 23.0844 60.7316 23.2444C61.2276 23.3884 61.7636 23.5084 62.3396 23.6044C62.9316 23.7004 63.5156 23.8204 64.0916 23.9644C64.6836 24.0924 65.2196 24.2764 65.6996 24.5164C66.1956 24.7404 66.5876 25.0684 66.8756 25.5004C67.1796 25.9164 67.3316 26.4684 67.3316 27.1564C67.3316 27.8924 67.1236 28.5324 66.7076 29.0764C66.3076 29.6044 65.7156 30.0204 64.9316 30.3244C64.1636 30.6124 63.2276 30.7564 62.1236 30.7564Z" fill="white"/>
<path d="M76.8904 17.9164C77.9144 17.9164 78.8104 18.1164 79.5784 18.5164C80.3624 18.9004 80.9704 19.4924 81.4024 20.2924C81.8504 21.0924 82.0744 22.1004 82.0744 23.3164V30.6364H80.3704V23.4844C80.3704 22.1564 80.0344 21.1564 79.3624 20.4844C78.7064 19.7964 77.7784 19.4524 76.5784 19.4524C75.6824 19.4524 74.8984 19.6364 74.2264 20.0044C73.5704 20.3564 73.0584 20.8764 72.6904 21.5644C72.3384 22.2364 72.1624 23.0524 72.1624 24.0124V30.6364H70.4584V12.8284H72.1624V21.4924L71.8264 20.8444C72.2264 19.9324 72.8664 19.2204 73.7464 18.7084C74.6264 18.1804 75.6744 17.9164 76.8904 17.9164Z" fill="white"/>
<path d="M86.6771 30.6364V18.0364H88.3811V30.6364H86.6771ZM87.5411 15.2524C87.1891 15.2524 86.8931 15.1324 86.6531 14.8924C86.4131 14.6524 86.2931 14.3644 86.2931 14.0284C86.2931 13.6924 86.4131 13.4124 86.6531 13.1884C86.8931 12.9484 87.1891 12.8284 87.5411 12.8284C87.8931 12.8284 88.1891 12.9404 88.4291 13.1644C88.6691 13.3884 88.7891 13.6684 88.7891 14.0044C88.7891 14.3564 88.6691 14.6524 88.4291 14.8924C88.2051 15.1324 87.9091 15.2524 87.5411 15.2524Z" fill="white"/>
<path d="M108.866 17.9164C109.89 17.9164 110.778 18.1164 111.53 18.5164C112.298 18.9004 112.89 19.4924 113.306 20.2924C113.738 21.0924 113.954 22.1004 113.954 23.3164V30.6364H112.25V23.4844C112.25 22.1564 111.93 21.1564 111.29 20.4844C110.666 19.7964 109.778 19.4524 108.626 19.4524C107.762 19.4524 107.01 19.6364 106.37 20.0044C105.746 20.3564 105.258 20.8764 104.906 21.5644C104.57 22.2364 104.402 23.0524 104.402 24.0124V30.6364H102.698V23.4844C102.698 22.1564 102.378 21.1564 101.738 20.4844C101.098 19.7964 100.202 19.4524 99.0504 19.4524C98.2024 19.4524 97.4584 19.6364 96.8184 20.0044C96.1784 20.3564 95.6824 20.8764 95.3304 21.5644C94.9944 22.2364 94.8264 23.0524 94.8264 24.0124V30.6364H93.1224V18.0364H94.7544V21.4444L94.4904 20.8444C94.8744 19.9324 95.4904 19.2204 96.3384 18.7084C97.2024 18.1804 98.2184 17.9164 99.3864 17.9164C100.618 17.9164 101.666 18.2284 102.53 18.8524C103.394 19.4604 103.954 20.3804 104.21 21.6124L103.538 21.3484C103.906 20.3244 104.554 19.5004 105.482 18.8764C106.426 18.2364 107.554 17.9164 108.866 17.9164Z" fill="white"/>
<path d="M123.928 30.7564C122.616 30.7564 121.464 30.4844 120.472 29.9404C119.48 29.3804 118.704 28.6204 118.144 27.6604C117.584 26.6844 117.304 25.5724 117.304 24.3244C117.304 23.0764 117.568 21.9724 118.096 21.0124C118.64 20.0524 119.376 19.3004 120.304 18.7564C121.248 18.1964 122.304 17.9164 123.472 17.9164C124.656 17.9164 125.704 18.1884 126.616 18.7324C127.544 19.2604 128.272 20.0124 128.8 20.9884C129.328 21.9484 129.592 23.0604 129.592 24.3244C129.592 24.4044 129.584 24.4924 129.568 24.5884C129.568 24.6684 129.568 24.7564 129.568 24.8524H118.6V23.5804H128.656L127.984 24.0844C127.984 23.1724 127.784 22.3644 127.384 21.6604C127 20.9404 126.472 20.3804 125.8 19.9804C125.128 19.5804 124.352 19.3804 123.472 19.3804C122.608 19.3804 121.832 19.5804 121.144 19.9804C120.456 20.3804 119.92 20.9404 119.536 21.6604C119.152 22.3804 118.96 23.2044 118.96 24.1324V24.3964C118.96 25.3564 119.168 26.2044 119.584 26.9404C120.016 27.6604 120.608 28.2284 121.36 28.6444C122.128 29.0444 123 29.2444 123.976 29.2444C124.744 29.2444 125.456 29.1084 126.112 28.8364C126.784 28.5644 127.36 28.1484 127.84 27.5884L128.8 28.6924C128.24 29.3644 127.536 29.8764 126.688 30.2284C125.856 30.5804 124.936 30.7564 123.928 30.7564Z" fill="white"/>
</svg>
