<svg width="2466" height="1586" viewBox="0 0 2466 1586" fill="none" xmlns="http://www.w3.org/2000/svg">
<path d="M726.608 820.988H77.5747L125.561 358.645H780.09L726.608 820.988Z" fill="#F5F5F5"/>
<path d="M148.937 743.413C148.34 743.413 155.07 673.803 163.911 588.104C172.751 502.405 180.397 432.795 180.955 432.795C181.512 432.795 174.822 502.365 165.981 588.104C157.141 673.843 149.495 743.453 148.937 743.413Z" fill="#E0E0E0"/>
<path d="M267.092 448.525C256.266 449.55 245.386 449.896 234.517 449.56C223.647 449.896 212.767 449.55 201.941 448.525C212.766 447.475 223.647 447.13 234.517 447.489C245.386 447.13 256.267 447.475 267.092 448.525Z" fill="#E0E0E0"/>
<path d="M544.298 448.525C544.298 449.082 486.197 449.56 414.556 449.56C342.914 449.56 284.773 449.082 284.773 448.525C284.773 447.967 342.875 447.489 414.556 447.489C486.237 447.489 544.298 447.927 544.298 448.525Z" fill="#E0E0E0"/>
<path d="M259.406 612.794C248.582 613.843 237.7 614.189 226.831 613.829C215.962 614.189 205.08 613.843 194.256 612.794C205.082 611.769 215.962 611.423 226.831 611.759C237.7 611.423 248.58 611.769 259.406 612.794Z" fill="#E0E0E0"/>
<path d="M536.613 612.794C536.613 613.391 478.511 613.829 406.87 613.829C335.229 613.829 277.087 613.391 277.087 612.794C277.087 612.197 335.189 611.759 406.87 611.759C478.551 611.759 536.613 612.237 536.613 612.794Z" fill="#E0E0E0"/>
<path d="M448.206 688.736C448.206 689.334 390.105 689.772 318.463 689.772C246.822 689.772 188.681 689.334 188.681 688.736C188.681 688.139 246.782 687.701 318.463 687.701C390.145 687.701 448.206 687.98 448.206 688.736Z" fill="#E0E0E0"/>
<path d="M295.804 494.918C295.804 495.476 275.295 495.954 249.968 495.954C224.641 495.954 204.132 495.476 204.132 494.918C204.132 494.361 224.68 493.843 249.968 493.843C275.255 493.843 295.804 494.321 295.804 494.918Z" fill="#E0E0E0"/>
<path d="M293.494 562.896C293.494 563.493 272.945 563.931 247.658 563.931C222.37 563.931 201.822 563.493 201.822 562.896C201.822 562.299 222.331 561.861 247.658 561.861C272.985 561.861 293.494 562.339 293.494 562.896Z" fill="#E0E0E0"/>
<path d="M370.99 660.104C370.99 660.661 350.441 661.139 325.153 661.139C299.866 661.139 279.317 660.661 279.317 660.104C279.317 659.546 299.826 659.068 325.153 659.068C350.481 659.068 370.99 659.506 370.99 660.104Z" fill="#E0E0E0"/>
<path d="M629.201 494.918C629.201 495.476 576.794 495.954 512.122 495.954C447.45 495.954 395.003 495.476 395.003 494.918C395.003 494.361 447.45 493.843 512.122 493.843C576.794 493.843 629.201 494.321 629.201 494.918Z" fill="#E0E0E0"/>
<path d="M557.002 566.839C557.002 567.436 504.595 567.874 439.923 567.874C375.251 567.874 322.844 567.436 322.844 566.839C322.844 566.241 375.251 565.803 439.923 565.803C504.595 565.803 557.002 566.281 557.002 566.839Z" fill="#E0E0E0"/>
<path d="M637.603 660.104C637.603 660.661 585.157 661.139 520.524 661.139C455.892 661.139 403.405 660.661 403.405 660.104C403.405 659.546 455.852 659.068 520.524 659.068C585.197 659.068 637.603 659.506 637.603 660.104Z" fill="#E0E0E0"/>
<path d="M423.794 743.413C423.794 743.971 371.348 744.448 306.675 744.448C242.003 744.448 189.596 743.971 189.596 743.413C189.596 742.856 242.003 742.378 306.675 742.378C371.348 742.378 423.794 742.816 423.794 743.413Z" fill="#E0E0E0"/>
<path d="M682.763 743.413C682.763 743.971 630.316 744.448 565.683 744.448C501.051 744.448 448.564 743.971 448.564 743.413C448.564 742.856 500.971 742.378 565.683 742.378C630.396 742.378 682.763 742.816 682.763 743.413Z" fill="#E0E0E0"/>
<path d="M423.755 770.493C423.755 771.09 371.348 771.528 306.676 771.528C242.003 771.528 189.557 771.09 189.557 770.493C189.557 769.895 242.003 769.457 306.676 769.457C371.348 769.457 423.755 769.935 423.755 770.493Z" fill="#E0E0E0"/>
<path d="M435.144 514.432C435.144 514.989 382.737 515.467 318.065 515.467C253.392 515.467 200.946 514.989 200.946 514.432C200.946 513.874 253.392 513.396 318.065 513.396C382.737 513.396 435.144 513.834 435.144 514.432Z" fill="#E0E0E0"/>
<path d="M372.702 495.157C362.688 496.182 352.616 496.528 342.556 496.193C332.482 496.529 322.397 496.183 312.37 495.157C322.396 494.108 332.482 493.762 342.556 494.122C352.616 493.763 362.69 494.109 372.702 495.157Z" fill="#E0E0E0"/>
<path d="M251.76 635.135C241.733 636.16 231.648 636.506 221.574 636.17C211.514 636.506 201.442 636.16 191.428 635.135C201.442 634.11 211.514 633.764 221.574 634.099C231.648 633.763 241.733 634.109 251.76 635.135Z" fill="#E0E0E0"/>
<path d="M250.326 660.104C240.313 661.129 230.241 661.475 220.18 661.139C210.107 661.475 200.022 661.129 189.995 660.104C200.02 659.054 210.107 658.708 220.18 659.068C230.241 658.709 240.314 659.055 250.326 660.104Z" fill="#E0E0E0"/>
<path d="M772.922 407.547C772.922 408.144 626.971 408.582 446.972 408.582C266.972 408.582 120.942 408.144 120.942 407.547C120.942 406.95 266.893 406.512 446.972 406.512C627.051 406.512 772.922 406.99 772.922 407.547Z" fill="#E0E0E0"/>
<path d="M164.946 393.251C169.213 393.251 172.671 389.792 172.671 385.525C172.671 381.258 169.213 377.799 164.946 377.799C160.679 377.799 157.22 381.258 157.22 385.525C157.22 389.792 160.679 393.251 164.946 393.251Z" fill="white"/>
<path d="M198.119 393.251C202.385 393.251 205.844 389.792 205.844 385.525C205.844 381.258 202.385 377.799 198.119 377.799C193.852 377.799 190.393 381.258 190.393 385.525C190.393 389.792 193.852 393.251 198.119 393.251Z" fill="white"/>
<path d="M231.291 393.251C235.558 393.251 239.017 389.792 239.017 385.525C239.017 381.258 235.558 377.799 231.291 377.799C227.024 377.799 223.565 381.258 223.565 385.525C223.565 389.792 227.024 393.251 231.291 393.251Z" fill="white"/>
<path d="M2411.87 589.816H1762.84L1810.82 127.513H2465.35L2411.87 589.816Z" fill="#F5F5F5"/>
<path d="M1834.2 512.241C1833.64 512.241 1840.33 442.631 1849.17 356.932C1858.01 271.233 1865.66 201.623 1866.22 201.862C1866.78 202.101 1860.09 271.433 1851.24 357.171C1842.4 442.91 1834.76 512.281 1834.2 512.241Z" fill="#E0E0E0"/>
<path d="M1952.36 217.353C1930.66 218.734 1908.9 218.734 1887.21 217.353C1908.9 215.973 1930.66 215.973 1952.36 217.353Z" fill="#E0E0E0"/>
<path d="M2229.6 217.353C2229.6 217.911 2171.5 218.389 2099.82 218.389C2028.14 218.389 1970.04 217.911 1970.04 217.353C1970.04 216.796 2028.14 216.318 2099.82 216.318C2171.5 216.318 2229.6 216.796 2229.6 217.353Z" fill="#E0E0E0"/>
<path d="M1944.71 381.662C1923 383.042 1901.23 383.042 1879.52 381.662C1901.23 380.282 1923 380.282 1944.71 381.662Z" fill="#E0E0E0"/>
<path d="M2222.12 381.662C2222.12 382.22 2164.01 382.698 2092.33 382.698C2020.65 382.698 1962.55 382.22 1962.55 381.662C1962.55 381.105 2020.65 380.627 2092.33 380.627C2164.01 380.627 2222.12 381.065 2222.12 381.662Z" fill="#E0E0E0"/>
<path d="M2133.51 457.405C2133.51 457.963 2075.41 458.441 2003.73 458.441C1932.05 458.441 1873.94 457.963 1873.94 457.405C1873.94 456.848 1932.05 456.37 2003.73 456.37C2075.41 456.37 2133.51 456.808 2133.51 457.405Z" fill="#E0E0E0"/>
<path d="M1981.11 263.747C1981.11 264.304 1960.56 264.782 1935.27 264.782C1909.98 264.782 1889.44 264.304 1889.44 263.747C1889.44 263.189 1909.94 262.632 1935.39 262.632C1960.84 262.632 1981.11 263.149 1981.11 263.747Z" fill="#E0E0E0"/>
<path d="M1978.76 331.724C1978.76 332.322 1958.25 332.76 1932.92 332.76C1907.59 332.76 1887.09 332.322 1887.09 331.724C1887.09 331.127 1907.59 330.689 1932.92 330.689C1958.25 330.689 1978.76 331.167 1978.76 331.724Z" fill="#E0E0E0"/>
<path d="M2056.25 428.932C2056.25 429.489 2035.74 429.967 2010.42 429.967C1985.09 429.967 1964.58 429.489 1964.58 428.932C1964.58 428.374 1985.09 427.897 2010.42 427.897C2035.74 427.897 2056.25 428.374 2056.25 428.932Z" fill="#E0E0E0"/>
<path d="M2314.58 263.747C2314.58 264.304 2262.14 264.782 2197.46 264.782C2132.79 264.782 2080.39 264.304 2080.39 263.747C2080.39 263.189 2132.79 262.711 2197.46 262.711C2262.14 262.711 2314.58 263.149 2314.58 263.747Z" fill="#E0E0E0"/>
<path d="M2242.31 335.667C2242.31 336.264 2189.86 336.702 2125.19 336.702C2060.51 336.702 2008.11 336.264 2008.11 335.667C2008.11 335.069 2060.51 334.631 2125.19 334.631C2189.86 334.631 2242.31 335.109 2242.31 335.667Z" fill="#E0E0E0"/>
<path d="M2322.87 428.932C2322.87 429.489 2270.46 429.967 2205.79 429.967C2141.12 429.967 2088.71 429.489 2088.71 428.932C2088.71 428.374 2141.12 427.897 2205.79 427.897C2270.46 427.897 2322.87 428.374 2322.87 428.932Z" fill="#E0E0E0"/>
<path d="M2109.06 512.241C2109.06 512.799 2056.61 513.277 1991.98 513.277C1927.35 513.277 1874.86 512.799 1874.86 512.241C1874.86 511.684 1927.27 511.206 1991.98 511.206C2056.69 511.206 2109.06 511.644 2109.06 512.241Z" fill="#E0E0E0"/>
<path d="M2368.03 512.241C2368.03 512.799 2315.62 513.277 2250.95 513.277C2186.27 513.277 2133.83 512.799 2133.83 512.241C2133.83 511.684 2186.27 511.206 2250.95 511.206C2315.62 511.206 2368.03 511.644 2368.03 512.241Z" fill="#E0E0E0"/>
<path d="M2109.02 539.321C2109.02 539.918 2056.61 540.356 1991.94 540.356C1927.27 540.356 1874.86 539.918 1874.86 539.321C1874.86 538.724 1927.27 538.286 1991.94 538.286C2056.61 538.286 2109.02 538.763 2109.02 539.321Z" fill="#E0E0E0"/>
<path d="M2120.45 283.26C2120.45 283.817 2068 284.295 2003.33 284.295C1938.66 284.295 1886.25 283.817 1886.25 283.26C1886.25 282.702 1938.66 282.225 2003.33 282.225C2068 282.225 2120.45 282.543 2120.45 283.26Z" fill="#E0E0E0"/>
<path d="M2057.97 263.986C2037.89 265.366 2017.75 265.366 1997.67 263.986C2017.75 262.605 2037.89 262.605 2057.97 263.986Z" fill="#E0E0E0"/>
<path d="M1937.02 403.963C1916.94 405.344 1896.78 405.344 1876.69 403.963C1896.78 402.583 1916.94 402.583 1937.02 403.963Z" fill="#E0E0E0"/>
<path d="M1935.59 428.932C1915.52 430.312 1895.37 430.312 1875.3 428.932C1895.37 427.551 1915.52 427.551 1935.59 428.932Z" fill="#E0E0E0"/>
<path d="M2458.22 176.375C2458.22 176.973 2312.23 177.411 2132.23 177.411C1952.24 177.411 1806.25 176.973 1806.25 176.375C1806.25 175.778 1952.16 175.34 2132.23 175.34C2312.31 175.34 2458.22 175.818 2458.22 176.375Z" fill="#E0E0E0"/>
<path d="M1850.21 162.079C1854.48 162.079 1857.94 158.62 1857.94 154.353C1857.94 150.087 1854.48 146.628 1850.21 146.628C1845.94 146.628 1842.48 150.087 1842.48 154.353C1842.48 158.62 1845.94 162.079 1850.21 162.079Z" fill="white"/>
<path d="M1883.38 162.079C1887.65 162.079 1891.11 158.62 1891.11 154.353C1891.11 150.087 1887.65 146.628 1883.38 146.628C1879.12 146.628 1875.66 150.087 1875.66 154.353C1875.66 158.62 1879.12 162.079 1883.38 162.079Z" fill="white"/>
<path d="M1916.55 162.079C1920.82 162.079 1924.28 158.62 1924.28 154.353C1924.28 150.087 1920.82 146.628 1916.55 146.628C1912.29 146.628 1908.83 150.087 1908.83 154.353C1908.83 158.62 1912.29 162.079 1916.55 162.079Z" fill="white"/>
<path d="M1050.61 287.959H646.365L676.232 0H1083.9L1050.61 287.959Z" fill="#EBEBEB"/>
<path d="M690.807 239.614C690.249 239.614 694.232 196.247 699.727 142.884C705.223 89.5218 710.161 46.2741 710.758 46.314C711.356 46.3538 707.333 89.7209 701.798 143.084C696.263 196.446 691.364 239.694 690.807 239.614Z" fill="#E0E0E0"/>
<path d="M764.599 55.9511C751.107 57.3316 737.51 57.3316 724.019 55.9511C737.51 54.5705 751.107 54.5705 764.599 55.9511Z" fill="#E0E0E0"/>
<path d="M937.071 55.9511C937.071 56.5484 900.873 56.9865 856.231 56.9865C811.59 56.9865 775.391 56.5484 775.391 55.9511C775.391 55.3538 811.59 54.9157 856.231 54.9157C900.873 54.9157 937.071 55.5529 937.071 55.9511Z" fill="#E0E0E0"/>
<path d="M759.621 158.296C746.129 159.676 732.532 159.676 719.041 158.296C732.532 156.915 746.129 156.915 759.621 158.296Z" fill="#E0E0E0"/>
<path d="M932.293 158.296C932.293 158.853 896.094 159.331 851.452 159.331C806.811 159.331 770.612 158.853 770.612 158.296C770.612 157.738 806.811 157.26 851.452 157.26C896.094 157.26 932.293 157.738 932.293 158.296Z" fill="#E0E0E0"/>
<path d="M877.218 205.446C877.218 206.043 841.019 206.482 796.377 206.482C751.736 206.482 715.577 206.043 715.577 205.446C715.577 204.849 751.736 204.411 796.377 204.411C841.019 204.411 877.218 204.889 877.218 205.446Z" fill="#E0E0E0"/>
<path d="M782.28 84.8625C772.799 85.8871 763.257 86.2331 753.727 85.8979C744.21 86.2339 734.681 85.8879 725.214 84.8625C734.68 83.8131 744.21 83.467 753.727 83.8271C763.257 83.468 772.801 83.814 782.28 84.8625Z" fill="#E0E0E0"/>
<path d="M780.846 127.234C771.367 128.282 761.823 128.629 752.293 128.269C742.763 128.629 733.219 128.282 723.74 127.234C733.221 126.209 742.763 125.863 752.293 126.199C761.823 125.863 771.365 126.209 780.846 127.234Z" fill="#E0E0E0"/>
<path d="M829.112 187.725C819.633 188.773 810.089 189.119 800.559 188.76C791.028 189.119 781.485 188.773 772.006 187.725C781.486 186.7 791.028 186.354 800.559 186.69C810.089 186.354 819.631 186.7 829.112 187.725Z" fill="#E0E0E0"/>
<path d="M989.996 84.8625C989.996 85.42 957.341 85.8979 917.08 85.8979C876.82 85.8979 844.244 85.42 844.244 84.8625C844.244 84.305 876.899 83.8271 917.2 83.8271C957.501 83.8271 989.996 84.2651 989.996 84.8625Z" fill="#E0E0E0"/>
<path d="M944.956 129.663C944.956 130.221 912.302 130.699 872.041 130.699C831.78 130.699 799.125 130.221 799.125 129.663C799.125 129.106 831.78 128.628 872.041 128.628C912.302 128.628 944.956 129.106 944.956 129.663Z" fill="#E0E0E0"/>
<path d="M995.173 187.725C995.173 188.322 962.518 188.76 922.257 188.76C881.996 188.76 849.302 188.322 849.302 187.725C849.302 187.128 881.957 186.69 922.257 186.69C962.558 186.69 995.173 187.167 995.173 187.725Z" fill="#E0E0E0"/>
<path d="M862.005 239.614C862.005 240.211 829.351 240.649 789.05 240.649C748.749 240.649 716.134 240.211 716.134 239.614C716.134 239.017 748.789 238.579 789.05 238.579C829.311 238.579 862.005 239.057 862.005 239.614Z" fill="#E0E0E0"/>
<path d="M1023.45 239.614C1023.45 240.211 990.793 240.649 950.532 240.649C910.271 240.649 877.576 240.211 877.576 239.614C877.576 239.017 910.231 238.579 950.532 238.579C990.832 238.579 1023.45 239.057 1023.45 239.614Z" fill="#E0E0E0"/>
<path d="M861.966 256.499C861.966 257.096 829.311 257.534 789.05 257.534C748.789 257.534 716.134 257.096 716.134 256.499C716.134 255.902 748.749 255.464 789.05 255.464C829.351 255.464 861.966 255.942 861.966 256.499Z" fill="#E0E0E0"/>
<path d="M869.054 97.0085C869.054 97.6058 836.399 98.0439 796.138 98.0439C755.877 98.0439 723.223 97.6058 723.223 97.0085C723.223 96.4111 755.877 95.9731 796.138 95.9731C836.399 95.9731 869.054 96.451 869.054 97.0085Z" fill="#E0E0E0"/>
<path d="M830.187 85.0218C817.694 86.4015 805.087 86.4015 792.594 85.0218C805.087 83.6421 817.694 83.6421 830.187 85.0218Z" fill="#E0E0E0"/>
<path d="M754.842 172.194C742.362 173.575 729.769 173.575 717.289 172.194C729.769 170.813 742.362 170.813 754.842 172.194Z" fill="#E0E0E0"/>
<path d="M753.966 187.725C741.473 189.105 728.866 189.105 716.373 187.725C728.866 186.345 741.473 186.345 753.966 187.725Z" fill="#E0E0E0"/>
<path d="M1079.44 30.4645C1079.44 31.022 988.563 31.4999 876.342 31.4999C764.121 31.4999 673.245 31.022 673.245 30.4645C673.245 29.9069 764.121 29.4291 876.342 29.4291C988.563 29.4291 1079.44 29.8671 1079.44 30.4645Z" fill="#E0E0E0"/>
<path d="M705.581 16.7256C705.549 17.6762 705.237 18.5962 704.684 19.3696C704.13 20.143 703.36 20.7353 702.47 21.0718C701.58 21.4083 700.611 21.474 699.684 21.2606C698.757 21.0472 697.914 20.5642 697.261 19.8726C696.608 19.1809 696.175 18.3115 696.015 17.3739C695.855 16.4362 695.977 15.4723 696.364 14.6035C696.751 13.7347 697.387 12.9999 698.191 12.4917C698.995 11.9835 699.931 11.7247 700.882 11.7477C701.518 11.7631 702.145 11.9045 702.727 12.1636C703.308 12.4226 703.832 12.7943 704.269 13.2571C704.706 13.72 705.047 14.2648 705.272 14.8601C705.497 15.4554 705.602 16.0894 705.581 16.7256Z" fill="white"/>
<path d="M726.249 16.7256C726.218 17.6712 725.909 18.5867 725.361 19.3579C724.813 20.129 724.05 20.7218 723.167 21.0622C722.284 21.4026 721.321 21.4756 720.397 21.272C719.473 21.0685 718.629 20.5975 717.971 19.9177C717.313 19.2379 716.87 18.3794 716.696 17.4493C716.523 16.5192 716.627 15.5586 716.996 14.6874C717.365 13.8161 717.982 13.0728 718.771 12.55C719.56 12.0273 720.485 11.7482 721.431 11.7477C722.077 11.7474 722.717 11.8771 723.312 12.1291C723.907 12.3812 724.446 12.7504 724.896 13.2149C725.345 13.6793 725.697 14.2295 725.929 14.8326C726.162 15.4358 726.271 16.0795 726.249 16.7256Z" fill="white"/>
<path d="M746.917 16.7256C746.886 17.6712 746.577 18.5867 746.029 19.3579C745.481 20.129 744.718 20.7218 743.835 21.0622C742.952 21.4026 741.989 21.4756 741.065 21.272C740.141 21.0685 739.297 20.5975 738.639 19.9177C737.981 19.2379 737.538 18.3794 737.365 17.4493C737.191 16.5192 737.295 15.5586 737.664 14.6874C738.033 13.8161 738.65 13.0728 739.439 12.55C740.228 12.0273 741.153 11.7482 742.099 11.7477C742.745 11.7474 743.385 11.8771 743.98 12.1291C744.576 12.3812 745.114 12.7504 745.564 13.2149C746.013 13.6793 746.365 14.2295 746.597 14.8326C746.83 15.4358 746.939 16.0795 746.917 16.7256Z" fill="white"/>
<path d="M2149.24 790.484H1945.67V1449.39H2149.24V790.484Z" fill="#EBEBEB"/>
<path d="M2322.07 790.603H2149.24V1449.27H2322.07V790.603Z" fill="#E0E0E0"/>
<path d="M2124.87 817.165H1961.55V959.094H2124.87V817.165Z" fill="#E0E0E0"/>
<path d="M2124.87 975.182H1961.55V1117.11H2124.87V975.182Z" fill="#E0E0E0"/>
<path d="M2124.87 1133.2H1961.55V1275.13H2124.87V1133.2Z" fill="#E0E0E0"/>
<path d="M2124.87 1291.26H1961.55V1433.18H2124.87V1291.26Z" fill="#E0E0E0"/>
<path d="M2043.23 843.368C2043.24 844.496 2042.91 845.601 2042.29 846.543C2041.67 847.485 2040.78 848.221 2039.74 848.658C2038.7 849.095 2037.56 849.214 2036.45 848.998C2035.34 848.783 2034.32 848.244 2033.52 847.449C2032.72 846.654 2032.18 845.64 2031.95 844.534C2031.73 843.428 2031.84 842.281 2032.27 841.238C2032.7 840.195 2033.43 839.304 2034.37 838.676C2035.31 838.049 2036.41 837.714 2037.54 837.714C2039.04 837.714 2040.48 838.308 2041.55 839.367C2042.62 840.427 2043.22 841.865 2043.23 843.368Z" fill="#FAFAFA"/>
<path d="M2043.23 1003.34C2043.24 1004.46 2042.91 1005.57 2042.29 1006.51C2041.67 1007.45 2040.78 1008.19 2039.74 1008.63C2038.7 1009.06 2037.56 1009.18 2036.45 1008.97C2035.34 1008.75 2034.32 1008.21 2033.52 1007.42C2032.72 1006.62 2032.18 1005.61 2031.95 1004.5C2031.73 1003.4 2031.84 1002.25 2032.27 1001.21C2032.7 1000.16 2033.43 999.272 2034.37 998.645C2035.31 998.017 2036.41 997.682 2037.54 997.682C2039.04 997.682 2040.48 998.276 2041.55 999.336C2042.62 1000.4 2043.22 1001.83 2043.23 1003.34Z" fill="#FAFAFA"/>
<path d="M2043.23 1163.11C2043.23 1164.23 2042.9 1165.33 2042.27 1166.27C2041.65 1167.21 2040.76 1167.94 2039.72 1168.37C2038.68 1168.8 2037.53 1168.91 2036.43 1168.69C2035.32 1168.47 2034.31 1167.93 2033.51 1167.13C2032.71 1166.34 2032.17 1165.32 2031.95 1164.22C2031.73 1163.11 2031.84 1161.97 2032.28 1160.93C2032.71 1159.89 2033.44 1159 2034.37 1158.37C2035.31 1157.75 2036.41 1157.41 2037.54 1157.41C2039.05 1157.41 2040.5 1158.01 2041.56 1159.08C2042.63 1160.15 2043.23 1161.6 2043.23 1163.11Z" fill="#FAFAFA"/>
<path d="M2043.23 1322.95C2043.24 1324.08 2042.91 1325.19 2042.29 1326.13C2041.67 1327.07 2040.78 1327.81 2039.74 1328.24C2038.7 1328.68 2037.56 1328.8 2036.45 1328.58C2035.34 1328.37 2034.32 1327.83 2033.52 1327.04C2032.72 1326.24 2032.18 1325.23 2031.95 1324.12C2031.73 1323.01 2031.84 1321.87 2032.27 1320.82C2032.7 1319.78 2033.43 1318.89 2034.37 1318.26C2035.31 1317.64 2036.41 1317.3 2037.54 1317.3C2039.04 1317.3 2040.48 1317.89 2041.55 1318.95C2042.62 1320.01 2043.22 1321.45 2043.23 1322.95Z" fill="#FAFAFA"/>
<path d="M1969.2 1449.39H1945.67V1581.56H1969.2V1449.39Z" fill="#E0E0E0"/>
<path d="M2148.4 1449.39H2124.87V1581.56H2148.4V1449.39Z" fill="#E0E0E0"/>
<path d="M2319.52 1449.39H2295.99V1581.56H2319.52V1449.39Z" fill="#E0E0E0"/>
<path d="M235.512 1544.25C229.499 1539.11 216.039 1522.79 226.393 1503.79C230.375 1496.86 238.339 1493.4 245.627 1490.33C253.139 1487.79 260.227 1484.14 266.653 1479.5C278.083 1469.82 281.229 1453.73 288.795 1440.83C297.516 1426.06 313.764 1414.95 330.928 1415.74C350.56 1416.62 366.768 1432.59 374.374 1450.79C381.98 1468.99 382.06 1489.22 382.339 1508.89C382.339 1519.76 381.941 1532.02 373.896 1539.39C366.529 1546.16 355.379 1546.24 345.343 1545.92L237.822 1542.66" fill="#F5F5F5"/>
<path d="M440.879 1250.24H158.495L209.388 1552.14C210.42 1558.42 213.213 1564.28 217.443 1569.04C221.672 1573.79 227.164 1577.25 233.282 1579.02L234.278 1579.29C235.103 1579.55 235.94 1579.76 236.786 1579.93C238.801 1580.4 240.854 1580.68 242.919 1580.77V1581.05L244.313 1580.85H370.153C372.481 1580.83 374.801 1580.59 377.082 1580.13C384.418 1579.02 391.185 1575.53 396.344 1570.2C401.503 1564.87 404.767 1557.99 405.635 1550.62L430.086 1342.59L431.202 1334.3L440.879 1251.91V1250.24ZM387.596 1442.82H358.644L361.551 1355.21H395.122L387.596 1442.82ZM397.949 1355.21H425.825L415.472 1442.82H390.264L397.949 1355.21ZM315.158 1539.95L313.406 1463.85H355.14L352.591 1539.95H315.158ZM270.038 1463.85H310.618L312.41 1539.95H275.972L270.038 1463.85ZM273.184 1539.95H239.176C235.95 1519.4 231.729 1492.68 227.229 1463.85H267.291L273.184 1539.95ZM268.406 1442.82L261.556 1355.21H308.069L310.1 1442.82H268.406ZM312.928 1442.82L310.897 1355.21H358.684L355.737 1442.82H312.928ZM310.379 1334.19L308.507 1253.03H362.149L359.441 1334.19H310.379ZM307.591 1334.19H259.804L253.472 1253.03H305.6L307.591 1334.19ZM257.096 1334.19H206.68C204.888 1322.99 203.176 1312.36 201.663 1302.84C196.406 1270.03 194.415 1257.69 193.34 1253.03H250.884L257.096 1334.19ZM258.769 1355.21L265.578 1442.82H223.884C222.49 1433.94 221.056 1424.94 219.623 1415.94C216.357 1395.27 213.092 1374.57 210.025 1355.21H258.769ZM221.056 1442.82H193.778L179.043 1355.21H207.078L221.056 1442.82ZM224.362 1463.85C228.344 1490.17 232.605 1516.14 236.308 1539.95H210.105L197.282 1463.85H224.362ZM355.379 1539.95L357.927 1463.85H385.803L379.273 1539.95H355.379ZM362.388 1334.3L365.096 1253.15H404.003L397.073 1334.3H362.388ZM190.791 1253.15C191.906 1259.04 197.043 1290.98 203.972 1334.3H175.618L161.919 1253.15H190.791ZM404.042 1539.87H382.299L388.83 1463.77H413.082L404.042 1539.87ZM428.294 1334.11H399.861L406.83 1252.95H437.852L428.294 1334.11Z" fill="#E0E0E0"/>
<path d="M2301.76 1581.52C2301.76 1582.12 1786.37 1582.56 1150.88 1582.56C515.387 1582.56 0 1582.12 0 1581.52C0 1580.93 515.268 1580.49 1151.08 1580.49C1786.89 1580.49 2301.76 1580.97 2301.76 1581.52Z" fill="#263238"/>
<path d="M1287 720.117H845.36L878.014 405.516H1323.39L1287 720.117Z" fill="#263238"/>
<path d="M1264.54 720.117H822.86L855.515 405.516H1300.89L1264.54 720.117Z" fill="#455A64"/>
<path d="M1248.13 705.86H838.311L868.616 413.959H1281.9L1248.13 705.86Z" fill="#F5F5F5"/>
<path d="M882.753 657.197C882.156 657.197 886.218 613.192 891.833 559.113C897.448 505.033 902.386 461.149 902.943 461.228C903.501 461.308 899.479 505.033 893.864 559.312C888.249 613.591 883.311 657.236 882.753 657.197Z" fill="#263238"/>
<path d="M957.342 470.985C943.664 472.365 929.882 472.365 916.205 470.985C929.882 469.604 943.664 469.604 957.342 470.985Z" fill="#263238"/>
<path d="M1132.4 470.985C1132.4 471.542 1095.73 472.02 1050.45 472.02C1005.17 472.02 968.532 471.542 968.532 470.985C968.532 470.427 1005.21 469.949 1050.45 469.949C1095.69 469.949 1132.4 470.427 1132.4 470.985Z" fill="#D4F600"/>
<path d="M952.523 574.723C938.832 576.104 925.037 576.104 911.346 574.723C925.037 573.343 938.832 573.343 952.523 574.723Z" fill="#263238"/>
<path d="M1127.54 574.723C1127.54 575.321 1090.87 575.759 1045.63 575.759C1000.39 575.759 963.673 575.321 963.673 574.723C963.673 574.126 1000.35 573.688 1045.63 573.688C1090.91 573.688 1127.54 574.166 1127.54 574.723Z" fill="#D4F600"/>
<path d="M1071.71 622.551C1071.71 623.108 1035.04 623.586 989.797 623.586C944.558 623.586 907.842 623.108 907.842 622.551C907.842 621.993 944.519 621.515 989.797 621.515C1035.08 621.515 1071.71 621.993 1071.71 622.551Z" fill="#D4F600"/>
<path d="M975.66 500.255C966.05 501.329 956.373 501.688 946.709 501.33C937.045 501.688 927.368 501.329 917.758 500.255C927.372 499.231 937.046 498.885 946.709 499.219C956.372 498.885 966.046 499.231 975.66 500.255Z" fill="#D4F600"/>
<path d="M974.027 543.224C964.413 544.248 954.739 544.593 945.076 544.259C935.414 544.593 925.739 544.248 916.125 543.224C925.737 542.176 935.414 541.83 945.076 542.188C954.739 541.83 964.415 542.176 974.027 543.224Z" fill="#D4F600"/>
<path d="M1022.97 604.591C1013.36 605.614 1003.68 605.96 994.018 605.626C984.356 605.962 974.681 605.616 965.067 604.591C974.679 603.541 984.356 603.195 994.018 603.555C1003.68 603.197 1013.36 603.543 1022.97 604.591Z" fill="#D4F600"/>
<path d="M1186.04 500.255C1186.04 500.852 1152.95 501.33 1112.13 501.33C1071.31 501.33 1038.18 500.852 1038.18 500.255C1038.18 499.657 1071.27 499.219 1112.13 499.219C1152.99 499.219 1186.04 499.697 1186.04 500.255Z" fill="#263238"/>
<path d="M1140.41 545.693C1140.41 546.29 1107.31 546.728 1066.5 546.728C1025.68 546.728 992.545 546.29 992.545 545.693C992.545 545.095 1025.64 544.657 1066.5 544.657C1107.35 544.657 1140.41 545.135 1140.41 545.693Z" fill="#263238"/>
<path d="M1191.3 604.591C1191.3 605.148 1158.21 605.626 1117.39 605.626C1076.57 605.626 1043.36 605.108 1043.36 604.591C1043.36 604.073 1076.45 603.555 1117.31 603.555C1158.17 603.555 1191.3 603.993 1191.3 604.591Z" fill="#263238"/>
<path d="M1056.3 657.197C1056.3 657.754 1023.17 658.232 982.35 658.232C941.532 658.232 908.399 657.754 908.399 657.197C908.399 656.639 941.532 656.161 982.35 656.161C1023.17 656.161 1056.3 656.599 1056.3 657.197Z" fill="#263238"/>
<path d="M1219.81 657.197C1219.81 657.754 1186.72 658.232 1145.9 658.232C1105.08 658.232 1071.95 657.754 1071.95 657.197C1071.95 656.639 1105.04 656.161 1145.9 656.161C1186.76 656.161 1219.81 656.599 1219.81 657.197Z" fill="#263238"/>
<path d="M1056.26 674.281C1056.26 674.878 1023.17 675.316 982.35 675.316C941.532 675.316 908.399 674.878 908.399 674.281C908.399 673.683 941.492 673.245 982.35 673.245C1023.21 673.245 1056.26 673.723 1056.26 674.281Z" fill="#263238"/>
<path d="M1063.47 512.6C1063.47 513.157 1030.38 513.635 989.558 513.635C948.74 513.635 915.607 513.157 915.607 512.6C915.607 512.042 948.7 511.564 989.558 511.564C1030.42 511.564 1063.47 512.042 1063.47 512.6Z" fill="#263238"/>
<path d="M1024.04 500.454C1011.38 501.834 998.6 501.834 985.934 500.454C998.597 499.02 1011.38 499.02 1024.04 500.454Z" fill="#455A64"/>
<path d="M947.784 588.821C935.131 590.201 922.366 590.201 909.713 588.821C922.366 587.44 935.131 587.44 947.784 588.821Z" fill="#455A64"/>
<path d="M946.749 604.591C934.096 605.971 921.331 605.971 908.678 604.591C921.331 603.21 934.096 603.21 946.749 604.591Z" fill="#455A64"/>
<path d="M1276.76 445.14C1276.76 445.697 1184.61 446.175 1070.92 446.175C957.222 446.175 865.072 445.697 865.072 445.14C865.072 444.582 957.222 444.065 1070.92 444.065C1184.61 444.065 1276.76 444.543 1276.76 445.14Z" fill="#263238"/>
<path d="M897.727 431.202C897.727 432.172 897.438 433.121 896.898 433.927C896.358 434.734 895.591 435.361 894.694 435.731C893.796 436.1 892.809 436.195 891.858 436.003C890.907 435.811 890.034 435.34 889.351 434.651C888.668 433.962 888.204 433.086 888.02 432.133C887.835 431.18 887.938 430.194 888.315 429.3C888.692 428.405 889.326 427.643 890.136 427.11C890.947 426.576 891.898 426.296 892.868 426.304C893.51 426.304 894.145 426.431 894.737 426.677C895.329 426.924 895.866 427.285 896.318 427.741C896.77 428.196 897.127 428.736 897.369 429.33C897.61 429.924 897.732 430.56 897.727 431.202Z" fill="white"/>
<path d="M918.674 431.202C918.674 432.172 918.385 433.121 917.845 433.927C917.305 434.734 916.538 435.361 915.641 435.731C914.743 436.1 913.756 436.195 912.805 436.003C911.854 435.811 910.981 435.34 910.298 434.651C909.614 433.962 909.151 433.086 908.967 432.133C908.782 431.18 908.885 430.194 909.262 429.3C909.638 428.405 910.272 427.643 911.083 427.11C911.894 426.576 912.845 426.296 913.815 426.304C914.457 426.304 915.092 426.431 915.684 426.677C916.276 426.924 916.813 427.285 917.265 427.741C917.716 428.196 918.073 428.736 918.315 429.33C918.557 429.924 918.679 430.56 918.674 431.202Z" fill="white"/>
<path d="M939.82 431.202C939.82 432.172 939.531 433.121 938.991 433.927C938.451 434.734 937.684 435.361 936.787 435.731C935.889 436.1 934.902 436.195 933.951 436.003C933 435.811 932.127 435.34 931.444 434.651C930.76 433.962 930.297 433.086 930.113 432.133C929.928 431.18 930.031 430.194 930.408 429.3C930.784 428.405 931.418 427.643 932.229 427.11C933.04 426.576 933.991 426.296 934.961 426.304C935.603 426.304 936.238 426.431 936.83 426.677C937.422 426.924 937.959 427.285 938.411 427.741C938.862 428.196 939.22 428.736 939.461 429.33C939.703 429.924 939.825 430.56 939.82 431.202Z" fill="white"/>
<path d="M1867.17 729.674H1402.6L1436.93 398.706H1905.48L1867.17 729.674Z" fill="#263238"/>
<path d="M1843.52 729.674H1378.95L1413.31 398.706H1881.83L1843.52 729.674Z" fill="#455A64"/>
<path d="M1826.32 714.661H1395.23L1427.09 407.587H1861.84L1826.32 714.661Z" fill="#EBEBEB"/>
<path d="M1442.18 658.829C1441.63 658.829 1445.93 612.555 1451.78 555.648C1457.64 498.741 1462.89 452.627 1463.45 452.706C1464.01 452.786 1459.71 498.941 1453.85 555.887C1448 612.834 1442.74 658.869 1442.18 658.829Z" fill="#263238"/>
<path d="M1520.68 462.98C1506.28 464.361 1491.78 464.361 1477.39 462.98C1491.78 461.547 1506.28 461.547 1520.68 462.98Z" fill="#263238"/>
<path d="M1704.82 462.981C1704.82 463.538 1666.23 464.016 1618.6 464.016C1570.97 464.016 1532.42 463.538 1532.42 462.981C1532.42 462.423 1571.01 461.905 1618.6 461.905C1666.19 461.905 1704.82 462.383 1704.82 462.981Z" fill="#D4F600"/>
<path d="M1515.58 572.095C1501.18 573.476 1486.69 573.476 1472.29 572.095C1486.69 570.715 1501.18 570.715 1515.58 572.095Z" fill="#263238"/>
<path d="M1699.72 572.095C1699.72 572.653 1661.09 573.131 1613.5 573.131C1565.91 573.131 1527.33 572.653 1527.33 572.095C1527.33 571.538 1565.91 571.06 1613.5 571.06C1661.09 571.06 1699.72 571.538 1699.72 572.095Z" fill="#D4F600"/>
<path d="M1640.98 622.391C1640.98 622.989 1602.39 623.427 1554.8 623.427C1507.22 623.427 1468.59 622.989 1468.59 622.391C1468.59 621.794 1507.18 621.356 1554.8 621.356C1602.43 621.356 1640.98 621.834 1640.98 622.391Z" fill="#D4F600"/>
<path d="M1539.75 493.604C1519.48 494.985 1499.13 494.985 1478.86 493.604C1499.13 492.224 1519.48 492.224 1539.75 493.604Z" fill="#D4F600"/>
<path d="M1538.2 538.923C1517.93 540.356 1497.58 540.356 1477.31 538.923C1497.58 537.542 1517.92 537.542 1538.2 538.923Z" fill="#D4F600"/>
<path d="M1589.69 603.515C1569.42 604.896 1549.07 604.896 1528.8 603.515C1549.07 602.135 1569.42 602.135 1589.69 603.515Z" fill="#D4F600"/>
<path d="M1761.25 493.604C1761.25 494.202 1726.44 494.64 1683.47 494.64C1640.5 494.64 1605.7 494.202 1605.7 493.604C1605.7 493.007 1640.5 492.569 1683.47 492.569C1726.44 492.569 1761.25 493.206 1761.25 493.604Z" fill="#263238"/>
<path d="M1713.26 541.392C1713.26 541.989 1678.41 542.427 1635.48 542.427C1592.56 542.427 1557.71 541.989 1557.71 541.392C1557.71 540.794 1592.52 540.356 1635.48 540.356C1678.45 540.356 1713.26 540.994 1713.26 541.392Z" fill="#263238"/>
<path d="M1766.78 603.515C1766.78 604.073 1731.94 604.551 1689.01 604.551C1646.08 604.551 1611.23 604.073 1611.23 603.515C1611.23 602.958 1646.04 602.48 1689.01 602.48C1731.98 602.48 1766.78 602.918 1766.78 603.515Z" fill="#263238"/>
<path d="M1624.77 658.829C1624.77 659.387 1589.97 659.865 1547 659.865C1504.03 659.865 1469.22 659.387 1469.22 658.829C1469.22 658.272 1504.07 657.794 1547 657.794C1589.93 657.794 1624.77 658.272 1624.77 658.829Z" fill="#263238"/>
<path d="M1796.77 658.829C1796.77 659.387 1761.92 659.865 1718.99 659.865C1676.06 659.865 1641.22 659.387 1641.22 658.829C1641.22 658.272 1676.02 657.794 1718.99 657.794C1761.96 657.794 1796.77 658.272 1796.77 658.829Z" fill="#263238"/>
<path d="M1624.77 676.789C1624.77 677.347 1589.97 677.825 1547 677.825C1504.03 677.825 1469.22 677.347 1469.22 676.789C1469.22 676.232 1504.03 675.754 1547 675.754C1589.97 675.754 1624.77 676.272 1624.77 676.789Z" fill="#263238"/>
<path d="M1632.3 506.746C1632.3 507.303 1597.49 507.781 1554.53 507.781C1511.56 507.781 1476.75 507.303 1476.75 506.746C1476.75 506.188 1511.56 505.71 1554.53 505.71C1597.49 505.71 1632.3 506.188 1632.3 506.746Z" fill="#263238"/>
<path d="M1590.8 493.923C1577.49 495.303 1564.06 495.303 1550.74 493.923C1564.06 492.542 1577.49 492.542 1590.8 493.923Z" fill="#455A64"/>
<path d="M1510.48 586.909C1497.16 588.29 1483.74 588.29 1470.42 586.909C1483.74 585.529 1497.16 585.529 1510.48 586.909Z" fill="#455A64"/>
<path d="M1509.53 603.515C1496.21 604.896 1482.78 604.896 1469.46 603.515C1482.78 602.135 1496.21 602.135 1509.53 603.515Z" fill="#455A64"/>
<path d="M1856.66 435.742C1856.66 436.339 1759.73 436.777 1640.14 436.777C1520.56 436.777 1423.63 436.339 1423.63 435.742C1423.63 435.144 1520.56 434.706 1640.14 434.706C1759.73 434.706 1856.66 435.184 1856.66 435.742Z" fill="#263238"/>
<path d="M1457.95 421.127C1457.95 422.143 1457.65 423.136 1457.09 423.981C1456.52 424.826 1455.72 425.484 1454.78 425.873C1453.84 426.262 1452.81 426.363 1451.82 426.165C1450.82 425.967 1449.9 425.478 1449.19 424.759C1448.47 424.041 1447.98 423.125 1447.78 422.129C1447.58 421.132 1447.68 420.099 1448.07 419.161C1448.46 418.222 1449.12 417.42 1449.96 416.855C1450.81 416.291 1451.8 415.989 1452.82 415.989C1453.49 415.984 1454.16 416.113 1454.79 416.37C1455.42 416.626 1455.98 417.004 1456.46 417.482C1456.94 417.96 1457.32 418.529 1457.57 419.154C1457.83 419.78 1457.96 420.451 1457.95 421.127Z" fill="white"/>
<path d="M1479.98 421.127C1479.98 422.143 1479.68 423.136 1479.11 423.981C1478.55 424.826 1477.74 425.484 1476.81 425.873C1475.87 426.262 1474.83 426.363 1473.84 426.165C1472.84 425.967 1471.93 425.478 1471.21 424.759C1470.49 424.041 1470 423.125 1469.8 422.129C1469.6 421.132 1469.7 420.099 1470.09 419.161C1470.48 418.222 1471.14 417.42 1471.99 416.855C1472.83 416.291 1473.82 415.989 1474.84 415.989C1475.52 415.984 1476.19 416.113 1476.81 416.37C1477.44 416.626 1478.01 417.004 1478.48 417.482C1478.96 417.96 1479.34 418.529 1479.6 419.154C1479.85 419.78 1479.98 420.451 1479.98 421.127Z" fill="white"/>
<path d="M1502.04 421.127C1502.04 422.143 1501.74 423.136 1501.17 423.981C1500.61 424.826 1499.81 425.484 1498.87 425.873C1497.93 426.262 1496.9 426.363 1495.9 426.165C1494.9 425.967 1493.99 425.478 1493.27 424.759C1492.55 424.041 1492.06 423.125 1491.86 422.129C1491.66 421.132 1491.77 420.099 1492.16 419.161C1492.54 418.222 1493.2 417.42 1494.05 416.855C1494.89 416.291 1495.89 415.989 1496.9 415.989C1497.58 415.984 1498.25 416.113 1498.87 416.37C1499.5 416.626 1500.07 417.004 1500.55 417.482C1501.02 417.96 1501.4 418.529 1501.66 419.154C1501.91 419.78 1502.04 420.451 1502.04 421.127Z" fill="white"/>
<path d="M1602.11 337.897H1158.45L1191.26 21.8627H1638.67L1602.11 337.897Z" fill="#263238"/>
<path d="M1579.53 337.897H1135.87L1168.68 21.8627H1616.09L1579.53 337.897Z" fill="#455A64"/>
<path d="M1563.05 323.6H1151.4L1181.82 30.345H1596.98L1563.05 323.6Z" fill="#FAFAFA"/>
<path d="M1196.64 274.579C1196.08 274.579 1200.18 230.375 1205.8 176.057C1211.41 121.738 1216.39 77.6545 1216.99 77.7342C1217.58 77.8138 1213.44 121.898 1207.83 176.256C1202.21 230.614 1197.23 274.579 1196.64 274.579Z" fill="#263238"/>
<path d="M1271.62 87.4111C1257.88 88.7917 1244.03 88.7917 1230.29 87.4111C1244.03 86.0306 1257.88 86.0306 1271.62 87.4111Z" fill="#263238"/>
<path d="M1447.44 87.4112C1447.44 87.9687 1410.61 88.4466 1365.13 88.4466C1319.65 88.4466 1282.81 87.9687 1282.81 87.4112C1282.81 86.8536 1319.65 86.3757 1365.13 86.3757C1410.61 86.3757 1447.44 86.7342 1447.44 87.4112Z" fill="#D4F600"/>
<path d="M1266.73 191.548C1252.98 192.928 1239.13 192.928 1225.39 191.548C1239.13 190.167 1252.98 190.167 1266.73 191.548Z" fill="#263238"/>
<path d="M1442.58 191.548C1442.58 192.105 1405.71 192.583 1360.27 192.583C1314.83 192.583 1277.96 192.105 1277.96 191.548C1277.96 190.99 1314.79 190.513 1360.27 190.513C1405.75 190.513 1442.58 190.951 1442.58 191.548Z" fill="#D4F600"/>
<path d="M1386.51 239.574C1386.51 240.132 1349.64 240.61 1304.2 240.61C1258.76 240.61 1221.88 240.132 1221.88 239.574C1221.88 239.017 1258.72 238.539 1304.2 238.539C1349.68 238.539 1386.51 239.017 1386.51 239.574Z" fill="#D4F600"/>
<path d="M1289.82 116.761C1270.47 118.141 1251.04 118.141 1231.68 116.761C1251.04 115.38 1270.47 115.38 1289.82 116.761Z" fill="#D4F600"/>
<path d="M1288.35 159.889C1268.99 161.269 1249.56 161.269 1230.21 159.889C1249.56 158.508 1268.99 158.508 1288.35 159.889Z" fill="#D4F600"/>
<path d="M1337.49 221.535C1318.13 222.915 1298.71 222.915 1279.35 221.535C1298.71 220.154 1318.13 220.154 1337.49 221.535Z" fill="#D4F600"/>
<path d="M1501.32 116.761C1501.32 117.318 1468.07 117.796 1427.05 117.796C1386.03 117.796 1352.78 117.318 1352.78 116.761C1352.78 116.203 1385.99 115.725 1427.05 115.725C1468.11 115.725 1501.32 116.163 1501.32 116.761Z" fill="#263238"/>
<path d="M1455.49 162.398C1455.49 162.955 1422.23 163.433 1381.22 163.433C1340.2 163.433 1306.95 162.955 1306.95 162.398C1306.95 161.84 1340.2 161.362 1381.22 161.362C1422.23 161.362 1455.49 161.8 1455.49 162.398Z" fill="#263238"/>
<path d="M1506.62 221.535C1506.62 222.092 1473.37 222.57 1432.35 222.57C1391.33 222.57 1358.08 222.092 1358.08 221.535C1358.08 220.977 1391.33 220.499 1432.35 220.499C1473.37 220.499 1506.62 220.937 1506.62 221.535Z" fill="#263238"/>
<path d="M1370.98 274.579C1370.98 275.136 1337.73 275.614 1296.71 275.614C1255.69 275.614 1222.56 274.937 1222.56 274.579C1222.56 274.22 1255.81 273.543 1296.83 273.543C1337.85 273.543 1370.98 273.782 1370.98 274.579Z" fill="#263238"/>
<path d="M1535.25 274.579C1535.25 275.136 1502 275.614 1460.98 275.614C1419.96 275.614 1386.71 275.136 1386.71 274.579C1386.71 274.021 1419.96 273.543 1460.98 273.543C1502 273.543 1535.25 273.782 1535.25 274.579Z" fill="#263238"/>
<path d="M1370.98 291.543C1370.98 292.14 1337.73 292.579 1296.71 292.579C1255.69 292.579 1222.44 292.14 1222.44 291.543C1222.44 290.946 1255.69 290.508 1296.71 290.508C1337.73 290.508 1370.98 290.986 1370.98 291.543Z" fill="#263238"/>
<path d="M1378.19 129.146C1378.19 129.703 1344.94 130.181 1303.92 130.181C1262.9 130.181 1229.65 129.703 1229.65 129.146C1229.65 128.588 1262.9 128.11 1303.92 128.11C1344.94 128.11 1378.19 128.548 1378.19 129.146Z" fill="#263238"/>
<path d="M1338.61 116.92C1325.89 118.3 1313.06 118.3 1300.34 116.92C1313.06 115.539 1325.89 115.539 1338.61 116.92Z" fill="#455A64"/>
<path d="M1261.87 205.685C1249.15 207.066 1236.32 207.066 1223.6 205.685C1236.32 204.304 1249.15 204.304 1261.87 205.685Z" fill="#455A64"/>
<path d="M1260.99 221.535C1248.27 222.915 1235.44 222.915 1222.72 221.535C1235.44 220.154 1248.27 220.154 1260.99 221.535Z" fill="#455A64"/>
<path d="M1592.44 61.3272C1592.44 61.9245 1499.89 62.4024 1385.72 62.4024C1271.54 62.4024 1178.76 61.9245 1178.76 61.3272C1178.76 60.7298 1271.3 60.2918 1385.56 60.2918C1499.81 60.2918 1592.44 60.7696 1592.44 61.3272Z" fill="#263238"/>
<path d="M1206.83 52.2476C1209.54 52.2476 1211.73 50.0546 1211.73 47.3494C1211.73 44.6442 1209.54 42.4511 1206.83 42.4511C1204.13 42.4511 1201.93 44.6442 1201.93 47.3494C1201.93 50.0546 1204.13 52.2476 1206.83 52.2476Z" fill="white"/>
<path d="M1227.86 52.2476C1230.56 52.2476 1232.76 50.0546 1232.76 47.3494C1232.76 44.6442 1230.56 42.4511 1227.86 42.4511C1225.15 42.4511 1222.96 44.6442 1222.96 47.3494C1222.96 50.0546 1225.15 52.2476 1227.86 52.2476Z" fill="white"/>
<path d="M1248.88 52.2476C1251.59 52.2476 1253.78 50.0546 1253.78 47.3494C1253.78 44.6442 1251.59 42.4511 1248.88 42.4511C1246.18 42.4511 1243.99 44.6442 1243.99 47.3494C1243.99 50.0546 1246.18 52.2476 1248.88 52.2476Z" fill="white"/>
<path d="M850.537 1531.75H815.97V1578.9H850.537V1531.75Z" fill="#263238"/>
<path d="M1035.83 981.554H1342.51V966.62H1035.83V981.554Z" fill="#263238"/>
<path d="M1390.02 981.554L1447.56 765.993H1208.07L1155.98 981.554H1390.02Z" fill="#263238"/>
<path d="M1170.35 965.266H1384.28L1434.06 775.948H1219.02L1170.35 965.266Z" fill="#F5F5F5"/>
<path d="M1224.35 812.625L1211.09 866.227H1352.94L1368.07 812.625H1224.35Z" fill="#E0E0E0"/>
<path d="M1338.05 805.537C1338.05 806.134 1313.2 806.572 1282.5 806.572C1251.79 806.572 1226.94 806.134 1226.94 805.537C1226.94 804.939 1251.79 804.501 1282.5 804.501C1313.2 804.501 1338.05 804.979 1338.05 805.537Z" fill="#455A64"/>
<path d="M1273.5 822.86C1258.59 824.24 1243.6 824.24 1228.69 822.86C1243.6 821.48 1258.59 821.48 1273.5 822.86Z" fill="#263238"/>
<path d="M1309.42 822.023C1299.75 823.404 1289.93 823.404 1280.27 822.023C1289.93 820.643 1299.75 820.643 1309.42 822.023Z" fill="#263238"/>
<path d="M1350 832.576C1350 833.174 1322.56 833.652 1288.71 833.652C1254.86 833.652 1227.42 833.174 1227.42 832.576C1227.42 831.979 1254.86 831.541 1288.71 831.541C1322.56 831.541 1350 832.099 1350 832.576Z" fill="#455A64"/>
<path d="M1264.61 841.457C1251.38 842.846 1238.03 842.846 1224.79 841.457C1238.03 840.068 1251.38 840.068 1264.61 841.457Z" fill="#D4F600"/>
<path d="M1339 854.16C1339 854.718 1313.56 855.196 1282.18 855.196C1250.8 855.196 1225.31 854.718 1225.31 854.16C1225.31 853.603 1250.76 853.125 1282.18 853.125C1313.6 853.125 1339 853.563 1339 854.16Z" fill="#455A64"/>
<path d="M1255.34 881.598C1240.77 882.969 1226.1 882.969 1211.53 881.598C1226.1 880.228 1240.77 880.228 1255.34 881.598Z" fill="#455A64"/>
<path d="M1292.93 881.797C1287.99 882.762 1282.94 883.069 1277.92 882.713C1272.89 883.02 1267.85 882.618 1262.94 881.519C1267.88 880.555 1272.93 880.247 1277.96 880.603C1282.98 880.296 1288.02 880.698 1292.93 881.797Z" fill="#263238"/>
<path d="M1314.15 880.762C1314.15 881.359 1311.29 881.798 1307.78 881.798C1304.28 881.798 1301.45 881.359 1301.45 880.762C1301.45 880.165 1304.32 879.727 1307.78 879.727C1311.25 879.727 1314.15 880.205 1314.15 880.762Z" fill="#263238"/>
<path d="M1226.19 892.59C1226.19 893.187 1223.04 893.625 1219.18 893.625C1215.31 893.625 1212.21 893.187 1212.21 892.59C1212.21 891.992 1215.35 891.554 1219.18 891.554C1223 891.554 1226.19 892.032 1226.19 892.59Z" fill="#D4F600"/>
<path d="M1268 892.59C1256.92 893.97 1245.71 893.97 1234.63 892.59C1245.71 891.209 1256.92 891.209 1268 892.59Z" fill="#263238"/>
<path d="M1367.72 891.315C1367.72 891.912 1347.8 892.351 1323.15 892.351C1298.5 892.351 1278.55 891.912 1278.55 891.315C1278.55 890.718 1298.46 890.28 1323.15 890.28C1347.84 890.28 1367.72 890.758 1367.72 891.315Z" fill="#455A64"/>
<path d="M1224.04 904.019C1224.04 904.576 1220.85 905.054 1216.87 905.054C1212.89 905.054 1209.7 904.576 1209.7 904.019C1209.7 903.461 1212.89 902.983 1216.87 902.983C1220.85 902.983 1224.04 903.421 1224.04 904.019Z" fill="#263238"/>
<path d="M1246.02 903.78C1243.26 904.806 1240.3 905.161 1237.38 904.815C1234.44 905.159 1231.47 904.804 1228.69 903.78C1231.47 902.778 1234.44 902.424 1237.38 902.744C1240.3 902.422 1243.25 902.776 1246.02 903.78Z" fill="#263238"/>
<path d="M1311.53 902.744C1292.82 904.125 1274.04 904.125 1255.34 902.744C1274.04 901.364 1292.82 901.364 1311.53 902.744Z" fill="#455A64"/>
<path d="M1276.88 922.616C1265.57 923.64 1254.22 923.986 1242.87 923.651C1231.52 923.987 1220.17 923.642 1208.86 922.616C1220.17 921.566 1231.52 921.221 1242.87 921.581C1254.22 921.222 1265.58 921.568 1276.88 922.616Z" fill="#455A64"/>
<path d="M1316.58 921.74C1306.36 923.121 1295.99 923.121 1285.76 921.74C1295.99 920.359 1306.36 920.359 1316.58 921.74Z" fill="#D4F600"/>
<path d="M1375.56 921.74C1358.55 923.12 1341.44 923.12 1324.43 921.74C1341.44 920.359 1358.55 920.359 1375.56 921.74Z" fill="#263238"/>
<path d="M1361.94 804.7C1361.94 805.298 1359.55 805.736 1356.65 805.736C1353.74 805.736 1351.35 805.298 1351.35 804.7C1351.35 804.103 1353.74 803.665 1356.65 803.665C1359.55 803.665 1361.94 804.223 1361.94 804.7Z" fill="#263238"/>
<path d="M1254.06 797.532C1246.37 798.913 1238.5 798.913 1230.81 797.532C1238.5 796.152 1246.37 796.152 1254.06 797.532Z" fill="#D4F600"/>
<path d="M1430.48 789.568H1215.43L1219.06 775.948H1434.1L1430.48 789.568Z" fill="#EBEBEB"/>
<path d="M1228.1 785.187C1229.4 785.187 1230.45 784.135 1230.45 782.838C1230.45 781.54 1229.4 780.488 1228.1 780.488C1226.8 780.488 1225.75 781.54 1225.75 782.838C1225.75 784.135 1226.8 785.187 1228.1 785.187Z" fill="#FAFAFA"/>
<path d="M1236.18 785.187C1237.48 785.187 1238.53 784.135 1238.53 782.838C1238.53 781.54 1237.48 780.488 1236.18 780.488C1234.88 780.488 1233.83 781.54 1233.83 782.838C1233.83 784.135 1234.88 785.187 1236.18 785.187Z" fill="#FAFAFA"/>
<path d="M1244.27 785.187C1245.56 785.187 1246.61 784.135 1246.61 782.838C1246.61 781.54 1245.56 780.488 1244.27 780.488C1242.97 780.488 1241.92 781.54 1241.92 782.838C1241.92 784.135 1242.97 785.187 1244.27 785.187Z" fill="#FAFAFA"/>
<path d="M1692.55 1001.62H1182.66V1299.14H1692.55V1001.62Z" fill="#263238"/>
<path d="M1414.95 1001.62H1182.66V1299.14H1414.95V1001.62Z" fill="#455A64"/>
<path d="M1391.29 1102.66C1391.23 1102.15 1391.23 1101.64 1391.29 1101.14V1096.8C1391.29 1092.82 1391.29 1087.36 1391.09 1080.27C1391.09 1065.9 1390.85 1045.35 1390.69 1020.02L1391.45 1020.78L1204.6 1021.06L1205.64 1020.02V1041.49C1205.64 1048.58 1205.64 1055.62 1205.64 1062.51C1205.64 1076.33 1205.64 1089.75 1205.64 1102.58L1204.68 1101.62L1338.53 1102.06L1377.39 1102.34H1387.83H1390.57H1391.53H1390.69H1388.07H1377.83L1339.16 1102.58L1204.68 1103.05H1203.69V1102.06C1203.69 1089.23 1203.69 1075.81 1203.69 1062V1020.1L1204.72 1019.07L1391.57 1019.35H1392.33V1020.1C1392.13 1045.63 1392.01 1066.34 1391.89 1080.79C1391.89 1087.8 1391.89 1093.3 1391.89 1097.16V1101.38C1391.33 1102.22 1391.29 1102.89 1391.29 1102.66Z" fill="#263238"/>
<path d="M1305.79 1061.36C1305.27 1059.1 1304.01 1057.08 1302.21 1055.62C1301.24 1054.95 1300.12 1054.52 1298.95 1054.37C1297.77 1054.22 1296.58 1054.37 1295.48 1054.79C1294.15 1055.3 1293 1056.2 1292.19 1057.37C1291.38 1058.55 1290.95 1059.93 1290.94 1061.36C1290.96 1062.78 1291.4 1064.16 1292.21 1065.33C1293.02 1066.51 1294.15 1067.41 1295.48 1067.93C1296.59 1068.33 1297.78 1068.47 1298.95 1068.31C1300.12 1068.16 1301.24 1067.73 1302.21 1067.05C1304 1065.58 1305.26 1063.57 1305.79 1061.32C1305.79 1061.32 1306.15 1062.04 1305.79 1063.35C1305.47 1065.26 1304.47 1066.99 1302.96 1068.21C1301.82 1069.14 1300.46 1069.76 1299.01 1070.02C1297.56 1070.28 1296.07 1070.16 1294.68 1069.68C1292.94 1069.08 1291.43 1067.96 1290.35 1066.46C1289.28 1064.96 1288.71 1063.16 1288.71 1061.32C1288.71 1059.48 1289.28 1057.68 1290.35 1056.18C1291.43 1054.68 1292.94 1053.55 1294.68 1052.96C1296.07 1052.47 1297.56 1052.35 1299.01 1052.6C1300.46 1052.85 1301.82 1053.47 1302.96 1054.39C1304.47 1055.61 1305.47 1057.34 1305.79 1059.25C1306.19 1060.64 1305.91 1061.36 1305.79 1061.36Z" fill="#263238"/>
<path d="M1391.29 1193.65C1391.24 1193.13 1391.24 1192.61 1391.29 1192.1V1187.76C1391.29 1183.77 1391.29 1178.32 1391.09 1171.23C1391.09 1156.89 1390.85 1136.35 1390.69 1110.98L1391.45 1111.73L1204.6 1112.05L1205.64 1111.02V1132.48C1205.64 1139.61 1205.64 1146.62 1205.64 1153.55C1205.64 1167.37 1205.64 1180.79 1205.64 1193.61L1204.68 1192.61L1338.53 1193.09L1377.39 1193.37H1387.83H1390.57H1391.53H1390.69H1388.07H1377.83L1339.16 1193.65L1204.68 1194.13H1203.69V1193.13C1203.69 1180.31 1203.69 1166.89 1203.69 1153.07V1111.06C1203.45 1111.06 1205.64 1109.07 1204.72 1109.98L1391.57 1110.3H1392.33V1110.86C1392.13 1136.42 1392.01 1157.13 1391.89 1171.59C1391.89 1178.6 1391.89 1184.05 1391.89 1187.96V1192.14C1391.33 1193.21 1391.29 1193.69 1391.29 1193.65Z" fill="#263238"/>
<path d="M1305.79 1152.31C1305.23 1150.11 1303.97 1148.14 1302.21 1146.7C1301.15 1145.94 1299.9 1145.49 1298.6 1145.39C1297.3 1145.29 1296 1145.56 1294.83 1146.15C1293.67 1146.74 1292.69 1147.64 1292.01 1148.75C1291.32 1149.85 1290.95 1151.13 1290.94 1152.43C1290.95 1153.86 1291.38 1155.25 1292.19 1156.42C1293 1157.59 1294.15 1158.49 1295.48 1159C1296.58 1159.42 1297.77 1159.57 1298.95 1159.42C1300.12 1159.28 1301.24 1158.85 1302.21 1158.17C1304 1156.71 1305.26 1154.69 1305.79 1152.43C1305.79 1152.43 1306.15 1153.15 1305.79 1154.46C1305.47 1156.37 1304.47 1158.1 1302.96 1159.32C1301.82 1160.25 1300.46 1160.88 1299.01 1161.14C1297.56 1161.39 1296.07 1161.28 1294.68 1160.8C1292.94 1160.2 1291.43 1159.07 1290.35 1157.57C1289.28 1156.07 1288.71 1154.28 1288.71 1152.43C1288.71 1150.59 1289.28 1148.79 1290.35 1147.3C1291.43 1145.8 1292.94 1144.67 1294.68 1144.07C1296.07 1143.59 1297.56 1143.47 1299.01 1143.73C1300.46 1143.99 1301.82 1144.61 1302.96 1145.54C1304.47 1146.77 1305.47 1148.49 1305.79 1150.4C1306.19 1151.6 1305.91 1152.31 1305.79 1152.31Z" fill="#263238"/>
<path d="M1391.29 1284.61C1391.23 1284.1 1391.23 1283.6 1391.29 1283.09V1278.75C1391.29 1274.77 1391.29 1269.31 1391.09 1262.23C1391.09 1247.85 1390.85 1227.3 1390.69 1201.97L1391.45 1202.73L1204.6 1203.01L1205.64 1201.97V1223.44C1205.64 1230.53 1205.64 1237.57 1205.64 1244.46C1205.64 1258.28 1205.64 1271.7 1205.64 1284.53L1204.68 1283.57L1338.53 1284.01L1377.39 1284.29H1387.83H1390.57H1391.53H1390.69H1388.07H1377.83L1339.16 1284.53L1204.68 1285H1203.69V1284.01C1203.69 1271.19 1203.69 1257.77 1203.69 1243.95V1202.05L1204.72 1201.02L1391.57 1201.3H1392.33V1202.05C1392.13 1227.58 1392.01 1248.29 1391.89 1262.74C1391.89 1269.75 1391.89 1275.25 1391.89 1279.11V1283.33C1391.33 1284.17 1391.29 1284.65 1391.29 1284.61Z" fill="#263238"/>
<path d="M1305.79 1243.31C1305.27 1241.05 1304.01 1239.03 1302.21 1237.57C1301.24 1236.9 1300.12 1236.47 1298.95 1236.32C1297.77 1236.18 1296.58 1236.32 1295.48 1236.74C1294.15 1237.25 1293 1238.15 1292.19 1239.32C1291.38 1240.5 1290.95 1241.88 1290.94 1243.31C1290.95 1244.61 1291.32 1245.89 1292.01 1247C1292.69 1248.11 1293.67 1249 1294.83 1249.6C1296 1250.19 1297.3 1250.45 1298.6 1250.35C1299.9 1250.25 1301.15 1249.8 1302.21 1249.04C1304 1247.58 1305.26 1245.56 1305.79 1243.31C1305.79 1243.31 1306.15 1244.03 1305.79 1245.34C1305.47 1247.25 1304.47 1248.98 1302.96 1250.2C1301.82 1251.13 1300.46 1251.75 1299.01 1252.01C1297.56 1252.27 1296.07 1252.15 1294.68 1251.67C1292.94 1251.07 1291.43 1249.95 1290.35 1248.45C1289.28 1246.95 1288.71 1245.15 1288.71 1243.31C1288.71 1241.47 1289.28 1239.67 1290.35 1238.17C1291.43 1236.67 1292.94 1235.54 1294.68 1234.95C1296.07 1234.46 1297.56 1234.34 1299.01 1234.59C1300.46 1234.84 1301.82 1235.46 1302.96 1236.38C1304.47 1237.6 1305.47 1239.33 1305.79 1241.24C1306.19 1242.59 1305.91 1243.31 1305.79 1243.31Z" fill="#263238"/>
<path d="M843.09 1541.3L502.326 1541.03V1001.62H843.09V1541.3Z" fill="#263238"/>
<path d="M1711.07 980.877H485.879V1009.15H1711.07V980.877Z" fill="#263238"/>
<path d="M540.317 1009.15H502.326V1581.41H540.317V1009.15Z" fill="#263238"/>
<path d="M1692.55 1009.15H1654.56V1581.56H1692.55V1009.15Z" fill="#263238"/>
<path d="M1452.94 1009.15H1414.95V1581.56H1452.94V1009.15Z" fill="#263238"/>
<path d="M658.153 980.877C658.153 981.434 621.635 981.912 576.595 981.912C531.556 981.912 495.038 981.434 495.038 980.877C495.038 980.319 531.556 979.841 576.595 979.841C621.635 979.841 658.153 980.279 658.153 980.877Z" fill="#455A64"/>
<path d="M1016.4 1553.53L1017.35 1512.63L940.696 1510.32L938.665 1570.06L943.404 1570.49C964.51 1572.33 1050.93 1578.22 1065.14 1574.48C1081.07 1570.18 1016.4 1553.53 1016.4 1553.53Z" fill="#D4F600"/>
<g opacity="0.4">
<path d="M1047.94 1562.81C1047.94 1562.81 1070.6 1570.06 1067.61 1573.76C1064.62 1577.46 977.134 1574.72 938.665 1570.18V1568.46L1040.73 1572.45C1040.73 1572.45 1043.36 1562.85 1047.94 1562.81Z" fill="white"/>
</g>
<path d="M937.629 1568.38H938.943L942.926 1568.74L956.824 1569.78C968.572 1570.57 984.7 1571.41 1002.78 1572.01C1020.86 1572.6 1037.03 1572.72 1048.81 1572.68C1037.07 1572.68 1020.94 1572.29 1002.82 1571.73C984.7 1571.17 968.612 1570.41 956.864 1569.78L942.926 1569.06H938.943L937.629 1568.38Z" fill="#263238"/>
<path d="M1040.81 1573.64C1041.49 1571.35 1042.44 1569.14 1043.64 1567.07C1045.08 1565.17 1046.72 1563.44 1048.54 1561.89C1046.21 1562.84 1044.23 1564.47 1042.85 1566.57C1041.47 1568.67 1040.76 1571.13 1040.81 1573.64Z" fill="#263238"/>
<path d="M1018.55 1561.49C1018.75 1561.49 1019.9 1560.34 1021.06 1558.63C1022.21 1556.91 1023.01 1555.36 1022.81 1555.24C1022.61 1555.12 1021.46 1556.36 1020.3 1558.11C1019.15 1559.86 1018.35 1561.33 1018.55 1561.49Z" fill="#263238"/>
<path d="M1012.46 1558.03C1012.46 1558.03 1013.85 1557.43 1015.2 1556.28C1016.56 1555.12 1017.51 1554.05 1017.35 1553.85C1017.2 1553.65 1015.96 1554.45 1014.61 1555.6C1013.25 1556.76 1012.3 1557.83 1012.46 1558.03Z" fill="#263238"/>
<path d="M1008.75 1550.66C1010.02 1551.15 1011.38 1551.37 1012.74 1551.3C1014.07 1551.5 1015.43 1551.39 1016.72 1550.98C1015.45 1550.5 1014.09 1550.28 1012.74 1550.34C1010.54 1550.26 1008.75 1550.38 1008.75 1550.66Z" fill="#263238"/>
<path d="M1007.52 1545.53C1008.82 1546.42 1010.36 1546.92 1011.94 1546.96C1013.49 1547.26 1015.1 1547.1 1016.56 1546.48C1015.06 1546.17 1013.54 1546.03 1012.02 1546.04C1010.54 1545.7 1009.03 1545.53 1007.52 1545.53Z" fill="#263238"/>
<path d="M1021.38 1554.88C1023 1555.16 1024.65 1555.16 1026.28 1554.88C1028.07 1554.71 1029.84 1554.37 1031.57 1553.89C1032.62 1553.61 1033.63 1553.23 1034.6 1552.73C1035.2 1552.42 1035.65 1551.9 1035.87 1551.26C1035.97 1550.9 1035.95 1550.52 1035.83 1550.16C1035.71 1549.81 1035.49 1549.5 1035.2 1549.27C1033.34 1548.29 1031.21 1547.98 1029.16 1548.39C1027.1 1548.81 1025.25 1549.92 1023.93 1551.54C1023.14 1552.5 1022.56 1553.61 1022.21 1554.8C1022.13 1555.24 1022.13 1555.68 1022.21 1556.12C1022.78 1554.67 1023.59 1553.32 1024.6 1552.14C1025.74 1550.88 1027.22 1549.98 1028.86 1549.55C1030.83 1548.97 1032.94 1549.17 1034.76 1550.1C1035.51 1550.7 1035.16 1551.62 1034.28 1552.14C1033.38 1552.58 1032.45 1552.94 1031.49 1553.21C1029.81 1553.73 1028.09 1554.13 1026.35 1554.41C1023.45 1554.76 1021.38 1554.72 1021.38 1554.88Z" fill="#263238"/>
<path d="M1022.61 1555.16C1023.25 1554.16 1023.49 1552.95 1023.29 1551.78C1023.18 1550.47 1022.76 1549.21 1022.05 1548.11C1021.67 1547.37 1021.1 1546.75 1020.4 1546.29C1019.7 1545.83 1018.9 1545.55 1018.07 1545.49C1017.57 1545.57 1017.12 1545.86 1016.82 1546.27C1016.52 1546.69 1016.4 1547.21 1016.48 1547.72C1016.58 1548.51 1016.85 1549.27 1017.28 1549.95C1017.87 1551.05 1018.62 1552.07 1019.51 1552.97C1020.25 1553.88 1021.19 1554.6 1022.25 1555.08C1022.25 1555.08 1021.3 1554.17 1019.98 1552.53C1019.23 1551.61 1018.57 1550.61 1018.03 1549.55C1017.39 1548.47 1016.96 1546.6 1018.23 1546.4C1019.51 1546.2 1020.66 1547.6 1021.38 1548.59C1022.05 1549.57 1022.5 1550.68 1022.69 1551.86C1022.78 1552.96 1022.75 1554.07 1022.61 1555.16Z" fill="#263238"/>
<path d="M939.82 1547.44C939.82 1547.64 942.05 1547.44 945.474 1547.83C949.982 1548.45 954.221 1550.34 957.692 1553.28C961.163 1556.22 963.721 1560.09 965.067 1564.44C965.584 1566.26 966.01 1568.11 966.342 1569.98C966.444 1569.46 966.444 1568.94 966.342 1568.42C966.206 1567.08 965.966 1565.75 965.625 1564.44C964.391 1559.89 961.803 1555.82 958.205 1552.77C954.607 1549.72 950.168 1547.83 945.474 1547.36C944.071 1547.21 942.657 1547.21 941.253 1547.36C940.774 1547.33 940.292 1547.35 939.82 1547.44Z" fill="#263238"/>
<path d="M948.74 1515.78C948.069 1521 947.684 1526.25 947.585 1531.51C947.219 1536.81 947.152 1542.13 947.386 1547.44C948.059 1542.22 948.445 1536.97 948.541 1531.71C948.932 1526.41 948.998 1521.09 948.74 1515.78Z" fill="#263238"/>
<path d="M976.337 1563.21C979.973 1564.18 983.722 1564.68 987.488 1564.68C991.24 1564.97 995.013 1564.78 998.718 1564.12C998.718 1563.84 993.7 1564.12 987.528 1563.76C981.355 1563.41 976.377 1562.97 976.337 1563.21Z" fill="#263238"/>
<path d="M961.324 1562.73C961.324 1562.73 961.682 1563.8 962.16 1564.96C962.638 1566.11 962.877 1567.19 963.156 1567.15C963.435 1567.11 963.594 1565.95 963.156 1564.64C962.718 1563.33 961.483 1562.57 961.324 1562.73Z" fill="#263238"/>
<path d="M955.749 1555.52C955.749 1555.52 956.028 1556.52 956.784 1557.35C957.541 1558.19 958.337 1558.71 958.536 1558.51C958.736 1558.31 958.258 1557.55 957.461 1556.72C956.665 1555.88 956.067 1555.36 955.749 1555.52Z" fill="#263238"/>
<path d="M947.784 1552.06C947.784 1552.33 948.859 1552.33 949.974 1552.77C951.089 1553.21 951.886 1553.81 952.085 1553.65C952.284 1553.49 951.687 1552.41 950.293 1551.9C948.899 1551.38 947.784 1551.82 947.784 1552.06Z" fill="#263238"/>
<path d="M942.129 1550.34C942.129 1550.58 942.488 1550.98 943.085 1551.26C943.683 1551.54 944.32 1551.54 944.399 1551.26C944.479 1550.98 944.081 1550.58 943.444 1550.34C942.806 1550.1 942.249 1550.1 942.129 1550.34Z" fill="#263238"/>
<g opacity="0.3">
<path d="M939.979 1545.41L1016.6 1546.48L1016.76 1537.24L939.541 1540.51L939.979 1545.41Z" fill="black"/>
</g>
<path d="M1137.3 1559.9V1518.96L1060.6 1518.68L1060.16 1578.42L1064.9 1578.74C1086.05 1579.97 1172.42 1583.6 1186.72 1579.37C1202.41 1574.79 1137.3 1559.9 1137.3 1559.9Z" fill="#D4F600"/>
<g opacity="0.4">
<path d="M1169.08 1568.3C1169.08 1568.3 1191.9 1574.99 1188.99 1578.74C1186.08 1582.48 1098.59 1582.12 1060 1578.74V1577.02L1162.11 1578.34C1162.11 1578.34 1164.62 1568.5 1169.08 1568.3Z" fill="white"/>
</g>
<path d="M1058.97 1576.79H1060.28L1064.07 1577.02L1078.01 1577.7C1089.75 1578.18 1105.88 1578.62 1124 1578.7C1142.12 1578.78 1158.25 1578.7 1170.04 1578.18L1183.97 1577.66L1187.76 1577.42H1189.07H1183.97L1170.04 1577.62C1158.09 1577.62 1141.96 1577.98 1124 1577.9C1106.04 1577.82 1089.79 1577.46 1078.01 1577.18L1064.07 1576.79H1058.97Z" fill="#263238"/>
<path d="M1162.27 1579.37C1162.87 1577.06 1163.75 1574.82 1164.9 1572.72C1166.28 1570.77 1167.88 1568.98 1169.68 1567.39C1167.28 1568.26 1165.29 1569.99 1164.1 1572.25C1162.62 1574.31 1161.96 1576.85 1162.27 1579.37Z" fill="#263238"/>
<path d="M1139.69 1567.79C1139.89 1567.79 1140.96 1566.59 1142.12 1564.84C1143.27 1563.09 1143.95 1561.57 1143.75 1561.41C1143.55 1561.26 1142.44 1562.61 1141.32 1564.36C1140.21 1566.11 1139.45 1567.63 1139.69 1567.79Z" fill="#263238"/>
<path d="M1133.48 1564.48C1133.48 1564.48 1134.87 1563.84 1136.19 1562.69C1137.5 1561.53 1138.46 1560.38 1138.3 1560.18C1138.14 1559.98 1136.9 1560.82 1135.59 1561.97C1134.27 1563.13 1133.32 1564.28 1133.48 1564.48Z" fill="#263238"/>
<path d="M1129.58 1557.23C1130.85 1557.68 1132.21 1557.86 1133.56 1557.75C1134.9 1557.91 1136.26 1557.78 1137.54 1557.35C1137.54 1557.07 1135.79 1556.83 1133.56 1556.83C1131.33 1556.83 1129.58 1556.87 1129.58 1557.23Z" fill="#263238"/>
<path d="M1128.26 1552.1C1129.58 1552.97 1131.14 1553.43 1132.72 1553.41C1134.29 1553.72 1135.91 1553.51 1137.34 1552.81C1135.84 1552.58 1134.32 1552.48 1132.8 1552.49C1131.3 1552.23 1129.78 1552.09 1128.26 1552.1Z" fill="#263238"/>
<path d="M1142.32 1561.1C1143.94 1561.4 1145.6 1561.4 1147.22 1561.1C1149.01 1560.9 1150.77 1560.51 1152.47 1559.94C1153.53 1559.67 1154.54 1559.27 1155.5 1558.75C1156.09 1558.4 1156.53 1557.85 1156.73 1557.19C1156.81 1556.83 1156.77 1556.45 1156.64 1556.11C1156.51 1555.76 1156.28 1555.46 1155.98 1555.24C1154.1 1554.31 1151.96 1554.06 1149.92 1554.53C1147.88 1555 1146.06 1556.17 1144.79 1557.83C1144.04 1558.81 1143.49 1559.91 1143.16 1561.1C1143.05 1561.54 1143.05 1562 1143.16 1562.45C1143.68 1561.01 1144.45 1559.66 1145.43 1558.47C1146.54 1557.17 1148.01 1556.22 1149.65 1555.72C1151.58 1555.09 1153.68 1555.24 1155.5 1556.16C1156.3 1556.76 1155.98 1557.67 1155.1 1558.19C1154.23 1558.67 1153.31 1559.06 1152.35 1559.34C1150.69 1559.9 1148.98 1560.34 1147.26 1560.66C1144.19 1560.86 1142.32 1560.86 1142.32 1561.1Z" fill="#263238"/>
<path d="M1143.59 1561.37C1144.17 1560.33 1144.37 1559.12 1144.15 1557.95C1144.02 1556.65 1143.56 1555.41 1142.84 1554.33C1142.43 1553.61 1141.85 1553.01 1141.16 1552.58C1140.46 1552.14 1139.67 1551.88 1138.85 1551.82C1138.6 1551.86 1138.37 1551.96 1138.16 1552.1C1137.94 1552.24 1137.76 1552.42 1137.62 1552.63C1137.48 1552.85 1137.38 1553.08 1137.33 1553.33C1137.29 1553.58 1137.29 1553.84 1137.34 1554.09C1137.46 1554.87 1137.74 1555.62 1138.18 1556.28C1138.82 1557.37 1139.59 1558.37 1140.49 1559.26C1142 1560.78 1143.23 1561.37 1143.27 1561.26C1143.31 1561.14 1142.32 1560.38 1140.96 1558.83C1140.18 1557.9 1139.49 1556.9 1138.89 1555.84C1138.22 1554.8 1137.78 1552.93 1138.89 1552.73C1140.01 1552.53 1141.36 1553.85 1142.12 1554.8C1142.82 1555.76 1143.29 1556.86 1143.51 1558.03C1143.63 1559.14 1143.66 1560.26 1143.59 1561.37Z" fill="#263238"/>
<path d="M1060.6 1555.84C1060.6 1555.84 1062.79 1555.64 1066.26 1556.08C1070.77 1556.6 1075.05 1558.38 1078.6 1561.22C1082.13 1564.08 1084.79 1567.87 1086.29 1572.17C1087.44 1575.43 1087.56 1577.66 1087.72 1577.62C1087.8 1577.11 1087.8 1576.58 1087.72 1576.07C1087.57 1574.72 1087.31 1573.39 1086.93 1572.09C1085.57 1567.57 1082.87 1563.57 1079.2 1560.62C1075.52 1557.66 1071.04 1555.88 1066.34 1555.52C1064.93 1555.39 1063.52 1555.39 1062.12 1555.52C1061.12 1555.64 1060.6 1555.76 1060.6 1555.84Z" fill="#263238"/>
<path d="M1068.69 1523.94C1068.13 1529.23 1067.89 1534.55 1067.97 1539.87C1067.7 1545.18 1067.77 1550.5 1068.17 1555.8C1068.7 1550.51 1068.94 1545.19 1068.89 1539.87C1069.15 1534.56 1069.09 1529.24 1068.69 1523.94Z" fill="#263238"/>
<path d="M1097.52 1570.65C1101.18 1571.52 1104.94 1571.91 1108.71 1571.81C1112.47 1572 1116.25 1571.7 1119.94 1570.93C1119.94 1570.69 1114.88 1570.93 1108.71 1570.93C1102.54 1570.93 1097.56 1570.37 1097.52 1570.65Z" fill="#263238"/>
<path d="M1082.47 1570.53C1082.47 1570.73 1082.9 1571.61 1083.38 1572.76C1083.86 1573.92 1084.18 1574.95 1084.46 1574.91C1084.74 1574.87 1084.85 1573.72 1084.26 1572.41C1083.66 1571.09 1082.66 1570.37 1082.47 1570.53Z" fill="#263238"/>
<path d="M1076.85 1563.49C1076.65 1563.49 1077.17 1564.44 1077.97 1565.28C1078.76 1566.11 1079.52 1566.59 1079.72 1566.39C1079.92 1566.19 1079.4 1565.44 1078.6 1564.6C1077.81 1563.76 1077.05 1563.29 1076.85 1563.49Z" fill="#263238"/>
<path d="M1068.77 1560.22C1068.77 1560.5 1069.84 1560.5 1070.96 1560.9C1072.07 1561.29 1072.91 1561.89 1073.11 1561.73C1073.31 1561.57 1072.67 1560.5 1071.27 1560.02C1069.88 1559.54 1068.69 1559.98 1068.77 1560.22Z" fill="#263238"/>
<path d="M1062.99 1558.67C1062.99 1558.91 1063.35 1559.3 1063.99 1559.58C1064.62 1559.86 1065.22 1559.82 1065.3 1559.58C1065.38 1559.34 1064.94 1558.95 1064.31 1558.71C1063.67 1558.47 1063.27 1558.43 1062.99 1558.67Z" fill="#263238"/>
<g opacity="0.3">
<path d="M1060.72 1553.77L1137.34 1552.85L1137.26 1543.61L1060.12 1548.91L1060.72 1553.77Z" fill="black"/>
</g>
<path d="M967.974 859.138L998.678 951.567C1006.96 976.536 1028.78 980.837 1055.11 980.837H1225.91V942.488L1069.88 920.227L1032.69 825.209L967.974 859.138Z" fill="#FFBE9D"/>
<path d="M1244.7 934.563L1258.24 928.151C1258.24 928.151 1272.86 899.917 1276.2 901.072C1279.55 902.227 1280.54 910.51 1274.69 923.452L1292.69 918.315C1292.69 918.315 1331.72 936.355 1330 938.784C1328.29 941.213 1325.07 946.987 1316.58 942.766C1308.1 938.545 1296.91 933.288 1296.91 933.288L1275.88 939.302L1303 942.766L1328.53 965.943C1328.53 965.943 1320.13 972.235 1312.92 965.585L1246.65 979.801L1225.91 980.996V942.647L1244.7 934.563Z" fill="#FFBE9D"/>
<path d="M1312.92 965.465C1312.64 965.465 1311.41 963.673 1308.94 961.085C1307.53 959.601 1305.91 958.338 1304.12 957.341C1301.87 956.266 1299.44 955.63 1296.95 955.47C1290.22 955.011 1283.55 953.877 1277.04 952.085C1283.78 951.856 1290.54 952.31 1297.19 953.439C1299.98 953.609 1302.7 954.384 1305.15 955.709C1307.07 956.866 1308.76 958.364 1310.13 960.129C1311.52 961.629 1312.48 963.471 1312.92 965.465Z" fill="#EB996E"/>
<path d="M1302.57 968.094C1302.29 968.094 1302.09 966.74 1300.26 966.341C1298.42 965.943 1295.32 965.625 1292.29 965.306C1288.39 965.244 1284.5 964.857 1280.66 964.151C1284.5 962.813 1288.62 962.497 1292.61 963.235C1295.44 963.481 1298.23 964.056 1300.93 964.948C1301.41 965.122 1301.83 965.403 1302.18 965.77C1302.52 966.136 1302.78 966.577 1302.92 967.058C1302.92 967.775 1302.69 968.133 1302.57 968.094Z" fill="#EB996E"/>
<path d="M823.776 478.95L814.497 666.834L894.939 674.4L899.399 629.002C899.399 629.002 927.753 636.011 936.355 609.768C941.89 593.002 946.789 461.666 946.789 461.666L823.776 478.95Z" fill="#FFBE9D"/>
<path d="M953.718 483.41C955.948 501.011 931.377 511.286 931.377 511.286L927.076 552.901C923.232 552.626 919.372 552.626 915.528 552.901C917.598 533.387 892.43 537.21 889.882 550.511C887.333 563.812 901.829 571.856 901.829 571.856C891.793 587.268 887.691 595.431 873.435 609.887C857.984 625.537 849.541 626.812 833.612 626.334L816.05 625.537C816.05 625.537 809.758 610.524 805.178 575.042C802.988 557.998 789.648 535.617 793.471 507.901C804.223 429.091 879.727 437.414 879.727 437.414C919.191 438.251 948.541 442.631 953.718 483.41Z" fill="#263238"/>
<path d="M896.015 439.445C913.059 439.883 930.74 441.237 945.714 449.401C960.687 457.565 972.236 474.41 969.169 491.175L960.647 492.728L957.143 486.436C957.143 489.781 957.143 493.126 957.143 496.472L942.169 500.653C939.917 487.868 935.413 475.585 928.869 464.374" fill="#263238"/>
<path d="M826.962 525.901C826.369 524.995 825.926 524 825.647 522.954C824.682 520.168 823.963 517.303 823.497 514.392C821.879 504.725 822.553 494.814 825.465 485.456C828.377 476.097 833.445 467.553 840.262 460.512C842.271 458.366 844.471 456.406 846.833 454.658C847.66 453.935 848.602 453.356 849.621 452.945C849.82 453.224 846.156 455.972 841.338 461.467C835.078 468.626 830.372 477.006 827.519 486.078C824.779 495.181 823.939 504.751 825.05 514.193C825.807 521.48 827.32 525.781 826.962 525.901Z" fill="#455A64"/>
<path d="M842.811 519.33C841.267 516.301 840.206 513.049 839.665 509.693C837.898 501.67 837.374 493.423 838.112 485.241C838.804 477.033 840.737 468.976 843.846 461.348C844.969 458.125 846.595 455.101 848.665 452.388C844.379 462.937 841.526 474.014 840.183 485.321C839.538 496.724 840.422 508.162 842.811 519.33Z" fill="#455A64"/>
<path d="M945.514 490.18C945.116 490.18 944.439 485.321 941.174 478.233C936.979 468.886 930.256 460.899 921.763 455.171C913.27 449.443 903.344 446.203 893.107 445.817C885.143 445.458 880.404 446.653 880.324 446.295C881.374 445.765 882.504 445.415 883.669 445.259C886.79 444.641 889.966 444.347 893.147 444.383C903.777 444.368 914.167 447.545 922.971 453.502C931.775 459.458 938.588 467.921 942.528 477.795C943.73 480.734 944.624 483.79 945.196 486.914C945.482 487.977 945.589 489.081 945.514 490.18Z" fill="#455A64"/>
<path d="M829.471 424.233C833.969 425.184 838.027 427.592 841.019 431.082C844.512 434.077 846.896 438.158 847.789 442.671C847.232 442.91 844.643 437.574 839.546 432.516C834.448 427.459 829.192 424.83 829.471 424.233Z" fill="#263238"/>
<path d="M848.227 424.313C848.824 424.512 847.59 428.733 847.829 433.95C848.068 439.166 849.501 443.228 848.944 443.507C846.704 440.874 845.564 437.48 845.758 434.029C845.282 430.592 846.168 427.105 848.227 424.313Z" fill="#455A64"/>
<path d="M953.519 838.988L966.621 883.47L1050.01 845.758C1047.02 836.439 1033.2 794.944 1006.84 729.077C999.625 711.02 987.88 695.126 972.737 682.927C957.595 670.728 939.565 662.634 920.386 659.427C894.096 654.629 867.46 651.965 840.741 651.462C793.989 651.98 725.254 681.21 715.936 727.126C708.847 762.09 715.657 823.855 715.657 898.881L721.75 1042.24L961.324 1050.21L953.519 838.988Z" fill="#D4F600"/>
<g opacity="0.3">
<path d="M715.776 865.749C744.927 871.722 774.834 865.749 804.541 863.957C822.541 862.882 842.532 860.93 856.789 871.921C868.099 880.682 872.718 895.457 875.904 909.395C888.329 962.479 890.559 998.08 893.346 1052.52L749.148 1061.28L715.776 865.749Z" fill="black"/>
</g>
<path d="M999.833 715.338C999.833 715.935 936.912 716.373 859.338 716.373C781.763 716.373 718.882 715.935 718.882 715.338C718.882 714.741 781.763 714.303 859.338 714.303C936.912 714.303 999.833 714.78 999.833 715.338Z" fill="#FAFAFA"/>
<path d="M1017.31 755.599C1017.31 756.156 948.899 756.634 864.594 756.634C780.289 756.634 711.874 756.156 711.874 755.599C711.874 755.041 780.21 754.563 864.594 754.563C948.979 754.563 1017.31 755.041 1017.31 755.599Z" fill="#FAFAFA"/>
<path d="M1039.38 806.094C1039.38 806.692 966.422 807.13 876.422 807.13C786.422 807.13 713.467 806.692 713.467 806.094C713.467 805.497 786.422 805.059 876.422 805.059C966.422 805.059 1039.38 805.537 1039.38 806.094Z" fill="#FAFAFA"/>
<path d="M951.767 860.572C951.767 861.129 928.948 861.607 900.873 861.607C872.798 861.607 849.939 861.129 849.939 860.572C849.939 860.014 872.718 859.537 900.873 859.537C929.028 859.537 951.767 859.975 951.767 860.572Z" fill="#FAFAFA"/>
<path d="M956.426 919.709C956.426 920.266 932.532 920.545 903.143 920.306C873.754 920.067 849.86 919.43 849.86 918.833C849.86 918.235 873.754 917.997 903.143 918.235C932.532 918.474 956.426 919.032 956.426 919.709Z" fill="#FAFAFA"/>
<path d="M958.736 967.695C957.357 967.945 955.951 968.012 954.554 967.895L943.125 967.656C933.488 967.457 920.187 967.178 905.492 967.178C890.798 967.178 877.616 967.417 867.86 967.616L856.431 967.855C855.03 968.037 853.611 968.037 852.209 967.855C853.569 967.457 854.975 967.243 856.391 967.218C859.059 966.939 862.962 966.66 867.78 966.381C877.417 965.784 890.758 965.306 905.492 965.306C920.227 965.306 933.568 965.824 943.165 966.421C947.983 966.7 951.886 967.019 954.594 967.297C955.986 967.262 957.376 967.396 958.736 967.695Z" fill="#FAFAFA"/>
<path d="M957.979 1006.56C957.979 1007.12 934.483 1007.6 905.492 1007.6C876.501 1007.6 853.046 1007.12 853.046 1006.56C853.046 1006.01 876.501 1005.53 905.492 1005.53C934.483 1005.53 957.979 1005.97 957.979 1006.56Z" fill="#FAFAFA"/>
<path d="M965.107 675.874C965.107 676.471 918.992 676.909 862.125 676.909C805.258 676.909 759.104 676.471 759.104 675.874C759.104 675.276 805.218 674.838 862.125 674.838C919.032 674.838 965.107 675.316 965.107 675.874Z" fill="#FAFAFA"/>
<path d="M959.731 683.36C959.731 683.599 957.342 683.719 953.359 685.272C947.833 687.695 943.06 691.56 939.541 696.462C934.461 703.825 931.6 712.491 931.298 721.431C930.994 732.428 931.848 743.427 933.846 754.245C937.197 774.061 941.664 793.672 947.227 812.984C949.178 820.192 950.811 826.125 952.045 830.625C952.716 832.763 953.235 834.945 953.598 837.156C952.643 835.131 951.871 833.026 951.289 830.864C949.935 826.882 948.023 820.789 945.793 813.382C939.868 794.101 935.212 774.453 931.855 754.563C929.859 743.585 929.057 732.423 929.466 721.272C929.88 712.012 933.01 703.079 938.466 695.586C942.197 690.559 947.299 686.715 953.16 684.515C954.75 683.975 956.392 683.601 958.059 683.4C958.611 683.307 959.175 683.293 959.731 683.36Z" fill="#263238"/>
<path d="M1047.34 834.369C1043.63 836.961 1039.7 839.226 1035.59 841.138C1028.19 845.121 1017.79 850.099 1006.16 855.355C994.536 860.612 983.864 864.992 976.059 867.979C971.909 869.772 967.621 871.224 963.236 872.32C967.178 870.122 971.278 868.218 975.501 866.625C983.147 863.28 993.74 858.66 1005.33 853.483C1016.92 848.306 1027.35 843.329 1034.92 839.824C1038.93 837.726 1043.08 835.903 1047.34 834.369Z" fill="#263238"/>
<path d="M795.701 1044.59L1081.95 1054.71C1104.28 1055.51 1125.41 1065.03 1140.81 1081.23C1156.2 1097.43 1164.64 1119.02 1164.3 1141.36L1152.35 1550.18L1041.77 1546.52L1050.01 1163.74L795.661 1157.05L795.701 1044.59Z" fill="#263238"/>
<path d="M677.427 1044.59L963.713 1054.71C986.048 1055.51 1007.18 1065.03 1022.57 1081.23C1037.97 1097.43 1046.4 1119.02 1046.07 1141.36L1034.12 1550.18L922.059 1541.3L931.855 1163.74L677.506 1157.05L677.427 1044.59Z" fill="#263238"/>
<path d="M891.674 1193.09H863.519V1530.43H891.674V1193.09Z" fill="#455A64"/>
<path d="M627.25 865.669V1114C627.25 1129.65 633.464 1144.65 644.524 1155.71C655.585 1166.77 670.586 1172.98 686.228 1172.98H851.612V865.669C851.612 862.218 850.932 858.8 849.611 855.611C848.29 852.422 846.354 849.525 843.914 847.084C841.473 844.644 838.576 842.708 835.387 841.387C832.198 840.066 828.78 839.386 825.329 839.386H653.533C650.082 839.386 646.664 840.066 643.475 841.387C640.286 842.708 637.389 844.644 634.948 847.084C632.508 849.525 630.572 852.422 629.251 855.611C627.93 858.8 627.25 862.218 627.25 865.669Z" fill="#455A64"/>
<path d="M1074.14 1193.09H671.454C671.454 1181.47 676.069 1170.33 684.284 1162.12C692.499 1153.9 703.641 1149.29 715.259 1149.29H1030.54C1042.15 1149.29 1053.3 1153.9 1061.51 1162.12C1069.73 1170.33 1074.34 1181.47 1074.34 1193.09H1074.14Z" fill="#455A64"/>
<path d="M851.612 1143.59C851.662 1144.23 851.662 1144.87 851.612 1145.5C851.58 1147.33 851.353 1149.14 850.935 1150.92C849.607 1156.54 846.671 1161.66 842.484 1165.64C838.298 1169.62 833.042 1172.3 827.36 1173.34C822.071 1173.91 816.748 1174.11 811.431 1173.94H775.232C749.546 1173.94 726.29 1173.94 709.484 1173.7L689.573 1173.42L684.157 1173.22C683.515 1173.21 682.876 1173.15 682.246 1173.02C682.867 1172.84 683.511 1172.76 684.157 1172.78L689.573 1172.58L709.484 1172.23C726.29 1172.03 749.546 1171.91 775.232 1171.87H811.391C816.61 1172.08 821.837 1171.96 827.041 1171.51C831.452 1170.76 835.625 1168.98 839.227 1166.33C844.551 1162.41 848.384 1156.79 850.099 1150.4C851.493 1146.22 851.373 1143.59 851.612 1143.59Z" fill="#263238"/>
<path d="M902.307 1193.97C894.108 1195.02 885.834 1195.36 877.577 1195C869.332 1195.36 861.072 1195.02 852.886 1193.97C861.074 1192.95 869.332 1192.6 877.577 1192.93C885.834 1192.6 894.106 1192.95 902.307 1193.97Z" fill="#263238"/>
<path d="M1024.8 1175.13C1023.62 1171.23 1022.79 1167.23 1022.33 1163.19C1020.98 1155.54 1019.19 1144.43 1017.04 1130.73C1014.89 1117.03 1013.41 1100.42 1005.85 1083.98C1001.88 1075.42 996.865 1067.4 990.912 1060.08C984.405 1052.33 976.845 1045.52 968.452 1039.85C960.092 1034.13 950.907 1029.71 941.213 1026.75C932.187 1023.87 922.807 1022.25 913.337 1021.93C895.138 1021.54 878.492 1021.62 864.634 1021.34C850.776 1021.06 839.506 1020.94 831.74 1020.7C827.741 1020.79 823.741 1020.51 819.793 1019.86C823.744 1019.24 827.742 1018.98 831.74 1019.07C839.506 1018.83 850.736 1018.59 864.634 1018.43C878.532 1018.27 894.979 1017.91 913.457 1018.15C933.878 1018.63 953.729 1024.98 970.642 1036.43C979.375 1042.29 987.209 1049.38 993.899 1057.5C1000.06 1065.11 1005.21 1073.49 1009.23 1082.42C1010.15 1084.54 1010.9 1086.73 1011.74 1088.84L1012.93 1092.02C1013.21 1093.1 1013.53 1094.17 1013.81 1095.25C1014.41 1097.36 1015.01 1099.47 1015.56 1101.54C1016.12 1103.61 1016.32 1105.72 1016.72 1107.75C1018.11 1115.92 1018.87 1123.4 1019.82 1130.33C1021.58 1144.07 1022.97 1155.26 1023.81 1162.95C1024.5 1166.97 1024.84 1171.05 1024.8 1175.13Z" fill="#455A64"/>
<path d="M1000.75 1560.86H996.766C997.056 1544.94 994.172 1529.12 988.281 1514.33C982.391 1499.54 973.612 1486.08 962.458 1474.72C951.305 1463.36 937.999 1454.34 923.319 1448.18C908.639 1442.02 892.879 1438.85 876.959 1438.85C861.039 1438.85 845.279 1442.02 830.599 1448.18C815.919 1454.34 802.614 1463.36 791.46 1474.72C780.306 1486.08 771.527 1499.54 765.637 1514.33C759.746 1529.12 756.862 1544.94 757.152 1560.86H753.17C752.875 1544.41 755.859 1528.08 761.947 1512.8C768.036 1497.52 777.107 1483.61 788.631 1471.88C800.155 1460.15 813.901 1450.83 829.067 1444.47C844.232 1438.1 860.513 1434.83 876.959 1434.83C893.405 1434.83 909.686 1438.1 924.851 1444.47C940.017 1450.83 953.763 1460.15 965.287 1471.88C976.811 1483.61 985.882 1497.52 991.971 1512.8C998.06 1528.08 1001.04 1544.41 1000.75 1560.86Z" fill="#455A64"/>
<path d="M773.718 1567.15C773.718 1570.82 772.63 1574.41 770.591 1577.46C768.552 1580.51 765.654 1582.89 762.263 1584.29C758.872 1585.7 755.14 1586.07 751.541 1585.35C747.941 1584.63 744.634 1582.87 742.039 1580.27C739.444 1577.68 737.676 1574.37 736.96 1570.77C736.244 1567.17 736.612 1563.44 738.016 1560.05C739.421 1556.66 741.799 1553.76 744.851 1551.72C747.903 1549.68 751.491 1548.59 755.161 1548.59C757.599 1548.59 760.015 1549.06 762.269 1549.99C764.523 1550.92 766.571 1552.29 768.295 1554.02C770.019 1555.74 771.386 1557.79 772.317 1560.04C773.247 1562.3 773.724 1564.71 773.718 1567.15Z" fill="#263238"/>
<path d="M1018.23 1564.6C1018.23 1568.27 1017.14 1571.86 1015.1 1574.91C1013.06 1577.96 1010.17 1580.34 1006.78 1581.75C1003.38 1583.15 999.653 1583.52 996.053 1582.8C992.453 1582.09 989.147 1580.32 986.551 1577.72C983.956 1575.13 982.189 1571.82 981.473 1568.22C980.756 1564.62 981.124 1560.89 982.529 1557.5C983.933 1554.11 986.312 1551.21 989.363 1549.17C992.415 1547.13 996.003 1546.04 999.673 1546.04C1004.6 1546.04 1009.32 1548 1012.8 1551.48C1016.28 1554.96 1018.23 1559.68 1018.23 1564.6Z" fill="#263238"/>
<path d="M999.554 1530.43C999.554 1531.03 945.674 1531.51 879.249 1531.51C812.825 1531.51 758.944 1531.03 758.944 1530.43C758.944 1529.83 812.785 1529.4 879.249 1529.4C945.714 1529.4 999.554 1529.87 999.554 1530.43Z" fill="#455A64"/>
<path d="M588.582 755.519C591.518 757.375 594.053 759.801 596.037 762.653C598.02 765.506 599.412 768.726 600.13 772.125C601.492 778.974 601.274 786.042 599.493 792.793C596.467 805.855 587.546 818.36 577.989 827.997C567.993 816.966 567.396 799.683 567.635 790.882C568.033 776.984 577.232 752.094 588.582 755.519Z" fill="#D4F600"/>
<path d="M588.422 851.413C588.121 847.55 588.842 843.677 590.513 840.181C592.183 836.686 594.745 833.692 597.94 831.501C601.187 829.36 604.826 827.884 608.647 827.159C612.469 826.434 616.396 826.476 620.201 827.28C621.987 827.467 623.71 828.042 625.25 828.963C626.791 829.885 628.112 831.132 629.121 832.616C629.824 834.144 630.107 835.832 629.939 837.505C629.771 839.178 629.158 840.776 628.166 842.134C626.11 844.847 623.358 846.953 620.201 848.227C609.807 853.165 598.856 856.191 588.343 851.492" fill="#D4F600"/>
<path d="M571.617 880.563C572.169 877.642 573.023 874.786 574.166 872.041C575.279 868.99 576.763 866.087 578.586 863.399C580.669 860.042 582.984 856.835 585.515 853.802C590.172 848.216 596.136 843.866 602.878 841.138C604.929 840.385 607.05 839.838 609.21 839.506C610.001 839.374 610.808 839.374 611.599 839.506C611.599 839.784 608.254 840.143 603.276 842.253C596.865 845.183 591.191 849.51 586.67 854.917C584.172 857.893 581.858 861.018 579.741 864.275C577.918 866.868 576.369 869.644 575.122 872.559C574.146 875.307 572.974 877.982 571.617 880.563Z" fill="#263238"/>
<path d="M583.246 775.072C583.394 776.569 583.394 778.076 583.246 779.572C583.246 782.439 582.847 786.621 582.489 791.758C581.732 802.072 580.498 816.289 578.825 831.979C577.153 847.669 575.161 861.767 573.529 871.802C572.692 876.899 572.015 881.001 571.458 883.749C571.252 885.235 570.919 886.7 570.462 888.129C570.449 886.62 570.582 885.113 570.861 883.629C571.299 880.523 571.816 876.421 572.453 871.682C573.807 861.448 575.599 847.311 577.312 831.621C579.024 815.931 580.338 802.032 581.294 791.519C581.812 786.581 582.25 782.479 582.568 779.333C582.69 777.898 582.917 776.474 583.246 775.072Z" fill="#263238"/>
<path d="M570.98 854.559C569.444 846.499 566.014 838.92 560.974 832.446C555.933 825.972 549.426 820.789 541.989 817.324C538.007 815.612 533.268 814.537 530.241 817.324C527.215 820.112 528.011 825.289 529.604 829.072C533.075 837.058 538.836 843.837 546.158 848.55C553.479 853.264 562.034 855.701 570.741 855.554" fill="#D4F600"/>
<path d="M544.896 829.191C545.649 829.424 546.362 829.773 547.007 830.227C555.057 834.851 562.066 841.088 567.595 848.545C569.772 851.845 571.399 855.477 572.414 859.298C573.2 862.421 573.561 865.635 573.489 868.855C573.433 871.011 573.18 873.157 572.732 875.267C572.628 876.062 572.414 876.84 572.095 877.576C571.776 877.576 572.493 874.191 572.414 868.855C572.336 865.748 571.895 862.661 571.099 859.656C570.032 856.01 568.421 852.547 566.321 849.382C562.298 843.687 557.391 838.672 551.785 834.528C549.381 832.893 547.08 831.111 544.896 829.191Z" fill="#263238"/>
<path d="M569.666 980.877C556.46 980.866 543.799 975.613 534.465 966.271C525.13 956.93 519.887 944.264 519.887 931.058V881.28H619.444V931.058C619.444 944.264 614.201 956.93 604.867 966.271C595.533 975.613 582.872 980.866 569.666 980.877Z" fill="#263238"/>
<path d="M619.484 905.771C619.082 906.281 618.629 906.748 618.13 907.165L614.148 910.868L598.975 923.691L598.617 923.97L598.179 923.731L569.467 906.488H570.303L543.263 923.691L542.865 923.97L542.467 923.651L525.94 910.709L521.4 907.045C520.838 906.632 520.33 906.151 519.887 905.612C520.536 905.876 521.14 906.239 521.679 906.687C522.954 907.603 524.546 908.758 526.458 910.072L543.303 922.576H542.507L569.228 904.974L569.666 904.696L570.104 904.935L598.816 922.536H598.02L613.431 910.072L617.772 906.647C618.887 906.089 619.444 905.691 619.484 905.771Z" fill="#E0E0E0"/>
<path d="M619.484 895.815C619.082 896.325 618.629 896.793 618.13 897.209L614.148 900.912L599.135 913.855L598.776 914.134L598.338 913.895L569.467 896.532H570.303L543.422 913.934L543.024 914.213L542.626 913.895L526.099 900.952L521.56 897.289C520.997 896.876 520.489 896.394 520.046 895.855C520.695 896.12 521.3 896.482 521.838 896.93L526.617 900.315L543.462 912.819H542.666L569.387 895.218L569.825 894.939L570.263 895.178L598.975 912.78H598.179L613.59 900.315L617.931 896.89C618.887 896.134 619.444 895.815 619.484 895.815Z" fill="#E0E0E0"/>
<path d="M619.484 915.727C619.484 915.727 619.046 916.284 618.13 917.16L614.148 920.824L599.135 933.766L598.776 934.085L598.338 933.806L569.467 916.643H570.303L543.423 934.045L543.024 934.324L542.626 934.045C535.976 928.789 530.361 924.408 526.1 921.103L521.56 917.399C520.524 916.523 520.007 916.045 520.047 915.966C520.685 916.25 521.287 916.611 521.839 917.041C523.113 917.996 524.706 919.112 526.617 920.466L543.462 932.93H542.666L569.387 915.328L569.825 915.05L570.263 915.328L598.976 932.89H598.179L613.59 920.386L617.931 917.001C618.391 916.51 618.913 916.082 619.484 915.727Z" fill="#E0E0E0"/>
<path d="M1909.74 1097.8C1889.12 1101.14 1879.88 1126.47 1881.87 1147.3C1883.86 1168.12 1892.26 1188.51 1889.83 1209.26C1886.93 1235.66 1866.98 1257.96 1864.67 1284.41C1861.92 1315.59 1883.98 1343.26 1890.55 1373.85C1893.78 1388.74 1893.34 1404.51 1898.87 1418.69C1903.6 1430.76 1912.36 1440.83 1923.68 1447.16C1934.99 1453.5 1948.15 1455.71 1960.92 1453.43C1973.68 1451.14 1985.26 1444.5 1993.67 1434.64C2002.09 1424.78 2006.83 1412.3 2007.07 1399.34C2007.51 1375.44 1992.74 1352.86 1994.53 1328.97C1995.84 1311.33 2006.2 1294.6 2004.01 1277.2C2001.34 1256.29 1981.98 1241.36 1975.13 1221.45C1968.28 1201.54 1974.9 1179.55 1972.51 1158.61C1968.28 1121.05 1947.46 1094.89 1909.78 1097.88" fill="#D4F600"/>
<path d="M1804.37 1279.67C1800.83 1314.47 1816.32 1355.33 1834.12 1385.48C1852.24 1415.76 1879.54 1439.47 1912.05 1453.18C1915.68 1454.69 1920.22 1455.96 1923.28 1453.49C1924.38 1452.3 1925.19 1450.89 1925.68 1449.35C1926.17 1447.81 1926.32 1446.18 1926.11 1444.57C1926.38 1407.63 1914.66 1371.6 1892.71 1341.88C1870.76 1312.16 1839.76 1290.36 1804.37 1279.75" fill="#D4F600"/>
<g opacity="0.2">
<path d="M1804.37 1279.67C1800.83 1314.47 1816.32 1355.33 1834.12 1385.48C1852.24 1415.76 1879.54 1439.47 1912.05 1453.18C1915.68 1454.69 1920.22 1455.96 1923.28 1453.49C1924.38 1452.3 1925.19 1450.89 1925.68 1449.35C1926.17 1447.81 1926.32 1446.18 1926.11 1444.57C1926.38 1407.63 1914.66 1371.6 1892.71 1341.88C1870.76 1312.16 1839.76 1290.36 1804.37 1279.75" fill="black"/>
</g>
<path d="M1955.98 1525.85C1955.56 1525.26 1955.23 1524.62 1954.98 1523.94L1952.47 1518.21C1950.4 1513.27 1947.26 1506.26 1943.28 1497.3C1932.91 1474.44 1921.38 1452.13 1908.75 1430.44C1896.03 1408.77 1882.23 1387.76 1867.41 1367.48C1861.72 1359.71 1857.02 1353.46 1853.71 1349.2C1852.2 1347.21 1850.93 1345.53 1849.97 1344.22C1849.5 1343.67 1849.09 1343.07 1848.74 1342.43C1848.74 1342.43 1849.33 1342.91 1850.25 1343.98L1854.23 1348.72C1857.74 1352.7 1862.59 1358.96 1868.45 1366.64C1898.93 1406.81 1924.48 1450.49 1944.55 1496.74C1948.53 1505.62 1951.32 1512.87 1953.19 1517.93L1955.34 1523.78C1955.62 1524.45 1955.83 1525.14 1955.98 1525.85Z" fill="#263238"/>
<path d="M1933.56 1194.09C1933.78 1195.19 1933.92 1196.31 1933.96 1197.43C1933.96 1199.78 1934.36 1202.97 1934.63 1207.03C1935.19 1215.51 1935.95 1227.54 1936.9 1242.27C1938.78 1272.06 1941.4 1313.2 1944.63 1358.6C1947.86 1403.99 1950.96 1445.13 1953.27 1474.88C1954.39 1489.61 1955.3 1501.6 1955.98 1510.12C1956.26 1514.1 1956.46 1517.33 1956.62 1519.68C1956.71 1520.81 1956.71 1521.94 1956.62 1523.07C1956.62 1523.07 1956.42 1521.91 1956.14 1519.72C1955.86 1517.53 1955.54 1514.18 1955.1 1510.16C1954.31 1501.68 1953.19 1489.69 1951.8 1475C1949.13 1445.25 1945.74 1404.19 1942.56 1358.76C1939.37 1313.32 1937.02 1272.18 1935.39 1242.27C1934.71 1227.5 1934.16 1215.51 1933.76 1206.99C1933.76 1203.01 1933.52 1199.74 1933.44 1197.35C1933.38 1196.26 1933.42 1195.17 1933.56 1194.09Z" fill="#263238"/>
<path d="M1901.54 1476.23H1988.71V1540.23C1988.7 1551.32 1984.29 1561.96 1976.44 1569.8C1968.59 1577.64 1957.95 1582.04 1946.86 1582.04C1936.15 1582.05 1925.85 1577.95 1918.08 1570.58C1910.31 1563.22 1905.66 1553.15 1905.09 1542.46L1901.54 1476.23Z" fill="#263238"/>
<path d="M1460.07 632.546L1667.94 747.674L1660.14 762.329L1454.09 645.051L1460.07 632.546Z" fill="#D4F600"/>
<path d="M1449.83 621.675L1459.39 607.06L1464.96 610.484L1456.4 625.219L1449.83 621.675Z" fill="#D4F600"/>
<path d="M1644.33 729.475L1655 735.608L1620.19 957.74L1603.71 957.939L1644.33 729.475Z" fill="#D4F600"/>
<path d="M1555.8 980.877C1555.8 980.877 1581.17 955.231 1615.1 956.983C1624.79 957.338 1634.32 959.607 1643.14 963.66C1651.96 967.713 1659.88 973.469 1666.47 980.598L1555.8 980.877Z" fill="#D4F600"/>
<path d="M1450.03 722.387L1367.72 674.838L1391.61 633.701C1394.73 628.295 1398.88 623.557 1403.83 619.756C1408.78 615.956 1414.43 613.168 1420.46 611.552C1426.49 609.936 1432.78 609.523 1438.96 610.337C1445.15 611.152 1451.12 613.178 1456.52 616.299C1467.43 622.604 1475.39 632.982 1478.65 645.153C1481.92 657.324 1480.22 670.293 1473.92 681.21L1450.03 722.387Z" fill="#D4F600"/>
</svg>
